<svg width="100" height="176" viewBox="0 0 100 176" fill="none" xmlns="http://www.w3.org/2000/svg">
<path d="M33.0132 162.694C24.6914 167.494 12.1174 168.02 4.91345 163.855C-2.29048 159.698 -1.38451 152.436 6.92996 147.636C15.2444 142.828 27.8257 142.309 35.0297 146.467C42.2336 150.624 41.3276 157.886 33.0132 162.694Z" fill="#212A3D"/>
<path d="M16.6034 3.33778C10.7584 4.98899 7.68251 10.4321 8.81497 16.4013C9.12914 18.0744 9.794 19.4334 10.5685 20.69C10.5758 20.7193 10.5831 20.7485 10.5977 20.7777C10.868 22.1074 11.1749 23.3495 11.4817 24.3358C11.6644 25.0153 11.8836 25.556 12.0078 25.9505C12.1393 26.3377 12.2197 26.5569 12.2197 26.5569C12.2197 26.5569 12.1685 26.3304 12.0735 25.9286C11.9932 25.5268 11.8251 24.9788 11.7082 24.2847C11.7959 24.5623 11.8544 24.7231 11.8544 24.7231C11.8544 24.7231 11.8324 24.5843 11.7959 24.3431C12.0808 25.1468 12.3585 25.914 12.5558 26.5277C12.8115 27.3387 12.9503 27.8867 12.9503 27.8867C12.9503 27.8867 12.9138 27.441 12.8188 26.7469L13.6809 28.9826L13.3375 26.9734C13.3302 26.9149 13.3156 26.8492 13.3083 26.7761C13.3083 26.6738 13.3083 26.5642 13.3083 26.4473C13.3083 26.4254 13.3083 26.4035 13.3083 26.3816L13.6371 27.1633C13.6663 27.3387 13.6955 27.5067 13.7101 27.6675C13.7832 28.062 13.7613 28.3908 13.7832 28.6246C13.7978 28.8584 13.8051 28.9899 13.8051 28.9899C13.8051 28.9899 13.8197 28.8584 13.849 28.6246C13.8636 28.4346 13.9074 28.157 13.9293 27.8501L14.0535 28.1351L13.9439 27.5652C13.9512 27.3752 13.9585 27.178 13.9585 26.9661L14.1704 27.5287V27.4921C14.2435 27.8428 14.3019 28.1716 14.3165 28.4565C14.375 28.9972 14.4115 29.3552 14.4115 29.3552C14.4115 29.3552 14.4627 28.9972 14.543 28.4565C14.543 28.4565 14.543 28.4419 14.543 28.4346C14.7549 29.4283 14.8937 30.0785 14.8937 30.0785C14.8937 30.0785 14.828 29.3479 14.733 28.252C14.733 28.0985 14.7038 27.9305 14.6892 27.7625C14.9595 28.42 15.1348 28.8584 15.1348 28.8584C15.1348 28.8584 15.0106 28.2154 14.828 27.3095C15.2298 28.3104 15.5002 29.2237 15.5002 29.2237C15.5002 29.2237 15.4855 28.8876 15.4636 28.3835C15.4636 27.872 15.3613 27.1999 15.2883 26.5204C15.1787 25.914 15.0764 25.3003 14.9595 24.8181C14.9887 24.6865 15.0033 24.5989 15.0033 24.5989L14.9084 24.6135C14.7915 24.1386 14.7111 23.8244 14.7111 23.8244L14.6526 23.8463C14.6453 23.6271 14.6307 23.4883 14.6307 23.4883L13.9805 23.6125C14.1412 22.4216 14.4261 21.143 14.5869 20.1713C13.4471 14.1071 22.0831 4.91592 30.2733 11.2139C29.645 7.51694 23.7343 1.64274 16.6034 3.34509V3.33778Z" fill="#685244"/>
<path d="M35.2269 74.1204C34.7813 74.1204 34.321 74.0546 33.868 73.9231C31.3546 73.1706 29.9226 70.5257 30.6752 68.0124C35.11 53.1296 34.7155 50.704 25.4293 35.5728C24.0557 33.3371 24.7571 30.4146 26.9928 29.041C29.2285 27.6675 32.151 28.3689 33.5246 30.6046C44.2866 48.1541 45.0465 53.0273 39.7714 70.723C39.1577 72.7833 37.2654 74.1204 35.2196 74.1204H35.2269Z" fill="#CDD6CC"/>
<path d="M6.49159 145.531C6.49159 145.531 5.0888 152.582 3.93442 158.799C2.78003 165.024 14.8061 164.966 13.7467 158.646L12.6873 152.326V145.707L6.49159 145.524V145.531Z" fill="#473E3C"/>
<path d="M28.5637 142.981C29.8057 146.751 35.3146 148.856 38.7266 151.457C42.1313 154.058 40.2609 154.569 37.2142 155.424C34.1675 156.279 26.854 153.999 26.5472 152.377C26.2403 150.755 22.6676 149.966 22.3315 151.077C22.0027 152.187 17.7212 151.559 17.8747 149.974C18.0208 148.388 18.1669 146.81 18.3204 145.224C22.5945 145.853 25.2978 146.583 26.2768 145.509C25.517 143.844 26.9198 143.515 28.5637 142.981Z" fill="#473E3C"/>
<path d="M36.6663 71.9651C39.165 85.1309 36.7759 96.6893 35.7822 99.8163C34.7886 102.943 33.3565 115.612 31.4715 119.097C27.4604 141.33 29.7838 142.251 29.1189 144.209C30.5583 145.955 18.9487 147.497 18.0792 144.83C18.0573 140.921 19.6282 126.506 21.8712 111.148C21.009 106.925 17.6628 89.3612 14.9741 86.5848C16.6253 67.5959 30.0395 77.379 36.6663 71.9651Z" fill="#29617D"/>
<path d="M36.4032 68.575C37.8937 78.1315 30.9309 86.3364 30.4048 88.1995C28.4175 95.3084 23.0329 110.293 21.9004 114.765C20.7679 119.236 15.2664 141.396 14.6015 149.301C13.6298 150.047 5.94362 149.762 4.39471 148.403C6.74731 130.429 7.68981 119.675 10.4077 112.135C10.2835 109.57 11.0288 93.7156 9.54559 91.0635C6.00938 86.4387 8.12818 77.3059 9.63326 72.2281C11.6936 65.3091 27.139 75.7643 36.3959 68.5823L36.4032 68.575Z" fill="#29617D"/>
<path d="M25.0128 29.2456C25.0128 29.2456 24.7206 32.285 25.6047 33.9947C26.3718 41.7319 16.1869 34.2869 13.827 31.4375C14.1558 30.1151 16.1504 26.6811 13.4398 20.6973C16.5084 22.9623 25.0128 29.2456 25.0128 29.2456Z" fill="#DEBAA7"/>
<path d="M27.1828 29.8009L25.6485 30.0931C25.6485 30.0931 25.5243 35.3317 24.4795 35.8431C24.158 35.9016 14.6088 31.759 14.6088 31.759L29.2139 62.7665L27.1901 29.8082L27.1828 29.8009Z" fill="#F0F0F0"/>
<path d="M26.138 40.9063L29.2066 50.0976V59.9975L23.0256 45.3704L23.8804 41.1694L26.138 40.9063Z" fill="#224F75"/>
<path d="M26.1234 37.2167C26.3645 38.1592 25.7873 39.5474 26.138 40.9063C25.6193 41.1401 24.5452 41.7685 23.8804 41.1694C23.2155 40.5776 20.6876 37.6843 21.9004 37.4067C23.1132 37.1217 24.5964 35.9235 25.4951 35.1856C26.0503 36.0769 25.875 36.2815 26.1234 37.224V37.2167Z" fill="#29617D"/>
<path d="M14.2435 28.9607C14.3896 28.683 14.2435 28.9607 14.5211 29.2018C15.2737 29.8666 24.3553 35.6824 24.4795 35.8358C24.4137 36.15 21.0675 39.6789 19.8108 40.4168C16.092 36.1573 13.4398 31.5325 13.4398 31.5325C13.4398 31.5325 13.7101 29.3114 14.2435 28.9534V28.9607Z" fill="white"/>
<path d="M23.99 29.5671C22.9306 27.8867 27.0001 30.2393 27.0001 30.2393C27.0001 30.2393 27.6212 35.2879 26.5764 37.224C25.9334 34.7983 24.5526 35.8431 24.4795 35.8431C25.0055 35.339 25.0567 31.2475 23.9973 29.5671H23.99Z" fill="white"/>
<path d="M2.64852 38.3199C3.22571 37.0413 10.8753 31.7151 13.4325 30.1078C14.5796 32.5188 21.6885 40.9867 26.7663 46.576C27.4166 41.1986 26.4376 34.17 25.0567 28.7415C25.0202 28.61 24.969 28.4858 24.9325 28.3616C25.4366 28.3104 25.9919 28.1789 26.5691 28.2812C34.5182 29.6913 32.2022 35.1563 33.7876 40.468C38.2225 57.9664 41.145 72.3815 37.7476 72.3742C37.8718 73.945 38.259 74.7999 35.7676 75.4428C26.9928 77.6858 9.80861 80.7983 8.0332 73.5505C12.8845 53.8603 0.456657 43.1786 2.64852 38.3199Z" fill="#CDD6CC"/>
<path d="M27.7381 28.5588L30.0761 34.6376C30.0761 34.6376 27.7819 35.2732 27.6139 36.1573C27.4458 37.0413 27.5043 44.5302 26.7663 48.0153C26.6348 46.4079 26.1891 30.8895 24.9325 28.3689C25.5024 28.0401 27.7381 28.5588 27.7381 28.5588Z" fill="#DEE3DD"/>
<path d="M13.4325 29.8009C13.4325 29.8009 26.7956 47.2627 27.5043 48.8701C25.875 47.8911 16.7203 39.4889 16.0847 39.5035C16.2016 39.1163 16.7787 37.224 16.7787 37.224C16.7787 37.224 13.7905 38.3492 13.4325 39.2186C12.7311 38.7583 11.3721 32.1827 11.2699 31.8028C11.1676 31.4156 13.016 29.8082 13.016 29.8082H13.4252L13.4325 29.8009Z" fill="#DEE3DD"/>
<path d="M18.9998 47.4527C19.1533 47.8911 19.314 48.3295 19.4674 48.7532C19.5989 49.1112 19.4017 49.4546 19.0291 49.5423C17.071 49.9953 15.0983 50.799 13.1476 51.4711C12.7749 51.6026 12.3512 51.4054 12.2197 51.0693C12.0589 50.6674 11.9055 50.2656 11.7448 49.8857C14.1339 48.8847 16.5961 47.7742 18.9998 47.46V47.4527Z" fill="#DEE3DD"/>
<path d="M31.0478 45.743L30.7409 44.5887L34.3137 43.6389C34.4525 44.2307 34.584 44.8152 34.7155 45.3997L31.7346 46.196C31.4423 46.2764 31.1355 46.0718 31.0478 45.743Z" fill="#DEE3DD"/>
<path d="M21.0894 5.23009C28.5198 5.23009 30.8724 11.3965 31.3254 15.035C31.7784 18.6735 30.7701 19.9959 30.4925 21.9102C30.6459 28.157 26.6202 29.8959 25.3343 30.7653C24.0411 31.6347 23.2594 31.7078 22.2876 31.306C21.3232 30.9041 15.7559 28.6538 15.091 26.9734C14.28 24.9276 9.69171 21.2599 9.5529 15.5099C9.39216 8.87589 13.6517 5.2374 21.0821 5.2374L21.0894 5.23009Z" fill="#EBCAB5"/>
<path d="M15.2444 21.0407C15.2444 21.0407 13.7321 18.4324 12.7457 20.0909C11.7594 21.7494 12.1393 23.8829 12.7457 24.9934C13.3521 26.1039 15.2444 24.6792 15.2444 24.6792V21.0407Z" fill="#EBCAB5"/>
<path d="M7.11262 65.0461C4.51891 65.4479 2.09325 63.6725 1.69141 61.0788C1.66949 60.9254 -0.317802 45.2828 2.37819 39.3355C3.45951 36.9464 6.2724 35.887 8.66154 36.9756C11.0507 38.0569 12.1028 40.8698 11.0288 43.2589C10.0862 45.4581 10.4954 55.8402 11.0799 59.6249C11.4817 62.2186 9.70633 64.6442 7.11262 65.0461Z" fill="#CDD6CC"/>
<path d="M36.0306 53.2538C35.395 52.5671 34.679 51.946 34.0214 51.2739C33.7072 50.9597 33.3273 50.6309 32.8524 50.6236C32.3483 50.6236 31.7711 50.9159 31.2962 51.062C30.7263 51.23 30.1637 51.3761 29.5865 51.5369C29.5719 51.5369 29.5646 51.5442 29.55 51.5515C28.5052 51.7268 27.5408 52.0921 26.6348 52.6766H26.2403C26.2403 52.6401 26.2476 52.5963 26.2549 52.5597C25.5243 52.8082 24.0923 53.4876 24.0703 54.3863C24.0484 55.3069 24.8156 56.0886 25.5316 56.5416C26.4449 57.1188 27.8111 56.885 28.7609 56.4686C29.7327 56.0375 29.7984 54.3863 30.9528 54.5251C30.4121 55.9571 31.5957 56.7097 32.8305 56.0448C34.0726 55.3799 33.247 54.189 32.8524 53.2392C32.8378 53.1954 32.8159 53.1589 32.8013 53.1223C33.4588 52.9543 33.9191 53.5899 34.4379 53.8895C35.1027 54.2694 35.5484 54.832 36.0964 55.3361C36.4836 55.6941 37.4042 56.4905 37.8426 55.8402C37.4846 54.9343 36.6882 53.9552 36.0306 53.2538Z" fill="#EBCAB5"/>
<path d="M6.03861 65.9374C9.40677 65.4991 14.4334 62.993 16.8591 61.8606C18.503 61.561 20.1396 61.1592 21.7104 60.6989C24.4649 59.8879 24.3845 58.9527 24.2603 57.5572C24.7425 56.6805 24.1361 54.8028 23.5735 53.4657C22.8502 51.7488 20.8775 52.0848 19.2994 52.1725C16.6107 52.326 13.9147 52.2821 11.2479 52.7205C8.41313 53.1881 4.81847 53.7141 3.05767 56.1106C1.69141 57.9664 1.07038 60.4797 1.6768 62.7081C2.42203 65.4479 4.07323 66.1858 6.04591 65.9301L6.03861 65.9374Z" fill="#CDD6CC"/>
<path d="M21.9588 52.7351C21.9588 52.7351 24.1434 52.0264 25.6193 52.6036C27.0951 53.1808 28.2422 60.0121 25.1151 59.3399C23.1205 59.3034 20.5049 59.2522 20.5049 59.2522L21.9662 52.7351H21.9588Z" fill="#CDD6CC"/>
<path d="M31.6615 13.0331C31.4862 11.9226 31.2304 10.8193 30.9528 9.833C30.9455 9.45308 30.9382 9.2339 30.9382 9.2339L30.7848 9.26312C30.6971 8.98548 30.6167 8.72246 30.529 8.47405C30.4414 8.05759 30.3464 7.7069 30.2952 7.42926C30.2003 7.02742 30.1491 6.79362 30.1491 6.79362L29.9299 6.87399C29.8861 6.76439 29.8423 6.66211 29.8057 6.56713C29.6523 6.19451 29.5646 5.97532 29.5646 5.97532L29.4112 6.063C29.382 6.01186 29.3674 5.97532 29.3674 5.97532L28.8998 6.3041C28.8121 6.14337 28.7244 5.98994 28.644 5.86573C28.3737 5.43466 28.2203 5.17895 28.2203 5.17895L25.9261 6.99089C25.9261 6.99089 26.0869 7.17354 26.3645 7.4804C26.5106 7.63383 26.6714 7.8311 26.8467 8.07221C26.8613 8.08682 26.8759 8.10874 26.8832 8.12335L25.78 8.43752C25.7727 8.39368 25.7654 8.35715 25.7654 8.35715L24.9252 8.67862L24.5452 8.78822H24.5233L24.085 8.91242C24.085 8.91242 24.0996 8.94165 24.1142 8.98548L24.063 9.0074L22.5872 8.7736C22.5872 8.7736 22.5726 8.95626 22.5507 9.27773C22.5287 9.46039 22.5214 9.68688 22.4995 9.9426L22.3315 9.95721C22.3315 9.95721 22.368 10.1399 22.4338 10.454C22.4264 10.5125 22.4191 10.5636 22.4045 10.6221C22.4045 10.6513 22.3899 10.6951 22.3899 10.7317L21.4036 10.5125L20.5122 10.1106C20.5122 10.1106 20.2857 10.739 19.9204 11.718L19.7012 11.6011C19.7012 11.6011 19.4309 12.2879 19.0291 13.3254C18.9852 13.4277 18.9414 13.5519 18.8975 13.6615L17.7797 13.2742C17.7797 13.2742 17.7578 13.3692 17.7139 13.5373L16.8153 12.9893C16.8153 12.9893 16.7349 13.1719 16.6034 13.4861L16.2016 13.245C16.2016 13.245 16.1139 13.4569 15.9678 13.8149C15.8582 14.1291 15.6463 14.5455 15.4855 15.0569L14.6015 14.7866C14.6015 14.7866 14.5723 14.9327 14.5284 15.1885L13.8709 14.677C13.8709 14.677 13.7978 14.8231 13.6736 15.0862C13.5859 15.2834 13.4398 15.5392 13.3229 15.846L12.2343 15.4515C12.3658 14.9254 12.4462 14.604 12.4462 14.604L9.5602 14.1218C9.5602 14.1218 9.5602 14.8743 9.57481 15.9994C9.52367 17.1173 9.75747 18.6005 9.89629 20.0471C10.1958 21.4937 10.4004 22.9184 10.7511 23.9559C11.0507 24.9934 11.2479 25.6802 11.2479 25.6802C11.2479 25.6802 11.226 24.9642 11.2041 23.8902C11.1676 23.4153 11.1822 22.8673 11.2187 22.2901C11.2625 22.4947 11.3064 22.6992 11.3502 22.8746C11.416 23.218 11.5183 23.4956 11.584 23.7148C11.4598 24.7961 11.3721 25.556 11.3721 25.556C11.3721 25.556 11.9201 24.3431 12.6069 22.8235C12.658 23.4518 12.7092 23.8536 12.7092 23.8536C12.7092 23.8536 12.8188 23.313 13.0307 22.5166C13.1914 21.8736 13.4471 21.0773 13.754 20.2809C13.7174 20.6243 13.6809 20.9677 13.6517 21.3111C13.5348 22.9696 13.5202 24.6208 13.6517 25.8482C13.6809 26.4619 13.8051 26.9661 13.8416 27.3168C13.9001 27.6675 13.9293 27.8647 13.9293 27.8647C13.9293 27.8647 13.9439 27.6602 13.9658 27.3095C14.0097 26.9588 13.9951 26.4546 14.1047 25.8555C14.1412 25.5341 14.1996 25.1834 14.2727 24.8181C14.2946 25.3368 14.3458 25.7679 14.3677 26.082C14.3969 26.44 14.4188 26.6519 14.4188 26.6519C14.4188 26.6519 14.4481 26.4473 14.4992 26.0893C14.5138 26.0163 14.5211 25.9359 14.5357 25.8555C14.5357 25.9797 14.543 26.0455 14.543 26.0455C14.543 26.0455 14.5796 25.8482 14.638 25.4902C14.7111 25.1395 14.7622 24.6354 14.9084 24.0509C14.9522 23.8463 15.0033 23.6198 15.0618 23.3933C15.2152 23.1376 15.4271 22.7796 15.6755 22.3632C15.8435 22.0709 16.0408 21.7494 16.2527 21.4134C16.1577 21.7129 16.0554 22.0052 15.9824 22.2828C15.5586 23.671 15.2737 24.5916 15.2737 24.5916C15.2737 24.5916 15.6097 23.9559 16.1358 22.9623C16.1358 22.9623 16.1358 22.9696 16.1358 22.9769C16.0554 23.3057 16.0116 23.4956 16.0116 23.4956C16.0116 23.4956 16.0993 23.3203 16.26 23.0207C16.4134 22.765 16.5596 22.3924 16.8153 21.9905C16.6253 22.6773 16.5011 23.1303 16.5011 23.1303C16.5011 23.1303 17.261 22.049 18.1815 20.7266C17.6774 21.5887 17.3559 22.1586 17.3559 22.1586C17.3559 22.1586 17.8893 21.6033 18.6857 20.7777C18.7733 20.6973 18.8683 20.5878 18.956 20.5001C18.8756 20.9238 18.8245 21.1869 18.8245 21.1869C18.8245 21.1869 18.9925 20.9019 19.2555 20.4562C19.2994 20.3978 19.3505 20.3393 19.4017 20.2663C19.482 20.1567 19.5916 20.0252 19.7012 19.8864C19.5332 20.4635 19.4309 20.8289 19.4309 20.8289C19.4309 20.8289 19.6136 20.5512 19.9131 20.0909C19.7962 20.4489 19.672 20.7558 19.5989 20.9823C19.4893 21.2745 19.4309 21.4353 19.4309 21.4353C19.4309 21.4353 19.5332 21.2891 19.7085 21.0407C19.7889 20.9165 19.8985 20.7704 20.0154 20.6097C19.6574 21.4864 19.4309 22.049 19.4309 22.049C19.4309 22.049 19.8985 21.3768 20.6072 20.3613C20.651 20.3028 20.6949 20.2444 20.7314 20.1859C20.6218 20.4562 20.5049 20.69 20.4319 20.8581C20.3369 21.07 20.2784 21.1869 20.2784 21.1869C20.2784 21.1869 20.4245 21.0407 20.6949 20.7923L20.7095 20.7777C20.0958 21.7641 19.672 22.407 19.672 22.407C19.672 22.407 20.2784 21.8225 21.1625 20.9165C21.294 20.785 21.4328 20.6316 21.5716 20.4855C21.5497 20.5512 21.5351 20.617 21.5205 20.6681C21.5059 20.69 21.4986 20.7047 21.4986 20.7047L21.5205 20.69C21.5205 20.69 21.4986 20.7558 21.4986 20.7777C21.4839 20.8362 21.4693 20.8873 21.4547 20.9385C21.3963 21.0188 21.3524 21.0846 21.3086 21.1503C21.1259 21.4134 21.0237 21.5595 21.0237 21.5595C21.0237 21.5595 21.1625 21.4426 21.4036 21.2307C21.6374 21.0188 22.01 20.7412 22.3972 20.354C22.4557 20.3028 22.5214 20.2371 22.5799 20.1786C22.5799 20.2151 22.558 20.2663 22.558 20.3028C22.5068 20.5585 22.4849 20.7047 22.4849 20.7047C22.4849 20.7047 22.536 20.5658 22.6237 20.3247C22.6456 20.2517 22.6895 20.1494 22.7187 20.0544C22.8356 19.9375 22.9525 19.8352 23.084 19.7037C23.0767 19.7621 23.0621 19.8352 23.0548 19.8864C23.0036 20.1786 22.9744 20.3393 22.9744 20.3393C22.9744 20.3393 23.0475 20.1859 23.1717 19.9229C23.2374 19.7621 23.347 19.5503 23.4566 19.3165C23.537 19.2361 23.6101 19.163 23.6904 19.0754C23.6247 19.3311 23.5881 19.4845 23.5881 19.4845C23.5881 19.4845 23.6685 19.3457 23.8073 19.1046C23.8439 19.0315 23.895 18.9439 23.9534 18.8562C23.9315 18.9731 23.9096 19.0973 23.9023 19.185C23.8585 19.448 23.8365 19.6014 23.8365 19.6014C23.8365 19.6014 23.9023 19.4626 24.0265 19.2215C24.085 19.09 24.1726 18.9219 24.2676 18.732C24.2457 18.827 24.2238 18.9292 24.2019 19.0242C24.1215 19.1484 24.0484 19.2872 23.9681 19.4041C23.6685 19.9229 23.3616 20.3101 23.1717 20.6024C22.9744 20.8873 22.8575 21.0553 22.8575 21.0553C22.8575 21.0553 23.0036 20.9238 23.2594 20.69C23.4274 20.5293 23.6539 20.332 23.9096 20.0982C23.8512 20.3028 23.7927 20.5001 23.7343 20.69C23.705 20.7704 23.6758 20.8508 23.6539 20.9165C23.537 21.238 23.4712 21.428 23.4712 21.428C23.4712 21.428 23.4932 21.3914 23.537 21.333C23.442 21.6106 23.347 21.8517 23.2813 22.049C23.1717 22.3559 23.1059 22.5239 23.1059 22.5239C23.1059 22.5239 23.2082 22.3705 23.3909 22.1074C23.5662 21.8371 23.8439 21.4645 24.1215 20.9823C24.3699 20.5951 24.6329 20.1348 24.8959 19.6379C24.8375 19.9229 24.8083 20.0909 24.8083 20.0909C24.8083 20.0909 25.1078 19.5284 25.5535 18.6808C25.6704 18.4836 25.7873 18.2571 25.8969 18.0233C25.875 18.2717 25.8458 18.4836 25.8311 18.6516C25.8019 18.9439 25.7873 19.1119 25.7873 19.1119C25.7873 19.1119 25.8458 18.9512 25.9553 18.6808C26.0503 18.4032 26.2476 18.0087 26.3718 17.5191C26.3718 17.5045 26.3791 17.4899 26.3864 17.4753C26.3864 17.7383 26.3864 17.994 26.3864 18.2278C26.3864 18.6443 26.328 18.9804 26.3134 19.2215C26.2914 19.4626 26.2768 19.6014 26.2768 19.6014C26.2768 19.6014 26.3353 19.4772 26.4303 19.2507C26.5179 19.0242 26.6933 18.7101 26.8248 18.3155C26.9271 18.0598 27.0221 17.7676 27.117 17.4534C27.117 17.5191 27.117 17.5922 27.117 17.6433C27.117 17.8771 27.117 18.016 27.117 18.016C27.117 18.016 27.1609 17.8918 27.2412 17.6653C27.2851 17.5191 27.3581 17.3219 27.4312 17.1027C27.4312 17.1246 27.4312 17.1465 27.4312 17.1684C27.4604 17.6068 27.3947 17.9575 27.3947 18.2205C27.3801 18.4763 27.3654 18.6224 27.3654 18.6224C27.3654 18.6224 27.4166 18.4836 27.5116 18.2498C27.5919 18.0233 27.7454 17.7018 27.8623 17.3C27.8696 17.9502 27.855 18.3813 27.855 18.3813C27.855 18.3813 27.8988 18.2571 27.9865 18.0379C28.0595 17.8187 28.1984 17.5045 28.3153 17.1173C28.381 16.92 28.4468 16.7008 28.5125 16.467C28.5417 16.6935 28.5564 16.9127 28.5637 17.11C28.6075 17.5264 28.5783 17.8698 28.5856 18.1109C28.5856 18.3594 28.5856 18.4982 28.5856 18.4982C28.5856 18.4982 28.6294 18.3667 28.7098 18.1329C28.7609 17.9502 28.8632 17.6945 28.9436 17.4022C28.9436 17.4826 28.9436 17.5264 28.9436 17.5264C28.9436 17.5264 28.9874 17.4169 29.0532 17.2342C29.1043 17.0735 29.2066 16.8397 29.287 16.5693C29.4112 17.1246 29.5354 17.6653 29.5573 18.1036C29.6231 18.7101 29.6669 19.1119 29.6669 19.1119C29.6669 19.1119 29.8057 18.7247 30.0103 18.1475C30.0176 18.1256 30.0249 18.0963 30.0395 18.0744C30.0687 18.2425 30.098 18.4105 30.1053 18.5712C30.2076 19.3384 30.2733 19.8425 30.2733 19.8425C30.2733 19.8425 30.3025 19.7256 30.3464 19.5357C30.3756 20.0471 30.3683 20.4855 30.3829 20.8069C30.3902 21.2015 30.3975 21.428 30.3975 21.428C30.3975 21.428 30.4194 21.3038 30.4633 21.0773C30.5071 21.8298 30.5217 22.2828 30.5217 22.2828C30.5217 22.2828 30.624 21.5229 30.7555 20.3247C30.7628 20.2882 30.7701 20.2517 30.7848 20.2151C30.814 20.0617 30.8578 19.879 30.909 19.6818C30.9382 20.2224 30.8944 20.6754 30.909 20.9969C30.909 21.3549 30.8944 21.5522 30.8944 21.5522C30.8944 21.5522 30.9455 21.3549 31.0332 21.0115C31.1062 20.6681 31.2743 20.1786 31.3619 19.5722C31.3619 19.5503 31.3693 19.521 31.3766 19.4918C31.3766 19.5284 31.3766 19.5649 31.3766 19.5941C31.3766 19.9813 31.3766 20.2078 31.3766 20.2078C31.3766 20.2078 31.4204 19.9886 31.4935 19.6087C31.5519 19.2288 31.72 18.6808 31.7711 18.016C31.9464 16.6789 31.9538 14.8524 31.7053 13.0258L31.6615 13.0331ZM27.4458 9.24851C27.4458 9.16083 27.4312 9.05855 27.4239 8.98548C27.4239 8.95626 27.4239 8.92704 27.4239 8.89781C27.4897 8.99279 27.5481 9.09508 27.6139 9.19006L27.4531 9.2412L27.4458 9.24851ZM21.2867 19.5868C21.2648 19.6233 21.2501 19.6599 21.2282 19.7037C21.1113 19.901 20.9944 20.0763 20.8848 20.2297C20.9214 20.1786 20.9506 20.1348 20.9798 20.0763C21.0894 19.901 21.2063 19.7037 21.3232 19.4991C21.3086 19.5284 21.294 19.5576 21.2794 19.5868H21.2867ZM27.0586 8.37176C27.0586 8.37176 27.0732 8.39368 27.1024 8.4156C27.1243 8.44482 27.1463 8.48135 27.1755 8.51789L26.949 8.53981C26.9271 8.34254 26.9052 8.20372 26.8979 8.14527C26.949 8.21833 27.0074 8.29139 27.0659 8.36446L27.0586 8.37176ZM21.7543 20.259C21.7543 20.259 21.7616 20.2517 21.7689 20.2444C21.7689 20.2517 21.7543 20.2663 21.7543 20.2736V20.259ZM21.6228 20.5585C21.6666 20.522 21.7177 20.4709 21.7762 20.4197C21.6885 20.5512 21.6082 20.6681 21.5278 20.7777C21.557 20.712 21.5935 20.6316 21.6228 20.5585Z" fill="#685244"/>
<path d="M93.0702 171.403C84.7485 176.203 72.1745 176.729 64.9705 172.564C57.7666 168.407 58.6726 161.145 66.9871 156.345C75.3015 151.544 87.8828 151.018 95.0868 155.176C102.291 159.333 101.385 166.595 93.0702 171.395V171.403Z" fill="#212A3D"/>
<path d="M55.3044 69.0133C54.6469 69.0133 53.9601 68.9768 53.2514 68.8891C50.6431 68.5896 48.78 66.237 49.0795 63.6287C49.3791 61.0203 51.739 59.15 54.34 59.4568C57.3209 59.7929 59.4105 59.128 64.5687 41.8123C65.3212 39.299 67.9588 37.867 70.4721 38.6195C72.9855 39.3647 74.4175 42.0096 73.6649 44.5302C69.2958 59.1938 65.5623 69.0206 55.3044 69.0206V69.0133Z" fill="#CDD6CC"/>
<path d="M93.5086 154.978C93.5086 154.978 94.9114 162.029 96.0658 168.246C97.2202 174.471 85.1941 174.413 86.2535 168.093L87.313 161.773V155.154L93.5013 154.971L93.5086 154.978Z" fill="#111111"/>
<path d="M71.4365 152.421C70.1872 156.184 64.6856 158.295 61.2736 160.896C57.8689 163.497 59.7393 164.009 62.786 164.864C65.8327 165.718 73.1462 163.439 73.4531 161.817C73.7599 160.195 77.3326 159.406 77.6687 160.509C77.9975 161.62 82.279 160.991 82.1255 159.406C81.9794 157.82 81.8333 156.242 81.6799 154.657C77.4057 155.285 74.6951 156.016 73.7234 154.942C74.4832 153.276 73.0804 152.947 71.4365 152.421Z" fill="#111111"/>
<path d="M63.3266 81.4047C60.8279 94.5705 63.217 106.129 64.2107 109.256C65.2043 112.383 66.6364 125.052 68.5214 128.537C72.5325 150.777 70.2091 151.69 70.874 153.649C69.4346 155.395 81.0442 156.936 81.9137 154.27C81.9356 150.361 80.3647 135.946 78.1217 120.588C78.9839 116.365 82.3301 98.8008 85.0188 96.0244C83.3676 77.0356 69.9534 86.8186 63.3266 81.4047Z" fill="#64646D"/>
<path d="M63.597 78.0146C62.1065 87.5711 69.0693 95.776 69.5954 97.6391C71.5827 104.748 76.9674 119.733 78.0998 124.204C79.2323 128.676 84.7338 150.836 85.3987 158.741C86.3704 159.486 94.0493 159.201 95.6055 157.842C93.2529 139.869 92.3104 129.114 89.5925 121.574C89.7167 119.01 88.9715 103.155 90.4546 100.503C93.9908 95.8783 91.8793 86.7455 90.3669 81.6677C88.3066 74.7487 72.8613 85.2039 63.6043 78.0219L63.597 78.0146Z" fill="#64646D"/>
<path d="M74.9874 38.6852C74.9874 38.6852 75.2796 41.7246 74.3956 43.4343C73.6284 51.1716 83.8133 43.7265 86.1732 40.8771C85.8444 39.5547 83.8498 36.1208 86.5604 30.137C83.4918 32.4019 74.9874 38.6852 74.9874 38.6852Z" fill="#DEBAA7"/>
<path d="M72.8174 39.2405L74.359 39.5328C74.359 39.5328 74.4832 44.7713 75.528 45.2828C75.8495 45.3412 85.406 41.1986 85.406 41.1986L70.8009 72.2062L72.8247 39.2478L72.8174 39.2405Z" fill="#F0F0F0"/>
<path d="M73.8549 50.346L70.7936 59.5445V69.4371L76.9747 54.8101L76.1125 50.6163L73.8549 50.346Z" fill="#383A63"/>
<path d="M73.8695 46.6636C73.6284 47.6061 74.2056 48.9943 73.8549 50.3533C74.3809 50.5871 75.4477 51.2154 76.1125 50.6163C76.7774 50.0245 79.3053 47.1312 78.0925 46.8536C76.8797 46.5687 75.3965 45.3704 74.4978 44.6325C73.9426 45.5239 74.1179 45.7284 73.8695 46.6709V46.6636Z" fill="#454A6D"/>
<path d="M85.7567 38.4003C85.6106 38.1227 85.7567 38.4003 85.4791 38.6414C84.7265 39.3063 75.6449 45.122 75.5207 45.2755C75.5865 45.5896 78.9327 49.1185 80.1967 49.8565C83.9156 45.5969 86.5677 40.9721 86.5677 40.9721C86.5677 40.9721 86.2974 38.751 85.764 38.393L85.7567 38.4003Z" fill="white"/>
<path d="M76.0102 39.0067C77.0696 37.3263 73.0001 39.6789 73.0001 39.6789C73.0001 39.6789 72.379 44.7275 73.4238 46.6636C74.0668 44.238 75.4477 45.2828 75.5207 45.2828C74.9947 44.7786 74.9435 40.6872 76.0029 39.0067H76.0102Z" fill="white"/>
<path d="M97.3517 47.7669C96.7745 46.4883 89.1249 41.1621 86.5677 39.5547C85.4206 41.9657 78.3117 50.4336 73.2339 56.0229C72.5836 50.6455 73.5626 43.6169 74.9435 38.1884C74.98 38.0569 75.0312 37.9327 75.0677 37.8085C74.5636 37.7574 74.0083 37.6258 73.4311 37.7281C65.482 39.1382 67.798 44.6033 66.2126 49.9149C61.7777 67.4133 58.8552 81.8284 62.2526 81.8211C62.1284 83.392 61.7412 84.2468 64.2326 84.8897C73.0074 87.1328 90.1916 90.2452 91.967 82.9974C87.1157 63.3145 99.5435 52.6328 97.3517 47.7742V47.7669Z" fill="#CDD6CC"/>
<path d="M72.2621 37.9985L69.9241 44.0772C69.9241 44.0772 72.2183 44.7129 72.3863 45.5969C72.5544 46.481 72.4959 53.9698 73.2339 57.4549C73.3654 55.8475 73.8111 40.3291 75.0677 37.8085C74.4978 37.4797 72.2621 37.9985 72.2621 37.9985Z" fill="#DEE3DD"/>
<path d="M86.5604 39.2405C86.5604 39.2405 73.1973 56.7024 72.4886 58.3097C74.1106 57.3307 83.2726 48.9286 83.9082 48.9432C83.7914 48.5559 83.2142 46.6636 83.2142 46.6636C83.2142 46.6636 86.2024 47.7888 86.5604 48.6582C87.2618 48.1979 88.6208 41.6223 88.723 41.2424C88.8253 40.8552 86.9769 39.2478 86.9769 39.2478H86.5677L86.5604 39.2405Z" fill="#DEE3DD"/>
<path d="M81.0004 56.8996C80.8469 57.338 80.6935 57.7764 80.5328 58.2001C80.4013 58.5582 80.5985 58.9015 80.9712 58.9892C82.9292 59.4422 84.9019 60.2459 86.8527 60.9181C87.2253 61.0496 87.649 60.8523 87.7805 60.5162C87.9413 60.1144 88.0947 59.7125 88.2481 59.3326C85.859 58.3317 83.3968 57.2211 80.9931 56.9069L81.0004 56.8996Z" fill="#DEE3DD"/>
<path d="M68.9524 55.19L69.2593 54.0356L65.6865 53.0858C65.5477 53.6776 65.4162 54.2621 65.2847 54.8466L68.2656 55.643C68.5579 55.7233 68.8648 55.5188 68.9524 55.19Z" fill="#DEE3DD"/>
<path d="M78.9108 14.6697C71.4804 14.6697 69.1278 20.8362 68.6675 24.4747C68.2145 28.1132 69.2228 29.4356 69.5004 31.3498C69.347 37.5966 73.3654 39.3355 74.6586 40.2049C75.9518 41.0744 76.7336 41.1474 77.7053 40.7456C78.6697 40.3438 84.237 38.0934 84.9019 36.413C85.7129 34.3673 90.3012 30.6996 90.44 24.9496C90.6007 18.3155 86.3412 14.677 78.9108 14.677V14.6697Z" fill="#EBCAB5"/>
<path d="M83.3968 12.7847C76.266 11.0824 70.3552 16.9566 69.7269 20.6535C77.9172 14.3556 86.5531 23.5468 85.4133 29.6109C85.7202 31.4813 86.5093 34.4988 85.9467 35.7993C87.4664 32.2412 90.3889 30.0128 91.1852 25.8409C92.3177 19.8717 89.2418 14.4359 83.3968 12.7774V12.7847Z" fill="#4F5059"/>
<path d="M84.7558 30.4804C84.7558 30.4804 86.2682 27.8721 87.2618 29.5306C88.2481 31.1891 87.8682 33.3225 87.2618 34.433C86.6554 35.5436 84.7558 34.1189 84.7558 34.1189V30.4804Z" fill="#EBCAB5"/>
<path d="M89.461 32.5261C89.461 32.5261 89.2491 32.4677 88.9495 32.2558C88.723 32.117 88.46 31.8832 88.1897 31.5763C88.1751 31.5178 88.1459 31.3352 88.0947 31.0503C88.0947 31.0356 88.0947 31.021 88.0874 31.0064C88.0582 30.6996 88.0216 30.3781 87.9778 30.0566C88.0582 30.0931 88.1312 30.1224 88.197 30.1516C88.2481 30.1735 88.2847 30.1881 88.3285 30.2027C88.5404 30.3562 88.6573 30.4438 88.6573 30.4438C88.6573 30.4438 88.5988 30.3781 88.4966 30.2685C88.5988 30.305 88.6573 30.3342 88.6573 30.3342C88.6573 30.3342 88.555 30.2612 88.3723 30.137C88.3066 30.0639 88.2262 29.9762 88.1459 29.8886L88.387 29.6328L88.4235 29.6475C88.4235 29.6475 88.4089 29.6402 88.387 29.6255L89.461 28.4858L88.2481 18.0525L86.5677 14.6113L85.2818 14.2094C85.2161 14.1071 85.1576 14.0049 85.0772 13.888C84.9384 13.698 84.7631 13.5007 84.5658 13.3035C84.595 13.3035 84.6243 13.3181 84.6535 13.3254C84.8946 13.3911 85.1357 13.4642 85.3622 13.5446C85.5814 13.6834 85.7786 13.8149 85.9467 13.9464C86.3997 14.2752 86.5677 14.6186 86.5677 14.6186C86.5677 14.6186 86.5239 14.5382 86.4435 14.3994C86.3485 14.2679 86.1951 14.0925 85.9905 13.9026C85.9101 13.8295 85.8225 13.7564 85.7275 13.6834C85.954 13.7711 86.1659 13.8587 86.3412 13.9464C86.7942 14.151 87.028 14.3921 87.028 14.3921C87.028 14.3921 86.8161 14.1364 86.3778 13.888C86.0855 13.7126 85.7056 13.53 85.2964 13.3546C84.9896 13.1427 84.6535 12.9381 84.2882 12.7555C84.0252 12.624 83.7548 12.5144 83.4845 12.4267C83.4699 12.3683 83.4407 12.3098 83.3968 12.2514C83.3676 12.2148 83.3384 12.171 83.3091 12.1272C83.2726 12.0906 83.2215 12.0614 83.1776 12.0249C82.9146 11.8422 82.542 11.8714 82.184 12.003C81.6652 11.9299 81.11 11.9737 80.6789 12.2587C80.6643 12.266 80.6497 12.2806 80.6351 12.2879C80.4597 12.2441 80.2771 12.2148 80.0944 12.2075C79.6414 12.1418 79.1811 12.1199 78.7574 12.2294C78.3263 12.3244 78.0048 12.624 77.8441 12.9455C77.4496 12.9455 77.0404 12.9674 76.6166 13.0185C75.7399 13.1135 74.9289 13.5519 74.4978 14.0487C73.3946 14.4578 72.4083 15.0204 71.8384 15.7291C71.5096 16.0944 71.3489 16.489 71.2393 16.8031C70.8959 17.1538 70.5744 17.5338 70.3041 17.9502C69.968 18.4616 69.7123 19.0023 69.5004 19.543C69.3689 19.7475 69.2301 19.9448 69.1497 20.1859C68.7259 21.1211 68.6456 22.0563 68.609 22.86C68.441 23.6564 68.4337 24.4162 68.4483 25.0592C68.4483 25.0811 68.4483 25.0957 68.4483 25.1176C68.3606 26.1259 68.3679 27.0757 68.441 27.872C68.4994 28.6611 68.6163 29.3041 68.7113 29.7497C68.8136 30.1954 68.8794 30.4438 68.8794 30.4438C68.8794 30.4438 68.8648 30.1881 68.8282 29.7278C68.8063 29.2748 68.799 28.6319 68.8721 27.8647C68.8867 27.6602 68.9086 27.441 68.9378 27.2218C69.0474 27.9159 69.2666 28.4639 69.4054 28.8365C69.5808 29.1945 69.683 29.4064 69.683 29.4064C69.683 29.4064 69.6246 29.1872 69.5223 28.7999C69.4566 28.42 69.3543 27.8794 69.3689 27.2218C69.3762 27.2437 69.3835 27.2802 69.3908 27.3022C69.4639 27.5067 69.5296 27.6529 69.5954 27.7478C69.6538 27.8428 69.683 27.894 69.683 27.894C69.683 27.894 69.6611 27.8355 69.6246 27.7332C69.5808 27.6309 69.5442 27.4702 69.5077 27.2729C69.4492 26.8711 69.4858 26.2793 69.6684 25.6071C69.8511 24.935 70.1653 24.1824 70.5598 23.4006C70.947 22.5897 71.4292 21.9175 72.0941 21.3038C72.737 20.6973 73.4896 20.1567 74.2129 19.6087C74.644 19.2872 75.0677 19.0315 75.4696 18.8123C75.4696 18.8781 75.4696 18.9365 75.4696 19.0023C75.4988 19.8717 75.5865 20.8216 75.813 21.7275C76.2148 23.576 77.1573 25.2053 78.0048 26.2428C78.4067 26.7834 78.8085 27.1707 79.0788 27.4483C79.3492 27.7259 79.5026 27.8794 79.5026 27.8794C79.5026 27.8794 79.3784 27.6967 79.1665 27.3679C78.9546 27.0464 78.6405 26.5935 78.3628 26.0017C78.129 25.5706 77.9098 25.0665 77.7272 24.5185C77.9245 24.8546 78.1363 25.1761 78.3628 25.4829L79.0496 26.3158C79.298 26.5642 79.5684 26.798 79.8168 27.0391C79.9191 27.1414 80.0287 27.2291 80.1383 27.3241C80.5693 27.7917 81.015 28.1862 81.4314 28.5004C81.9794 28.9315 82.4981 29.2018 82.8561 29.3771C83.0169 29.4429 83.1411 29.494 83.2361 29.5306C83.4114 29.6548 83.5868 29.7717 83.7621 29.8813C83.8425 29.9982 83.8936 30.0712 83.8936 30.0712C83.8936 30.0712 83.8644 30.0128 83.7987 29.9032C84.0471 30.0566 84.2882 30.2027 84.5293 30.3269C84.6243 30.8238 84.69 31.2987 84.7265 31.7443C84.7119 31.7809 84.7046 31.8028 84.7046 31.8028C84.7046 31.8028 84.7119 31.7882 84.7265 31.759C84.7485 32.0366 84.7558 32.2996 84.7485 32.5334C84.7265 32.9499 84.6462 33.2933 84.5147 33.4978C84.3905 33.7097 84.237 33.7609 84.2443 33.7682C84.2443 33.7609 84.3978 33.7536 84.6096 33.5709C84.8142 33.3955 85.0261 33.0522 85.1795 32.6138C85.3403 32.1754 85.4572 31.6421 85.5521 31.0722C85.6106 31.1087 85.669 31.1306 85.7202 31.1598C85.7202 31.1891 85.7202 31.2183 85.7129 31.2402C85.6691 31.5909 85.6398 31.7955 85.6398 31.7955C85.6398 31.7955 85.691 31.5982 85.7713 31.2475C85.7713 31.2329 85.7786 31.211 85.7859 31.1891C86.1147 31.3498 86.4216 31.4375 86.67 31.4302C86.7869 31.4302 86.8819 31.4229 86.9622 31.4083C87.1157 31.6421 87.2691 31.8685 87.4298 32.0658C87.4883 32.1389 87.5541 32.2046 87.6125 32.2777C87.6563 32.4311 87.7002 32.5919 87.7294 32.738C87.8901 33.2713 87.9194 33.7316 87.9851 34.0531C88.0363 34.3746 88.0655 34.5645 88.0655 34.5645C88.0655 34.5645 88.0801 34.3819 88.102 34.0531C88.1093 33.7462 88.1751 33.3079 88.1605 32.7891C88.2993 32.8914 88.4381 32.9791 88.5696 33.0302C88.8984 33.1764 89.1176 33.1618 89.1103 33.1764C89.1103 33.1618 88.9057 33.1252 88.6281 32.928C88.4673 32.8257 88.3066 32.6576 88.1532 32.4384C88.1532 32.2704 88.1532 32.095 88.1385 31.9051C88.4162 32.095 88.6719 32.2339 88.8838 32.3142C89.2345 32.4604 89.4537 32.4677 89.4537 32.4823L89.461 32.5261ZM69.4419 20.6681C69.3689 20.8142 69.2958 20.9531 69.2228 21.0992C69.2958 20.8873 69.3908 20.6754 69.5004 20.4709C69.4785 20.5366 69.4566 20.6024 69.4419 20.6608V20.6681ZM72.9051 15.1373L72.2914 15.6561C72.1087 15.846 71.948 16.0652 71.7726 16.2625C71.7288 16.3063 71.6996 16.3502 71.663 16.4013C71.5315 16.5109 71.4073 16.6351 71.2831 16.7593C71.4 16.4597 71.568 16.1017 71.8822 15.773C72.3571 15.225 73.0951 14.7793 73.9426 14.4359C73.5846 14.6478 73.2339 14.8743 72.8978 15.1446L72.9051 15.1373ZM75.0531 13.8587C74.9289 13.8953 74.8047 13.9391 74.6878 13.9756C75.1481 13.5738 75.8714 13.2596 76.6386 13.2158C76.7482 13.2085 76.8578 13.2085 76.9747 13.2085C76.3536 13.3619 75.7034 13.5738 75.0531 13.8587ZM86.2974 30.2466C86.2609 30.2247 86.217 30.2027 86.1805 30.1808C86.1001 30.1224 86.027 30.0639 85.9394 29.9982C85.9394 29.9397 85.9394 29.8886 85.9394 29.8301C86.0563 29.9689 86.1659 30.0931 86.2828 30.2247C86.2828 30.232 86.2828 30.2393 86.2901 30.2466H86.2974ZM85.7348 29.8228C85.7348 29.8155 85.7202 29.8009 85.7129 29.7936C85.7129 29.7571 85.7129 29.7278 85.7129 29.6913C85.7129 29.7278 85.7275 29.779 85.7348 29.8228ZM81.2853 12.9381C81.2853 12.9381 81.2999 12.9162 81.3146 12.9016C81.3438 12.9235 81.3584 12.9455 81.3876 12.9674L81.2926 12.9381H81.2853ZM84.1274 13.8295L84.2224 13.603C84.2224 13.603 83.7475 13.4057 83.0315 13.1062C83.0169 13.1062 83.0023 13.0989 82.995 13.0916C83.1922 13.0843 83.4187 13.0916 83.6598 13.1208C83.8133 13.2231 83.9521 13.3254 84.069 13.4277C84.3393 13.6688 84.5001 13.8806 84.5658 13.9756L84.1201 13.8368L84.1274 13.8295ZM83.0023 13.4788L82.3885 13.2888C82.3885 13.2888 82.4178 13.2596 82.4397 13.2304C82.5931 13.2962 82.7393 13.3692 82.8781 13.435C82.9146 13.4569 82.9511 13.4715 82.9877 13.4861L83.0023 13.4788ZM85.0334 13.9172C85.1065 14.0049 85.1576 14.0852 85.2161 14.1729L84.5804 13.9756C84.5293 13.8806 84.3832 13.6468 84.1201 13.3765C84.0471 13.3035 83.9667 13.2231 83.8717 13.15C84.0325 13.1719 84.2005 13.2085 84.3685 13.245C84.6243 13.4715 84.8508 13.698 85.0334 13.9172ZM84.2078 12.9308C84.2516 12.9528 84.3028 12.9747 84.3466 12.9966C84.2955 12.982 84.2516 12.9674 84.2005 12.9528C84.1859 12.9381 84.1713 12.9235 84.1494 12.9162C84.164 12.9162 84.1859 12.9308 84.2005 12.9381L84.2078 12.9308ZM83.6818 12.7336C83.7548 12.7774 83.8206 12.8212 83.8863 12.8651C83.6964 12.8212 83.5137 12.7847 83.3384 12.7628C83.2215 12.6897 83.0973 12.624 82.9658 12.5655C83.1922 12.6021 83.4333 12.6532 83.6818 12.7263V12.7336ZM83.1484 12.0687C83.3091 12.171 83.3968 12.2879 83.4553 12.3975C83.4041 12.3829 83.3603 12.361 83.3091 12.3463C83.0534 12.2148 82.7758 12.1125 82.4835 12.0395C82.7246 11.9664 82.9658 11.9591 83.1484 12.0687ZM82.1109 12.2075C82.1109 12.2075 82.1401 12.2075 82.1548 12.2075C82.1255 12.2075 82.1036 12.2148 82.0817 12.2221C82.089 12.2221 82.1036 12.2148 82.1109 12.2075ZM82.1694 12.5728C82.2936 12.5801 82.4178 12.5948 82.542 12.624C82.6662 12.6532 82.7904 12.697 82.9146 12.7409H82.9073C82.7027 12.7409 82.5274 12.7847 82.3739 12.8432C82.2205 12.7847 82.0671 12.7263 81.899 12.6678C81.9648 12.624 82.0598 12.5948 82.1694 12.5728ZM82.0525 13.0477L82.0013 13.1062L82.184 13.2231L82.0744 13.1866C82.0744 13.1866 82.0159 13.1573 81.9867 13.15C81.9283 13.0843 81.8698 13.0112 81.8041 12.9455C81.8917 12.982 81.9721 13.0185 82.0525 13.055V13.0477ZM81.7675 12.2002C81.7164 12.2294 81.6652 12.266 81.6141 12.3025C81.4314 12.3171 81.2561 12.361 81.0954 12.4121C81.0661 12.4048 81.0369 12.3975 81.0077 12.3902C81.2342 12.2733 81.4899 12.2148 81.7602 12.2002H81.7675ZM80.73 12.5655C80.73 12.5655 80.7593 12.5728 80.7739 12.5801C80.7739 12.5801 80.7593 12.5801 80.7593 12.5874C80.5985 12.697 80.4816 12.8066 80.394 12.9162C80.372 12.9162 80.3501 12.9162 80.3209 12.9089C80.4451 12.792 80.5839 12.6751 80.73 12.5728V12.5655ZM80.3501 12.4705C80.1675 12.6021 80.014 12.7409 79.8679 12.8797C79.7291 12.8797 79.5757 12.8797 79.4149 12.8724C79.1227 12.8943 78.7866 12.9016 78.4359 12.9455C78.3628 12.9455 78.2898 12.9455 78.2167 12.9455C78.5016 12.7847 78.7939 12.6459 79.1081 12.5509C79.5172 12.4194 79.9483 12.4048 80.3501 12.4779V12.4705ZM78.7939 12.3463C78.9254 12.3171 79.0715 12.3025 79.2177 12.3025C79.1592 12.3171 79.1008 12.3244 79.0496 12.339C78.6624 12.4852 78.2971 12.6678 77.9683 12.8797C78.1436 12.6167 78.4359 12.4048 78.8012 12.339L78.7939 12.3463ZM85.7567 30.5169C85.7202 30.495 85.6764 30.4658 85.6398 30.4438C85.6471 30.3781 85.6617 30.3123 85.6691 30.2466C85.6983 30.2612 85.7348 30.2685 85.764 30.2831C85.764 30.3635 85.764 30.4438 85.764 30.5242L85.7567 30.5169ZM85.9248 30.3342C86.0271 30.3708 86.1147 30.4 86.2024 30.4365C86.2901 30.4804 86.3704 30.5169 86.4508 30.5461C86.5385 30.7142 86.6262 30.8749 86.7211 31.0356C86.4727 30.9187 86.1878 30.7799 85.8882 30.5973C85.9028 30.5169 85.9102 30.4219 85.9175 30.3342H85.9248ZM86.6846 31.3498C86.4727 31.3133 86.2243 31.1891 85.9832 30.9991C86.312 31.116 86.6042 31.211 86.86 31.2767C86.8819 31.3133 86.9038 31.3498 86.9257 31.3863C86.8527 31.3863 86.7723 31.3717 86.6846 31.3498ZM88.1239 31.4959C88.1239 31.4959 88.1239 31.4448 88.1239 31.4156C88.1459 31.4813 88.1678 31.5252 88.1824 31.5617C88.1678 31.5398 88.1459 31.5178 88.1312 31.4959H88.1239Z" fill="#4F5059"/>
<path d="M87.9559 85.7957C86.5458 85.7957 85.1649 85.1162 84.3174 83.8596C82.9657 81.8504 83.4918 79.1251 85.501 77.7735C88.5696 75.4501 93.0337 57.3088 90.2208 51.8803C89.1103 49.7322 89.9432 47.0874 92.0985 45.9695C94.2465 44.859 96.8914 45.6919 98.0092 47.8472C101.129 53.8603 99.4851 63.9282 98.6303 67.9759C97.7827 72.0089 95.284 81.7554 90.3962 85.0432C89.6436 85.5473 88.7961 85.7957 87.9486 85.7957H87.9559Z" fill="#CDD6CC"/>
<path d="M68.8428 66.4489C62.5522 65.5283 55.7793 63.8844 48.6631 61.5537C41.5468 59.2303 34.0872 56.2275 26.4376 52.5963C30.5437 60.75 34.6424 68.8964 38.7485 77.0429C46.3981 80.6668 53.8578 83.6696 60.974 85.993C68.0903 88.3164 74.8632 89.9676 81.1538 90.8881C77.0477 82.7417 72.9489 74.5953 68.8428 66.4416V66.4489Z" fill="#F0F0F0"/>
<path d="M84.8361 80.5937C83.5722 80.959 82.5931 81.1051 82.1401 80.8786C81.4461 80.4403 80.2624 79.9215 79.1373 80.1115C78.0121 80.3014 76.434 79.6001 75.4184 79.3224C75.3965 79.3224 75.3819 79.3224 75.3673 79.3151L76.3828 81.3316L76.6386 81.8358C75.6888 82.1938 74.0083 82.7636 73.2339 82.5883C72.1233 82.3326 71.2612 82.3253 71.9114 83.7938C72.5617 85.2624 74.1325 85.5327 74.8266 86.0807C75.3454 86.4898 77.3911 88.0022 79.583 87.6807C80.3574 87.5711 81.1538 87.2277 81.9063 86.519C82.6881 85.7811 84.0398 85.1382 85.669 84.5683C85.4206 83.392 85.1284 82.0111 84.8361 80.5937Z" fill="#F7DBC5"/>
<path d="M86.2243 79.4393C86.2243 79.4393 83.6671 79.6293 83.3676 80.2649C83.0607 80.9006 83.6598 85.4889 83.6818 86.0953C83.7037 86.7017 86.9549 86.0149 86.9549 86.0149L86.2316 79.4393H86.2243Z" fill="#CDD6CC"/>
<path d="M68.4337 21.1576C66.0226 21.8079 65.8473 24.5769 72.1233 26.725C78.6843 28.9753 89.7167 30.3635 91.7916 27.8209C93.852 25.5414 75.4842 19.0169 68.4264 21.1576H68.4337Z" fill="#EFA900"/>
<path d="M83.7548 10.5344C73.6284 7.27583 68.5579 15.7657 67.9149 22.1659C69.8803 27.3095 90.0163 28.9753 91.1999 27.3022C92.3908 25.629 94.21 13.8953 83.7548 10.5344Z" fill="#FFD604"/>
<path d="M31.5665 11.718C33.9776 12.3683 34.1529 15.1373 27.8769 17.2853C21.3159 19.5357 10.2908 20.9238 8.20855 18.3813C6.1482 16.1017 24.516 9.57729 31.5665 11.718Z" fill="#EFA900"/>
<path d="M16.2454 1.09477C26.3718 -2.1638 31.4423 6.33333 32.0853 12.7263C30.1199 17.8698 9.98396 19.5357 8.80035 17.8625C7.61675 16.1894 5.79019 4.45563 16.2527 1.09477H16.2454Z" fill="#FFD604"/>
</svg>
