<svg width="168" height="176" viewBox="0 0 168 176" fill="none" xmlns="http://www.w3.org/2000/svg">
<path d="M93.98 128.6C93.9653 128.99 93.4501 129.299 92.8246 129.299C92.1991 129.299 91.6839 128.975 91.6766 128.585L91.0879 95.6603C91.0658 94.4902 91.9489 93.5261 93.0601 93.5335C94.1714 93.5408 95.0397 94.5196 95.0029 95.6897L93.9727 128.607L93.98 128.6Z" fill="#111111"/>
<path d="M128.936 135.709C128.921 136.099 128.406 136.408 127.781 136.408C127.155 136.408 126.64 136.084 126.633 135.694L126.044 102.769C126.022 101.599 126.905 100.635 128.016 100.642C129.127 100.642 129.996 101.629 129.959 102.799L128.929 135.716L128.936 135.709Z" fill="#111111"/>
<path d="M152.802 119.843C152.787 120.233 152.272 120.542 151.647 120.542C151.021 120.542 150.506 120.218 150.499 119.828L149.91 86.9029C149.888 85.7327 150.771 84.7687 151.882 84.7761C152.993 84.7834 153.862 85.7622 153.825 86.9323L152.795 119.85L152.802 119.843Z" fill="#111111"/>
<path d="M150.712 42.3725C142.764 41.2097 127.126 39.3331 120.701 38.8032C118.722 38.6413 115.432 40.3045 115.432 42.2841L115.476 76.3056C115.476 76.5559 114.534 77.7628 114.049 78.0056L90.8744 91.3993C89.9178 91.863 89.5572 97.0218 90.6095 97.2057C99.0063 98.6334 115.704 101.136 124.145 102.387C126.228 102.696 128.186 102.696 130.04 101.673C135.648 98.5672 152.184 88.7206 152.184 88.7206C153.604 87.9332 154.392 86.9029 154.414 85.4163L155.039 46.9278C155.076 44.9408 152.677 42.6595 150.719 42.3725H150.712Z" fill="#CDD6CC"/>
<path d="M126.228 98.7732C125.021 98.8027 123.417 98.4789 121.724 98.1403C120.848 97.9637 119.936 97.7871 119.031 97.6399C118.847 97.6105 118.714 97.4339 118.744 97.2499C118.773 97.0659 118.95 96.9408 119.134 96.9629C120.054 97.1101 120.966 97.294 121.857 97.4706C123.667 97.8312 125.382 98.1698 126.515 98.0741C127.332 98.0005 129.37 97.2867 134.485 94.2768C134.647 94.1811 134.853 94.2326 134.956 94.3945C135.052 94.5564 135 94.7698 134.838 94.8655C130.651 97.3308 127.869 98.6408 126.589 98.7511C126.478 98.7585 126.36 98.7659 126.235 98.7732H126.228Z" fill="#111111"/>
<path d="M141.741 82.3402C141.741 82.3402 141.712 82.3402 141.704 82.3402C140.262 82.1709 137.384 81.7662 134.61 81.3688C132.476 81.067 130.43 80.7727 129.216 80.6181C129.032 80.596 128.899 80.4268 128.921 80.2354C128.943 80.0441 129.12 79.9116 129.304 79.9411C130.526 80.0956 132.572 80.39 134.706 80.6917C137.48 81.0891 140.35 81.4939 141.785 81.6631C141.969 81.6852 142.109 81.8545 142.087 82.0384C142.065 82.2151 141.918 82.3402 141.748 82.3402H141.741Z" fill="#111111"/>
<path d="M147.128 45.6546C147.128 45.6546 147.099 45.6546 147.091 45.6546C145.649 45.4854 142.771 45.088 139.99 44.6979C137.855 44.3962 135.81 44.1092 134.595 43.9547C134.411 43.9326 134.279 43.7633 134.301 43.572C134.323 43.3807 134.5 43.2482 134.684 43.2776C135.905 43.4322 137.951 43.7192 140.093 44.0209C142.867 44.4109 145.737 44.8157 147.172 44.9776C147.356 44.9997 147.496 45.1689 147.474 45.3529C147.452 45.5295 147.305 45.6546 147.135 45.6546H147.128Z" fill="#111111"/>
<path d="M85.8776 39.0167C83.3386 36.6838 81.153 33.1808 80.0932 32.5406C79.0335 31.9003 76.2959 29.9428 74.5518 28.6917C73.8379 28.1839 73.3522 26.9255 72.4618 24.4087C72.0717 23.2974 73.8379 24.1511 73.963 22.7676C74.1838 20.4421 75.376 21.4797 75.8691 20.9646C76.7154 20.0741 76.9288 19.8018 77.8928 21.1412C78.8569 22.4732 79.3132 23.4373 79.6002 24.1364C79.8872 24.8355 80.5569 25.7701 80.888 24.4381C81.2266 23.0987 81.4915 22.3849 82.3746 21.9875C83.2577 21.5828 83.7434 22.1347 83.1547 23.7022C82.8676 25.6671 83.7655 28.1545 83.8685 29.2878C83.9715 30.4211 85.3477 31.0982 87.1433 32.7025C88.939 34.3068 88.4165 41.3495 85.8776 39.024V39.0167Z" fill="#FFDBB0"/>
<path d="M93.9211 126.113C92.9718 128.49 92.6995 132.037 90.271 133.015C86.3265 134.605 84.4572 137.593 87.6658 139.381C91.213 141.361 95.1648 139.69 96.5189 139.182C100.059 137.858 99.963 135.65 99.6834 132.927C99.389 129.638 99.6981 128.247 99.7864 126.797C99.9336 124.508 94.6423 123.309 93.9211 126.12V126.113Z" fill="#111111"/>
<path d="M108.838 126.723C109.339 128.607 109.788 130.138 109.64 133.531C109.133 136.489 108.522 138.807 106.91 139.793C103.576 141.839 100.066 143.738 104.202 146.1C108.338 148.462 112.878 144.636 114.313 143.723C118.052 141.346 117.691 137.85 116.705 134.796C115.572 131.095 116.352 129.336 116.411 126.238C116.492 121.697 107.477 121.55 108.846 126.716L108.838 126.723Z" fill="#111111"/>
<path d="M104.283 75.0619C100.103 80.9787 94.1861 82.0532 90.2563 87.8596C88.2987 90.7591 89.1892 120.461 91.5368 126.091C93.2294 130.145 96.1068 128.571 99.389 129.336C103.952 130.403 101.324 109.871 104.29 112.616C105.88 114.088 105.615 130.889 107.778 132.876C109.751 134.686 116.749 134.296 118.074 133.626C119.538 132.876 118.258 125.862 118.516 123.191C119.332 114.765 116.08 101.68 122.217 99.5459C128.443 97.3823 131.799 94.8949 135.177 87.9405C137.745 82.6493 136.634 78.116 133.594 72.6481C131.953 69.8884 116.58 66.6062 109.294 67.1655C103.665 67.5997 104.732 73.936 104.276 75.0619H104.283Z" fill="#CDD6CC"/>
<path d="M103.319 110.71C103.319 110.71 103.267 110.732 103.238 110.732C103.083 110.754 102.951 110.658 102.936 110.511C102.914 110.187 102.863 109.687 102.796 109.061C102.576 106.824 102.208 103.078 102.281 101.062C102.303 100.517 102.296 99.8918 102.281 99.2148C102.252 96.6685 102.215 93.4893 103.54 91.3993C105.254 88.6911 109.751 87.9037 112.165 87.4842C112.319 87.4548 112.459 87.5505 112.474 87.6903C112.488 87.8301 112.378 87.9699 112.223 87.992C109.905 88.3968 105.593 89.1474 104.018 91.6275C102.774 93.585 102.818 96.6758 102.848 99.1633C102.855 99.8477 102.863 100.481 102.848 101.033C102.774 103.019 103.142 106.743 103.363 108.973C103.422 109.599 103.473 110.106 103.503 110.43C103.51 110.548 103.437 110.658 103.326 110.702L103.319 110.71Z" fill="#EDBC32"/>
<path d="M125.043 18.8451C124.837 18.8378 122.077 18.9114 121.82 18.8746C121.695 19.3382 120.296 22.1862 120.039 22.7602C118.766 25.6377 116.256 29.2584 115.977 29.5307C118.876 32.4449 127.398 34.0934 129.554 31.6796C129.017 31.3631 125.61 22.4879 125.433 21.3399C125.301 20.501 125.028 19.1616 125.043 18.8451Z" fill="#FFDBB0"/>
<path d="M116.69 25.0857C119.347 24.2173 117.331 27.2346 121.202 27.0433C123.005 26.955 126.235 25.255 127.244 25.5346C132.079 26.874 136.494 32.2609 136.119 37.4712C136.384 37.5963 133.219 42.814 133.992 50.5853C133.845 51.2255 131.895 71.2867 132.439 74.6719C132.984 78.0571 126.92 76.3939 124.896 76.2026C122.872 76.0186 108.272 72.9057 106.079 72.5672C103.885 72.2286 103.245 70.4992 103.157 69.5352C102.796 65.5318 103.289 61.3223 105.276 53.6909C107.985 43.3954 113.519 26.4325 116.69 25.0931V25.0857Z" fill="white"/>
<path d="M101.369 54.0515C99.7791 52.2338 94.9661 53.2567 88.2693 45.9564C82.6616 39.8482 77.834 36.8751 80.8071 33.512C83.9642 29.9354 84.5455 27.9411 86.3485 29.8692C89.719 33.4826 95.4666 38.3249 97.3137 39.1859C100.132 40.5032 101.818 37.2873 108.213 30.5242C109.788 28.861 113.261 23.8052 119.207 24.3424C119.951 24.4087 113.784 42.5711 113.099 46.4641C111.826 67.7469 106.682 72.317 105.328 74.9442C103.245 77.4169 99.8158 80.6844 98.0423 80.4562C97.1739 80.3458 97.6449 78.5134 99.5141 70.2564C100.603 65.4729 102.406 55.2437 101.361 54.0515H101.369Z" fill="#29617D"/>
<path d="M128.082 19.9196C126.007 22.3628 123.454 23.2312 121.562 22.8117C119.678 22.3923 118.059 21.3325 116.705 19.7871C115.69 18.2711 115.138 16.1738 115.108 15.3127C115.079 14.5253 115.233 13.6348 115.506 12.8106C116.153 10.8899 114.924 10.6544 117.058 6.9527C117.706 5.83411 118.619 3.29519 123.77 4.11942C128.303 4.84062 136.7 12.6929 128.075 19.9122L128.082 19.9196Z" fill="#FFDBB0"/>
<path d="M118.538 6.93798C117.154 7.57823 116.227 10.4851 115.513 9.2782C114.144 6.96006 115.918 1.80863 118.714 1.66881C121.592 1.52162 119.48 -0.0311642 125.404 0.476619C129.716 0.844579 136.59 8.79986 133.418 12.7738C131.32 15.401 131.917 18.7348 127.56 20.501C126.743 20.8321 127.854 17.6677 128.34 17.4395C130.702 16.1811 130.548 15.3716 130.356 14.5474C130.172 13.7231 129.032 12.9136 128.487 13.4729C125.786 16.2547 127.472 12.7002 125.654 12.5825C121.827 12.3323 119.259 6.45228 118.538 6.93798Z" fill="#111111"/>
<path d="M152.574 41.3863C155.024 38.9578 157.07 35.3739 158.101 34.6895C159.138 34.0051 161.795 31.9518 163.488 30.6272C164.179 30.09 164.621 28.8168 165.408 26.2632C165.754 25.1372 164.025 26.0571 163.841 24.681C163.532 22.3702 162.376 23.4446 161.868 22.9516C160.993 22.0979 160.765 21.833 159.852 23.2018C158.94 24.5706 158.52 25.5494 158.262 26.2632C158.005 26.9697 157.372 27.9337 156.982 26.6091C156.592 25.2844 156.298 24.5853 155.4 24.2173C154.502 23.8494 154.038 24.416 154.686 25.9615C155.047 27.9116 154.252 30.4359 154.193 31.5765C154.134 32.7172 152.787 33.4458 151.058 35.1163C149.328 36.7942 150.123 43.8075 152.566 41.379L152.574 41.3863Z" fill="#FFDBB0"/>
<path d="M126.625 25.0195C130.025 24.5632 132.976 26.2779 136.016 29.251C140.461 33.4752 141.005 45.1321 143.632 42.8287C146.738 39.3331 150.167 31.4514 151.485 32.6142C152.493 33.8211 156.356 36.1687 157.372 37.5816C158.343 38.9357 155.304 43.9841 153.06 48.3702C150.521 53.3303 149.424 57.7237 143.78 57.2895C143.088 57.238 141.837 56.6345 140.814 56.0973C135.405 52.8151 134.735 57.0246 135.375 61.418C135.905 65.0167 137.039 71.1469 137.186 75.0325C137.333 79.0212 137.701 83.3042 137.105 86.0345C136.376 89.3829 118.928 87.0574 119.391 80.0441C119.649 71.3676 121.812 64.1703 121.467 49.6948C121.261 41.2171 125.816 25.1299 126.625 25.0195Z" fill="#29617D"/>
<path d="M122.305 173.903C122.328 174.727 123.203 175.382 124.263 175.375C125.323 175.375 126.184 174.705 126.199 173.881L126.927 104.778C126.949 102.328 125.448 100.297 123.564 100.304C121.68 100.311 120.215 102.357 120.289 104.808L122.305 173.896V173.903Z" fill="#EDBC32"/>
<path d="M162.531 156.322C162.553 157.146 163.429 157.801 164.488 157.794C165.548 157.794 166.409 157.124 166.424 156.3L167.152 87.1972C167.174 84.7466 165.673 82.7155 163.789 82.7228C161.905 82.7302 160.441 84.7761 160.514 87.2267L162.531 156.315V156.322Z" fill="#EDBC32"/>
<path d="M3.4915 156.212C3.51358 157.036 4.38932 157.691 5.44905 157.683C6.50877 157.683 7.36979 157.014 7.38451 156.19L8.11307 87.0868C8.13515 84.6362 6.63387 82.6051 4.74992 82.6125C2.86597 82.6198 1.40149 84.6657 1.47509 87.1163L3.4915 156.204V156.212Z" fill="#EDBC32"/>
<path d="M1.40885 84.6877C-0.327913 85.5929 -0.526611 89.302 3.30016 89.876L115.999 105.551C119.825 106.132 125.86 105.904 129.238 104.123L165.026 86.8661C168.948 85.0483 168.86 79.3082 163.627 78.8666L50.9877 64.266C47.1609 63.6846 41.2662 64.6708 37.8883 66.4591L1.40885 84.6877Z" fill="#9E7C28"/>
<path d="M3.08675 82.7008C-0.239603 84.3713 0.106279 86.189 3.8521 86.741L117.323 102.217C121.069 102.769 126.861 101.857 130.187 100.186L164.731 82.8627C168.058 81.1921 167.712 79.3744 163.966 78.8225L50.4946 63.3461C46.7488 62.7942 40.9571 63.7067 37.6307 65.3773L3.08675 82.7008Z" fill="#EDBC32"/>
<path d="M72.0865 88.3453C71.5492 88.6249 71.38 88.8898 71.7258 88.9413L91.6251 91.5612C91.9636 91.6054 92.6848 91.414 93.2294 91.1344L112.775 80.9493C113.313 80.6696 113.482 80.4047 113.136 80.3532L93.2367 77.7333C92.8982 77.6892 92.177 77.8805 91.6324 78.1601L72.0865 88.3453Z" fill="white"/>
<path d="M48.6033 167.648C48.6401 167.979 48.4046 168.259 48.0808 168.281C47.7496 168.303 47.4405 168.06 47.389 167.729L43.1575 140.021C43.0103 139.035 43.3562 138.189 43.9449 138.145C44.5337 138.108 45.1077 138.895 45.2254 139.874L48.6033 167.64V167.648Z" fill="#111111"/>
<path d="M16.7528 161.834C16.6497 162.217 16.2523 162.57 15.8623 162.636C15.4723 162.702 15.2368 162.46 15.3251 162.077L22.9786 130.425C23.2509 129.299 24.031 128.269 24.7227 128.151C25.4145 128.033 25.7162 128.872 25.4072 130.006L16.7528 161.827V161.834Z" fill="#111111"/>
<path d="M57.8023 69.3144C59.7598 66.6357 60.4221 65.2227 61.3052 64.4206C62.1884 63.6184 64.3961 61.2561 65.8091 59.7475C66.3831 59.1293 66.6112 57.8562 66.9792 55.3172C67.1411 54.1913 65.6325 55.332 65.2498 54.0515C64.6095 51.9026 63.6749 53.1021 63.1156 52.7047C62.1516 52.0203 61.894 51.8069 61.239 53.2493C60.584 54.6917 60.3265 55.6852 60.1866 56.3917C60.0468 57.1055 59.5979 58.1137 59.0239 56.9142C58.4572 55.7146 58.0672 55.0965 57.162 54.8831C56.2568 54.6696 55.8962 55.2805 56.7499 56.6493C57.3902 58.4523 57.0075 60.9691 57.1252 62.0583C57.243 63.1474 55.44 65.2889 54.0491 67.1435C52.6582 68.998 55.8447 72.0005 57.8023 69.3218V69.3144Z" fill="#FFDBB0"/>
<path d="M66.0151 161.407C67.3766 162.415 70.3276 160.701 71.9098 161.989C72.6973 162.629 72.6237 168.045 66.832 168.273C61.9455 168.465 60.275 167.64 58.6486 164.881C57.5373 163.004 57.4858 161.415 58.2144 160.002C60.2676 157.029 63.7559 158.287 66.0151 161.415V161.407Z" fill="#111111"/>
<path d="M64.4844 127.209C66.6775 129.086 67.8034 146.998 68.3553 153.945C68.9073 160.892 70.6661 161.827 64.7052 162.747C58.7443 163.674 55.3517 163.828 55.0573 160.296C54.4612 153.172 52.0768 138.8 52.3638 132.905C52.6509 127.018 59.8996 123.287 64.4844 127.209Z" fill="#64646D"/>
<path d="M78.8275 162.231C80.1889 163.24 83.2503 161.186 84.8326 162.474C85.62 163.115 85.5464 168.531 79.7547 168.759C74.8682 168.95 73.1977 168.126 71.5713 165.366C70.4601 163.49 70.4086 161.9 71.1371 160.487C73.1903 157.514 76.5608 159.111 78.8275 162.231Z" fill="#111111"/>
<path d="M28.1963 106.633C27.4456 107.56 23.4202 118.032 26.9747 124.405C31.4858 132.486 42.2376 131.853 49.2362 132.272C54.3803 132.581 58.9282 130.955 63.4836 130.418C66.832 130.028 65.4264 133.119 65.7575 139.69C65.8311 141.125 64.9848 164.77 69.2164 164.653C71.4609 164.586 80.3214 163.46 80.4906 160.973C80.8733 155.306 81.3664 127.629 79.9534 124.449C78.1651 120.431 75.6704 118.378 67.6268 116.766C65.0511 116.251 54.1448 110.18 53.2764 108.436C51.5028 104.874 28.1889 106.633 28.1889 106.633H28.1963Z" fill="#64646D"/>
<path d="M41.3619 63.6846C41.3398 62.3011 44.8575 61.3076 45.3285 63.1106C45.4168 63.5522 46.4397 66.6725 46.6752 67.217C46.9107 67.7616 48.1617 70.9408 48.412 71.2204C45.3137 73.6563 41.1558 73.1412 39.2498 70.7421C39.8017 70.4992 40.6407 67.8205 40.9203 66.7755C41.119 66.0101 41.3545 63.9864 41.3692 63.692L41.3619 63.6846Z" fill="#FFDBB0"/>
<path d="M35.7983 58.7098C33.6862 54.1398 33.0165 47.9507 38.6758 45.743C44.3423 43.5352 47.3449 48.2009 48.4488 49.4814C49.8102 51.0563 48.1029 53.3818 50.0751 55.0523C50.3401 58.7098 49.8912 59.3722 49.5232 60.2037C49.0007 61.4033 47.4037 63.4565 45.5787 64.2292C44.1142 64.8474 41.7666 64.2439 40.4052 63.5816C39.1247 62.9561 38.2195 62.2275 37.4615 61.4622C37.0862 61.4401 36.6814 61.5137 36.0044 61.0206C35.6953 60.7925 35.055 59.9167 35.0182 59.431C34.9741 58.8202 35.5923 58.6215 35.7983 58.7172V58.7098Z" fill="#FFDBB0"/>
<path d="M33.0092 42.7478C31.4932 43.6971 30.382 45.3161 29.83 46.8542C29.5872 47.5386 28.0123 49.4667 28.395 52.4398C28.7114 54.9199 30.014 57.5324 30.6175 58.3566C31.2135 59.1808 32.6118 60.2921 33.3624 60.6894C34.1131 61.0868 37.7632 63.6626 39.2203 63.9937C40.5156 64.2881 43.0177 64.45 43.2164 63.8245C43.6285 62.5072 45.586 64.2292 46.5795 62.5734C47.6392 60.8146 43.8566 57.8047 44.519 56.4874C45.0415 55.4424 45.38 56.3181 46.0055 55.9869C46.2704 55.8471 45.1518 54.2428 45.7994 53.6394C47.0505 52.4766 45.9319 49.0546 47.573 48.9957C48.5371 48.9589 48.7431 48.4364 48.3752 47.1853C47.86 45.4339 47.0137 45.4044 45.8142 43.9252C44.7618 42.63 42.2082 41.4452 39.4338 41.5188C37.2407 41.5777 34.2161 41.9898 33.0165 42.7478H33.0092Z" fill="#111111"/>
<path d="M60.4001 66.5915C59.7598 66.15 56.4555 64.3396 55.6681 64.0526C55.2413 63.8981 54.7188 64.0747 54.1374 65.0902C53.4751 66.2604 53.8504 66.2309 56.1833 67.6071C59.252 69.4101 59.8702 69.1599 60.3338 68.4166C60.7533 67.7469 60.9005 66.9374 60.4001 66.5842V66.5915Z" fill="white"/>
<path d="M85.6217 84.3792L85.5071 84.4829L85.7936 84.7993L85.9081 84.6956L85.6217 84.3792Z" fill="#64646D"/>
<path d="M85.539 83.8709C85.7893 84.1505 85.8776 84.4817 85.7304 84.6142C85.5832 84.7466 85.2594 84.6289 85.0092 84.3492C84.759 84.0696 84.6707 83.7384 84.8178 83.6059C84.965 83.4735 85.2815 83.5912 85.539 83.8709Z" fill="#64646D"/>
<path d="M85.2594 83.3557C85.6053 83.7384 85.7304 84.2094 85.5243 84.4007C85.3183 84.5921 84.8546 84.4449 84.494 84.0696L76.6418 76.0113C76.2812 75.6359 76.2223 75.1061 76.5167 74.8338C76.811 74.5541 77.3409 74.6425 77.6868 75.0251L85.2594 83.3557Z" fill="#64646D"/>
<path d="M78.8495 77.3874C78.9158 77.461 78.9378 77.5493 78.901 77.5861C78.8643 77.6229 78.7759 77.5935 78.7097 77.5273L77.2379 76.0113C77.1716 75.945 77.1569 75.842 77.2158 75.7905C77.2747 75.739 77.3703 75.7537 77.4366 75.8273L78.8569 77.3948L78.8495 77.3874Z" fill="#FCE952"/>
<path d="M45.8804 73.4356C49.2435 70.5728 52.4227 66.3707 52.9305 65.6569C53.6591 64.634 53.9166 64.0379 54.9248 64.6634C55.9257 65.2889 59.5022 67.0699 60.3927 67.6144C61.055 68.0266 60.4295 68.9538 59.9732 69.5352C58.5235 71.3897 54.8733 77.2697 52.695 79.161C50.5167 81.045 44.438 74.6646 45.8878 73.4282L45.8804 73.4356Z" fill="#64646D"/>
<path d="M46.16 65.2889C45.3873 65.2227 40.2506 64.3249 39.8385 64.5309C39.4338 64.737 39.4485 65.2448 39.1909 66.5621C38.9407 67.8794 38.8009 67.6733 42.3406 68.056C45.8436 68.4387 46.8665 68.7183 46.7193 67.8573C46.5648 66.9963 46.7709 65.3404 46.16 65.2889Z" fill="white"/>
<path d="M25.6647 96.0503C25.4881 84.2609 28.4686 78.1896 32.0966 72.8321C35.2685 68.1443 38.3004 67.7395 38.3004 65.9145C38.3004 65.0755 38.6316 65.1123 41.8917 65.5097C45.5272 65.9586 46.8003 65.8482 47.183 67.1582C47.3743 67.8131 53.3132 73.1118 54.9616 79.9411C56.5512 86.5055 57.0075 96.6538 57.0075 104.138C57.0075 106.832 64.7125 111.107 64.0649 114.618C63.1745 119.438 59.4213 122.301 54.601 123.728C50.7816 124.862 43.8861 126.23 38.7567 126.208C34.3191 126.186 28.2184 125.016 26.0253 124.449C23.1405 123.691 26.7539 118.017 26.9158 115.162C27.0777 112.307 25.7162 99.5754 25.6647 96.0503Z" fill="#64646D"/>
<path d="M46.241 126.701C46.6678 126.701 47.0431 126.694 47.3596 126.672C47.4847 126.665 47.573 126.562 47.5656 126.436C47.5656 126.311 47.4479 126.216 47.3302 126.23C46.1821 126.304 44.1142 126.216 41.9212 126.127C41.0381 126.091 40.1255 126.054 39.2277 126.024C35.9897 125.921 35.8351 125.774 35.5775 124.678C35.2832 123.39 35.1728 120.107 35.2758 118.04C35.2758 117.914 35.1875 117.811 35.0624 117.804C34.9373 117.797 34.8343 117.892 34.8269 118.018C34.7239 120.122 34.8269 123.456 35.136 124.781C35.4892 126.304 36.1442 126.378 39.2056 126.473C40.1034 126.503 41.0086 126.539 41.8991 126.576C43.5107 126.642 45.0635 126.701 46.241 126.701Z" fill="#111111"/>
<path d="M33.7304 125.443C33.804 125.443 33.8555 125.34 33.8555 125.222C33.8555 125.097 33.7893 125.001 33.7157 124.994C33.0239 124.987 30.6322 124.898 28.8807 124.148C28.8071 124.118 28.7409 124.192 28.7188 124.31C28.7041 124.427 28.7482 124.552 28.8218 124.582C30.6027 125.347 33.0239 125.436 33.723 125.443H33.7304Z" fill="#111111"/>
<path d="M78.2387 87.2561C77.5175 87.8007 75.7513 88.2496 74.8093 88.5881C73.7938 87.9479 72.16 85.8284 72.4397 85.3574C72.815 84.7319 75.0963 83.2895 75.0963 82.8995C75.1037 81.2363 76.3106 80.0441 77.3335 79.0727C78.9526 77.542 79.1292 78.4472 79.8209 78.3589C80.5863 78.2558 81.1382 77.8731 81.7711 78.0718C82.301 78.2337 82.5954 78.4619 82.5144 79.1021C82.4776 79.3891 82.0802 79.6099 82.588 80.4489C82.7499 80.7138 83.2724 81.3467 83.0811 82.2077C82.9486 82.8038 83.0958 82.9436 83.3018 83.3705C83.633 84.0475 83.5888 84.1579 83.1473 84.6877C82.7057 85.2176 80.9763 85.8873 79.5413 86.5643C79.0335 86.8072 78.6067 87.028 78.2387 87.2635V87.2561Z" fill="#FFDBB0"/>
<path d="M77.3409 88.9855C77.1128 88.2422 75.0522 83.8267 74.618 83.1276C74.3752 82.7449 73.4479 82.8627 72.8444 83.2969C71.7553 84.0843 72.2189 84.5994 73.2124 87.1163C74.5223 90.4279 75.2656 90.634 76.0898 90.3322C76.8331 90.06 77.5249 89.5742 77.3409 88.9929V88.9855Z" fill="white"/>
<path d="M75.6189 87.7124C75.0596 86.3288 74.044 84.1726 73.5068 83.3925C72.9107 82.5315 72.0423 83.0761 70.9311 83.7237C68.6865 85.0263 65.4632 87.2487 63.3732 87.3591C60.2234 87.521 53.9093 82.1341 53.0703 82.7744C51.6426 83.8635 53.0482 88.8678 53.1366 89.8465C53.1954 90.5015 54.4023 96.4257 55.6166 97.088C56.7793 97.7282 61.7983 97.9343 64.2636 97.4854C68.2817 96.7495 74.3089 92.2898 75.847 91.3699C77.3851 90.45 76.318 89.4786 75.6115 87.7197L75.6189 87.7124Z" fill="#64646D"/>
<path d="M46.4471 93.9309C46.3367 85.1587 40.5891 83.7163 37.0494 83.7605C33.5096 83.8047 21.1609 80.9199 16.4952 85.3648C11.8295 89.8097 14.7805 97.0217 15.5385 103.424C16.2891 109.827 17.6138 112.138 17.0618 117.407C16.4584 123.147 15.1705 128.225 17.4372 133.928C19.0562 138.005 35.9087 140.956 42.8116 139.86C49.7145 138.763 65.2939 134.414 54.0197 132.302C44.438 130.506 45.9981 110.982 46.2484 103.726C46.4986 96.4698 46.5059 96.9776 46.4618 93.9382L46.4471 93.9309Z" fill="#CDD6CC"/>
</svg>
