<svg width="156" height="176" viewBox="0 0 156 176" fill="none" xmlns="http://www.w3.org/2000/svg">
<path d="M150.749 140.315L134.422 120.357L132.746 118.316L84.03 90.1765L57.758 105.446L35.4874 92.5884L0.90332 112.688L88.6932 163.377C83.9311 166.945 84.3764 172.097 90.0538 175.375L99.7326 169.747L106.69 173.767L117.754 167.335L119.134 166.531L137.118 156.079L141.268 153.673L155.097 145.633L150.749 140.309V140.315ZM134.205 120.759L150.106 140.203L149.364 140.457L133.451 121.013L134.199 120.753L134.205 120.759ZM124.403 115.1L105.738 125.948L97.3887 121.13L116.06 110.282L124.409 115.106L124.403 115.1ZM66.2185 131.18L68.983 129.572L91.2536 142.43L88.4891 144.038L66.2185 131.18ZM88.1428 144.236L87.4501 144.638L65.1795 131.78L65.8722 131.378L88.1428 144.236ZM42.2286 122.534L44.6653 123.938L43.9726 124.34L35.9698 119.72L36.6625 119.318L37.3551 119.72L38.054 120.122L42.2286 122.534ZM38.4003 119.924L43.2552 119.522L42.5749 122.336L38.4003 119.924ZM35.6173 118.316L31.1829 115.756L31.2386 115.546L31.9127 112.732L31.9993 112.354L31.3561 112.41L26.5012 112.812L26.1363 112.843L25.8766 112.694L17.9047 108.093L28.8019 101.76L46.5207 111.989L35.6235 118.322L35.6173 118.316ZM30.3975 115.706L31.0964 116.108L34.9246 118.316L34.2319 118.718L25.1839 113.492L25.8766 113.09L26.2229 113.294L30.3975 115.706ZM26.5693 113.09L31.4241 112.688L30.7438 115.502L26.5693 113.09ZM45.3641 123.944L43.0202 122.596L43.0697 122.379L43.75 119.565L43.8366 119.188L43.1934 119.244L37.9674 119.677L37.015 119.12L50.8437 111.086L61.9759 117.512L48.1472 125.552L45.3641 123.944ZM76.2808 132.182L94.9581 121.328L95.6508 121.73L76.9734 132.584L76.2808 132.182ZM85.6813 137.606L77.3321 132.782L96.0095 121.928L104.359 126.752L85.6813 137.606ZM115.701 110.085L97.0362 120.932L96.3435 120.53L115.008 109.683L115.701 110.085ZM92.3792 95.4086L113.957 107.87L113.264 108.272L91.6803 95.8106L92.373 95.4086H92.3792ZM78.501 95.0066L84.0671 98.2226L89.5961 95.0066L114.656 109.478L95.9848 120.326L95.6323 120.53L94.952 120.926L94.6056 121.124L75.9344 131.978L57.8384 121.526L63.3674 118.31L64.7589 117.506L52.2352 110.276L78.5072 95.0066H78.501ZM68.2718 127.958L67.5791 128.36L57.1395 122.336L57.8322 121.934L68.2718 127.964V127.958ZM56.3665 106.256L50.8375 109.472L49.4459 110.276L46.8546 111.785L29.1358 101.556L38.6477 96.027L56.3665 106.256ZM35.4874 94.2026L38.3014 95.8291L17.5522 107.889L14.7382 106.269L35.4874 94.2088V94.2026ZM37.4293 132.182L46.7557 126.758C46.9907 126.9 47.201 127.049 47.405 127.191L38.1282 132.584L37.4293 132.182ZM38.4745 132.782L47.7205 127.408C51.9445 130.562 51.9693 135.002 47.7823 138.156L38.4745 132.782ZM90.06 174.973C84.9021 171.806 84.5681 166.952 89.0333 163.575L99.3863 169.549L90.06 174.967V174.973ZM99.7264 169.351L89.3549 163.358C89.5652 163.21 89.7631 163.062 89.9858 162.925L100.419 168.949L99.7264 169.351ZM112.213 168.949L106.647 165.733L101.118 168.949L48.1286 138.36C52.5011 135.089 52.4764 130.487 48.1596 127.166L56.4592 122.342L67.6038 128.774L63.454 131.186L88.5076 145.652L92.6513 143.24L103.784 149.672L95.4838 154.496L116.357 166.55L112.207 168.962L112.213 168.949ZM104.47 148.856L103.777 149.258L93.344 143.234C93.5852 143.098 93.8449 142.974 94.0923 142.863L104.464 148.849L104.47 148.856ZM94.4634 142.683C100.289 140.08 108.657 140.265 114.149 143.234L104.816 148.658L94.4634 142.683ZM117.742 165.733L111.131 161.917L128.769 151.67L135.38 155.485L117.742 165.733ZM141.268 153.271L140.575 152.869L145.412 150.055L146.104 150.457L141.262 153.271H141.268ZM148.139 141.62L141.225 145.633L146.791 148.849L135.727 155.275L128.769 151.255L110.784 161.707L98.2607 154.477L106.56 149.653L105.169 148.849L114.854 143.221C109.176 139.944 100.277 139.702 94.0305 142.424L87.0728 138.404L120.265 119.108L125.831 122.324L131.36 119.108L149.147 140.853L151.231 143.395L148.139 141.607V141.62Z" fill="#EEEEEE"/>
<path d="M32.9394 102.236L46.1929 109.887C46.768 110.221 47.7081 110.221 48.2771 109.887L52.9217 107.19C53.4907 106.856 53.4907 106.312 52.9155 105.984L39.662 98.3339C39.0868 97.9999 38.1468 98.0061 37.5778 98.3339L32.9332 101.037C32.3642 101.364 32.3704 101.909 32.9394 102.243V102.236ZM33.2795 101.234L37.9241 98.5318C38.3076 98.3092 38.926 98.3092 39.3095 98.5318L52.563 106.182C52.9464 106.405 52.9526 106.763 52.563 106.986L47.9184 109.689C47.5349 109.911 46.9165 109.911 46.533 109.689L33.2795 102.038C32.8961 101.816 32.8961 101.457 33.2795 101.234Z" fill="#EEEEEE"/>
<path d="M121.174 157.291C120.791 157.514 120.797 157.879 121.174 158.095L123.958 159.703C124.341 159.926 124.972 159.92 125.349 159.703L132.263 155.683C132.634 155.467 132.641 155.102 132.263 154.879L129.48 153.271C129.103 153.055 128.466 153.055 128.095 153.271L121.181 157.291H121.174ZM129.128 153.475L131.911 155.083C132.109 155.195 132.103 155.374 131.911 155.485L124.997 159.505C124.805 159.617 124.489 159.623 124.298 159.505L121.515 157.897C121.323 157.786 121.323 157.607 121.515 157.495L128.429 153.475C128.615 153.37 128.936 153.37 129.122 153.475H129.128Z" fill="#EEEEEE"/>
<path d="M100.382 119.399C107.16 123.313 117.414 123.734 123.283 120.351C129.153 116.962 128.417 111.043 121.638 107.128C114.86 103.214 104.606 102.787 98.7369 106.176C92.8678 109.565 93.6037 115.484 100.382 119.399Z" fill="#212A3D"/>
<path d="M53.3113 144.415C60.0896 148.33 70.3436 148.757 76.2127 145.367C82.0819 141.978 81.3459 136.06 74.5676 132.145C67.7894 128.23 57.5354 127.803 51.6662 131.192C45.7971 134.582 46.533 140.5 53.3113 144.415Z" fill="#212A3D"/>
<path d="M90.9567 50.2489C90.1156 51.3374 88.99 51.6714 87.3944 52.2465C85.7988 52.8217 83.1023 56.3716 84.9453 58.1281C86.7945 59.8845 90.0662 56.9592 90.9505 56.6499C91.8349 56.3407 91.7051 54.0091 93.344 53.0938C94.9829 52.1785 91.7978 49.1604 90.9505 50.2489H90.9567Z" fill="#EBCAB5"/>
<path d="M82.2551 57.9487C82.2551 57.9487 84.7722 54.5101 85.5143 53.7927C86.2565 53.0753 86.7822 53.2546 86.7822 53.2546C86.7822 53.2546 86.6956 55.2522 87.8768 54.9739C89.0581 54.6894 92.0267 54.708 91.6741 55.6109C91.971 57.3302 88.8169 58.7341 88.8169 58.7341L84.8464 60.2988L83.1951 61.2389L81.1666 59.0496L82.2612 57.9487H82.2551Z" fill="#F7DBC5"/>
<path d="M86.0153 60.4287C85.9596 60.4287 85.9039 60.4225 85.8483 60.404C85.5205 60.3112 85.335 59.9711 85.4277 59.6495L85.8297 58.2332L86.1328 57.3797C86.2441 57.0643 86.5966 56.8911 86.912 57.0086C87.2336 57.12 87.3944 57.4725 87.2831 57.7879L86.9924 58.6043L86.6028 59.9834C86.5286 60.2555 86.2812 60.4287 86.0153 60.4287Z" fill="#EBCAB5"/>
<path d="M87.0605 60.2617C87.0048 60.2617 86.9491 60.2555 86.8935 60.237C86.5719 60.1442 86.3802 59.8102 86.4729 59.4825L86.8749 58.0662L87.1347 56.953C87.2089 56.6252 87.5429 56.4211 87.8706 56.4953C88.1984 56.5695 88.4025 56.8973 88.3283 57.2313L88.0624 58.3693L87.6542 59.8164C87.58 60.0886 87.3326 60.2617 87.0667 60.2617H87.0605Z" fill="#EBCAB5"/>
<path d="M88.0809 60.0082C88.0067 60.0082 87.9325 59.9958 87.8583 59.9649C87.5429 59.8412 87.3882 59.4887 87.5058 59.1732L88.118 57.5776C88.2417 57.2622 88.5942 57.1076 88.9096 57.2251C89.2251 57.3488 89.3797 57.7013 89.2622 58.0167L88.6437 59.6123C88.5509 59.8535 88.3159 60.002 88.0747 60.002L88.0809 60.0082Z" fill="#EBCAB5"/>
<path d="M89.2127 59.7422C88.8725 59.7422 88.6004 59.4701 88.6004 59.1299V58.3631C88.6004 58.0291 88.8725 57.7508 89.2127 57.7508C89.5528 57.7508 89.825 58.0229 89.825 58.3631V59.1299C89.825 59.4639 89.5528 59.7422 89.2127 59.7422Z" fill="#EBCAB5"/>
<path d="M87.4996 52.6918C87.4996 52.6918 84.933 55.8088 85.638 56.384C86.3492 56.9592 88.1675 54.5781 88.6932 54.3493C89.4663 54.5843 90.6413 53.8607 90.6413 53.8607L87.4996 52.6918Z" fill="#EBCAB5"/>
<path d="M56.0758 133.172C59.199 133.091 62.2727 129.418 62.3408 133.561C61.9388 137.897 56.5953 136.833 55.5254 139.566C55.3955 141.434 49.4892 141.1 49.514 139.529C49.5325 137.965 49.0254 135.318 50.0582 134.755C52.062 135.157 54.0906 131.78 56.0758 133.165V133.172Z" fill="#725F59"/>
<path d="M49.5696 77.3621C47.7019 81.1346 50.1386 99.0327 50.9241 104.549C48.7718 111.798 49.6253 133.011 49.5696 135.287C49.5882 138.892 57.4673 136.629 57.8013 133.895C57.8322 132.825 57.9374 111.359 59.502 105.378C61.0729 99.3976 63.6828 91.6793 63.2066 82.0128C58.2651 82.2788 53.4288 81.7902 49.5696 77.3621Z" fill="#29617D"/>
<path d="M47.7947 42.4997C45.8218 43.4768 47.2071 55.7594 46.8361 57.0086C46.4588 58.2641 52.7671 59.2413 53.8494 58.6166C54.9255 57.992 52.7609 42.2708 51.9445 41.9987C50.6519 41.5658 49.7799 41.5163 47.8009 42.4997H47.7947Z" fill="#EDCC43"/>
<path d="M71.8217 136.295C70.5353 136.901 68.5501 137.167 66.6205 137.674C72.8421 137.785 63.6457 140.63 61.3945 138.472C60.6957 139.393 59.7803 140.451 60.1576 142.776C60.003 145.312 63.992 145.485 65.7485 143.865C65.4702 141.44 71.4815 143.314 73.5905 141.273C76.8188 137.767 76.2189 134.229 71.8155 136.301L71.8217 136.295Z" fill="#725F59"/>
<path d="M70.7209 78.265C61.914 77.7393 56.8489 79.9225 50.0582 74.7398C46.0877 84.7402 52.1857 88.4819 56.0758 88.9395C58.2651 92.1741 60.1638 103.721 60.1143 108.6C59.1433 117.624 59.7989 137.841 60.0648 139.368C60.3308 140.902 69.4716 139.956 69.2737 137.897C69.0758 135.843 68.315 113.907 68.7109 108.835C69.9725 104.092 72.267 80.0894 70.7085 78.2712L70.7209 78.265Z" fill="#29617D"/>
<path d="M70.7209 78.265C69.8798 70.9301 71.2898 58.9382 69.6138 53.7061C69.1623 52.2836 70.5168 50.9169 67.7213 48.5482C64.9259 46.1857 60.8255 44.5962 55.21 42.7409C49.5944 40.8855 48.3698 42.6048 47.7885 45.3755C46.3846 52.228 48.2833 54.1328 49.279 60.0267C50.2747 65.9206 50.0706 70.5961 49.9964 74.109C50.0397 80.6275 67.8821 83.2126 70.7209 78.265Z" fill="#EDCC43"/>
<path d="M59.0073 24.3232C63.0705 24.3789 65.433 26.2095 66.1505 28.337C66.8679 30.4583 66.404 32.8146 66.1505 33.7794C66.4597 37.4098 65.532 37.9602 64.7156 39.327C63.8931 40.6938 62.3222 39.9021 61.7903 39.7228C61.2585 39.5496 60.9059 42.6976 61.4873 44.9611C62.3408 47.2309 52.3465 44.8312 53.0206 42.6234C53.6267 39.6857 54.1833 38.0901 54.1277 37.4345C54.0534 36.6614 50.6519 32.357 51.7837 28.8998C52.9155 25.4426 54.9502 24.2676 59.0135 24.3232H59.0073Z" fill="#F7DBC5"/>
<path d="M55.7913 23.7975C59.1124 22.8389 64.8702 24.2428 66.1072 28.337C66.8988 30.9655 64.2951 32.6229 62.2294 34.4041C61.9635 34.6329 62.5201 37.5829 61.4687 35.3874C60.8503 35.0967 60.0648 36.7109 59.9597 37.6819C56.3479 40.3907 55.2161 38.9497 52.5011 37.4221C50.0891 35.6162 50.0149 30.8418 50.7509 28.9246C51.493 27.0135 52.4764 24.7562 55.8037 23.8037L55.7913 23.7975Z" fill="#38312C"/>
<path d="M61.8336 38.6343C61.8336 38.6343 60.2009 38.1519 59.5886 36.6429C58.9764 35.1339 61.6295 34.3855 61.5244 35.777L61.8274 38.6343H61.8336Z" fill="#F7DBC5"/>
<path d="M66.738 28.0896C66.6823 28.0896 66.6205 28.0711 66.5586 28.0587C66.4411 27.8979 66.2989 27.7433 66.1443 27.6072C66.1072 27.5763 66.0701 27.5454 66.0329 27.5145C66.0329 27.5145 66.0329 27.5021 66.0329 27.4959C66.0762 27.4959 66.1195 27.5083 66.169 27.5145C66.2865 27.5207 66.3978 27.5207 66.5092 27.5145C66.5277 27.5825 66.5339 27.6258 66.5339 27.6258C66.5339 27.6258 66.5339 27.5825 66.5153 27.5145C66.6452 27.5083 66.7689 27.4897 66.874 27.4526C67.0534 27.397 67.1524 27.3042 67.1585 27.3166C67.1585 27.3104 67.0472 27.3846 66.8617 27.4155C66.7565 27.4403 66.6267 27.4403 66.4906 27.4279C66.4906 27.4217 66.4906 27.4155 66.4906 27.4093C66.4535 27.2671 66.3607 27.0877 66.2123 26.8898C66.0453 26.6796 65.8412 26.426 65.6 26.1848C65.6371 26.16 65.6681 26.1291 65.699 26.0982C65.7299 26.2157 65.7361 26.2899 65.7361 26.2899C65.7361 26.2899 65.7361 26.2157 65.7113 26.092C65.7485 26.0549 65.7856 26.0178 65.8165 25.9745C65.8969 25.8694 65.9093 25.7148 65.835 25.6344C65.699 25.4797 65.5567 25.4612 65.5629 25.4488C65.5567 25.455 65.6928 25.5045 65.7979 25.6591C65.8721 25.7766 65.7918 25.9003 65.6681 26.0054C65.6186 25.9003 65.5382 25.7766 65.4083 25.6653C65.0743 25.387 64.6043 25.0716 64.0786 24.8118C64.0415 24.6696 63.924 24.5768 63.8312 24.5335C63.7694 24.5026 63.7199 24.484 63.6704 24.4717C63.6704 24.4593 63.6828 24.4531 63.689 24.4469C63.7323 24.3047 63.6086 24.2367 63.5591 24.2057C63.4973 24.1748 63.4664 24.1624 63.4664 24.1624C63.4664 24.1624 63.5035 24.181 63.5591 24.2181C63.6086 24.249 63.7014 24.3356 63.6519 24.4346C63.6519 24.4469 63.6333 24.4531 63.621 24.4655C63.6024 24.4655 63.5839 24.4593 63.5653 24.4531C63.4973 24.4407 63.4664 24.4346 63.4664 24.4346C63.4664 24.4346 63.5035 24.4469 63.5653 24.4655C63.5777 24.4655 63.5962 24.4778 63.6086 24.484C63.5715 24.5273 63.5282 24.5706 63.4664 24.6015C63.3612 24.5706 63.2623 24.5459 63.1633 24.5273C63.1015 24.4469 63.0149 24.3665 62.9159 24.2861C63.12 24.2119 63.3117 24.1191 63.4292 24.0016C63.5715 23.8594 63.5406 23.7171 63.5468 23.7233C63.5468 23.7233 63.5468 23.8594 63.3983 23.9707C63.3117 24.0326 63.1942 24.082 63.0644 24.1253C63.0829 24.1006 63.1015 24.082 63.1015 24.082C63.1015 24.082 63.0829 24.1006 63.0582 24.1253C62.9716 24.1501 62.885 24.1748 62.7922 24.1872C62.786 24.1872 62.7737 24.1872 62.7613 24.1872C62.7118 24.1563 62.65 24.1253 62.5943 24.1006C62.7428 24.0078 62.8912 23.9089 62.9716 23.8099C63.0582 23.711 63.0891 23.6306 63.0953 23.6367C63.0953 23.6367 63.0458 23.7048 62.9407 23.779C62.8417 23.8594 62.6871 23.9274 62.5325 23.9831C62.4954 23.9955 62.4521 24.0078 62.415 24.0202C62.3222 23.9769 62.2233 23.9398 62.1243 23.9027C62.2294 23.8161 62.3222 23.7233 62.3717 23.6553C62.4335 23.5564 62.4706 23.5069 62.4706 23.5069C62.4706 23.5069 62.4273 23.5563 62.3593 23.6491C62.3037 23.7171 62.2047 23.8099 62.0872 23.8903C62.0748 23.8841 62.0563 23.8779 62.0439 23.8718C62.0934 23.7666 62.1367 23.6553 62.149 23.5687C62.1676 23.4512 62.1552 23.3708 62.1614 23.3708C62.1614 23.3708 62.1552 23.4512 62.1119 23.5564C62.0872 23.6182 62.0439 23.6862 62.0006 23.7604C62.0934 23.4698 61.9882 23.1544 61.8151 23.0307C61.6419 22.8946 61.4873 22.9379 61.4935 22.9255C61.4873 22.9379 61.6481 22.9255 61.7842 23.0616C61.9264 23.2038 61.9821 23.4821 61.8707 23.711C61.8522 23.7419 61.8336 23.7666 61.8213 23.7975C61.8027 23.7975 61.778 23.7852 61.7594 23.779C61.5368 23.6615 61.277 23.5563 61.0049 23.4821C60.9245 23.4079 60.8255 23.3275 60.7019 23.2348C60.5349 23.1049 60.3246 22.9874 60.071 22.8946C60.0215 22.8822 59.9659 22.8699 59.9102 22.8575C59.8546 22.8018 59.8051 22.7524 59.7618 22.7152C59.6752 22.6287 59.6196 22.573 59.6196 22.573C59.6196 22.573 59.6628 22.6287 59.7432 22.7276C59.768 22.7585 59.8051 22.8018 59.836 22.8451C59.768 22.8328 59.6938 22.8266 59.6257 22.8204C59.6134 22.8142 59.601 22.8018 59.5948 22.8018C59.3598 22.6905 59.0877 22.7029 58.8403 22.7647C58.6733 22.808 58.5187 22.8699 58.3703 22.9379C58.3703 22.8451 58.3703 22.7585 58.3579 22.6967C58.3455 22.5916 58.3332 22.5297 58.3332 22.5297C58.3332 22.5297 58.3332 22.5916 58.3332 22.6967C58.3332 22.7647 58.327 22.8637 58.3084 22.9626C58.259 22.9874 58.2095 23.0059 58.16 23.0245C58.1105 23.0368 58.0672 23.043 58.0239 23.0616H58.0054C57.9312 23.0307 57.8508 22.9997 57.758 22.9812C57.3931 22.8884 56.9293 22.975 56.4778 23.1544C56.3479 23.1667 56.2119 23.1791 56.0758 23.21C56.0263 23.2162 55.983 23.2409 55.9397 23.2533C55.8655 23.2533 55.7851 23.2533 55.7047 23.2657C55.3584 23.2657 54.9749 23.4141 54.5915 23.6182C54.4802 23.6924 54.3689 23.7728 54.2637 23.8656C54.0473 23.8285 53.8246 23.8532 53.6515 23.9645C53.5154 24.0573 53.4226 24.1686 53.3484 24.2799C53.3484 24.249 53.3546 24.2243 53.3608 24.1934C53.4041 24.0326 53.4721 23.8841 53.5587 23.7481C53.6515 23.5873 53.7071 23.4636 53.7937 23.3646C53.9607 23.1544 54.1524 23.1482 54.1524 23.1482C54.1524 23.1482 54.1091 23.1482 54.0287 23.1544C53.9483 23.1667 53.8432 23.2162 53.7318 23.3028C53.6205 23.3832 53.5154 23.5254 53.4164 23.6429C53.2989 23.7666 53.1876 23.9274 53.101 24.1006C52.9588 24.3974 52.9155 24.7129 52.8908 24.9726C52.8104 25.1149 52.7485 25.2757 52.7114 25.4426C52.6496 25.288 52.5939 25.121 52.563 24.9417C52.5259 24.6881 52.6124 24.4469 52.7423 24.2985C52.8846 24.1686 52.9897 24.0882 52.9897 24.0882C52.9897 24.0882 52.8722 24.1501 52.7114 24.2676C52.563 24.4036 52.4207 24.6634 52.4269 24.9479C52.4269 25.1767 52.4826 25.3808 52.5259 25.5601C52.4516 25.4055 52.396 25.2509 52.3898 25.121C52.3651 24.9355 52.4207 24.8056 52.4084 24.8056C52.4207 24.8056 52.3527 24.9231 52.3465 25.1272C52.328 25.3313 52.4145 25.5849 52.5073 25.8323C52.5382 25.9065 52.5753 25.9683 52.6063 26.0364C52.3651 26.1229 52.0929 26.2528 51.8208 26.4198C51.7404 26.4816 51.66 26.5435 51.5796 26.6177C51.3013 26.6734 51.0477 26.7661 50.8808 26.9207C50.6396 27.1558 50.6829 27.4031 50.6705 27.3908C50.6829 27.4031 50.6643 27.1496 50.9117 26.9517C51.0478 26.8404 51.2457 26.7785 51.4621 26.7414C51.4374 26.7723 51.4126 26.8032 51.3817 26.8404C51.2766 26.8898 51.1714 26.9393 51.0725 27.0073C50.8004 27.1867 50.6272 27.4835 50.5901 27.7186C50.5777 27.799 50.5777 27.8732 50.5839 27.935C50.5406 27.9845 50.4973 28.0278 50.4664 28.0834C50.4046 28.1948 50.3798 28.3061 50.3675 28.4112C50.3365 28.4545 50.3118 28.504 50.2871 28.5535C50.2747 28.572 50.2623 28.5968 50.2499 28.6215C50.219 28.6772 50.1819 28.7205 50.1572 28.7823C50.1324 28.8318 50.0953 28.8751 50.0768 28.9246C49.9469 29.1967 49.8974 29.4812 49.8974 29.7533C49.8974 29.778 49.8851 29.8028 49.8851 29.8275C49.7799 29.9264 49.6933 30.0563 49.5944 30.1738C49.5264 30.3346 49.415 30.4831 49.3903 30.6624C49.2171 31.219 49.3841 31.8004 49.6377 32.19C49.5449 32.2333 49.4769 32.258 49.4769 32.258C49.4769 32.258 49.5449 32.2333 49.6377 32.2024C49.6933 32.289 49.749 32.3632 49.8108 32.4312C49.6562 32.5796 49.5202 32.6167 49.5202 32.6167C49.5202 32.6167 49.5758 32.6044 49.6686 32.5611C49.7181 32.5363 49.7737 32.4992 49.8294 32.4497C49.8356 32.4559 49.8418 32.4621 49.8541 32.4745C49.8356 33.0249 49.8851 33.5568 50.0459 33.9526C50.083 34.0639 50.1263 34.1567 50.1819 34.2371C50.1695 34.5649 50.1819 34.9607 50.2314 35.3565C50.2871 35.6472 50.3736 35.9255 50.4788 36.1667C50.4417 36.2038 50.4107 36.2285 50.4107 36.2285C50.4107 36.2285 50.4417 36.21 50.485 36.179C50.5468 36.3151 50.6087 36.4388 50.6767 36.5439C50.7571 36.6985 50.8746 36.7913 50.9302 36.8655C50.9921 36.9397 51.0292 36.983 51.0292 36.983C51.0292 36.983 50.9983 36.9336 50.9488 36.8532C50.8993 36.7666 50.8066 36.6614 50.7447 36.5006C50.6829 36.3831 50.6396 36.2409 50.6025 36.0863C50.6396 36.0553 50.6767 36.0182 50.7138 35.9811C50.8004 36.2718 50.9612 36.4759 51.0292 36.6429C51.1158 36.8037 51.1591 36.8965 51.1591 36.8965C51.1591 36.8965 51.1158 36.8037 51.0354 36.6367C50.9797 36.4945 50.8622 36.3089 50.7818 36.0739C50.8066 36.1172 50.8313 36.1605 50.8622 36.1914C50.9488 36.3027 51.0354 36.3831 51.1096 36.4512C51.1096 36.612 51.1096 36.7109 51.1096 36.7109C51.1096 36.7109 51.122 36.6243 51.1405 36.4821C51.1962 36.5934 51.2333 36.6614 51.2333 36.6614C51.2333 36.6614 51.2147 36.612 51.1838 36.5254C51.19 36.5254 51.2024 36.5439 51.2085 36.5501C51.3075 36.6243 51.3632 36.6614 51.3632 36.6614C51.3632 36.6614 51.3137 36.612 51.2209 36.5316C51.2024 36.513 51.1838 36.4883 51.1653 36.4697C51.1591 36.445 51.1529 36.4264 51.1405 36.3955C51.2457 36.4326 51.3199 36.4326 51.3137 36.4388C51.3137 36.4388 51.2333 36.4141 51.1467 36.346C51.1653 36.21 51.1962 36.0368 51.2271 35.8513C51.2828 36.0863 51.3137 36.3213 51.4126 36.4821C51.4374 36.5439 51.4621 36.5934 51.4869 36.6367C51.5054 36.7109 51.5301 36.7789 51.5425 36.8284C51.5549 36.8655 51.5611 36.8965 51.5673 36.9212V36.9954L51.6291 37.3727L51.66 36.9954L51.6909 36.8346C51.6909 36.8346 51.6909 36.847 51.6971 36.8532C51.7466 37.1191 51.8085 37.3665 51.8765 37.5644C51.895 37.6262 51.9198 37.6819 51.9383 37.7376C51.9383 37.7623 51.9383 37.7747 51.9383 37.7747C51.9383 37.7747 51.9383 37.7623 51.9445 37.7561C51.9692 37.8179 52.0002 37.8736 52.0125 37.9169C52.0497 37.9973 52.0682 38.0468 52.0682 38.0468C52.0682 38.0468 52.0682 37.9973 52.0558 37.9045C52.0558 37.8427 52.0435 37.7685 52.0435 37.6819C52.0558 37.7128 52.0682 37.7376 52.0682 37.7376C52.0682 37.7376 52.0497 37.6633 52.0435 37.5458C52.0682 37.4902 52.0929 37.4345 52.1239 37.3665C52.1486 37.3232 52.1672 37.2675 52.1919 37.218C52.2043 37.2552 52.2166 37.2861 52.229 37.3232L52.2043 37.4654L52.2476 37.385C52.2847 37.4778 52.328 37.5706 52.3774 37.6448C52.4022 37.6819 52.4269 37.7066 52.4578 37.7376C52.4393 37.818 52.4269 37.8674 52.4269 37.8674C52.4269 37.8674 52.4516 37.8365 52.4888 37.7747C52.6248 37.9169 52.7423 37.9478 52.7361 37.954C52.7361 37.954 52.7052 37.9231 52.6557 37.8612C52.6248 37.818 52.5939 37.7499 52.563 37.6695C52.5815 37.6448 52.6001 37.6139 52.6248 37.5829C52.6681 37.7499 52.6928 37.8612 52.6928 37.8612C52.6928 37.8612 52.699 37.719 52.7114 37.5211C52.7176 37.5335 52.7238 37.5458 52.73 37.5582C52.8042 37.6633 52.8536 37.7376 52.8846 37.7808C52.9031 37.9416 52.9217 38.0777 52.9588 38.1643C52.9835 38.2571 53.0021 38.3065 53.0021 38.3065C53.0021 38.3065 53.0021 38.2509 53.0021 38.1581C53.0021 38.1457 53.0021 38.1272 53.0021 38.1148L53.0392 38.3065L53.1134 37.7994L53.1319 37.8179C53.1319 37.8179 53.1319 37.8056 53.1134 37.7808L53.2495 36.8037C53.2866 36.9212 53.3299 37.0325 53.3731 37.1315C53.3731 37.15 53.3731 37.1748 53.3731 37.1933H53.3051L53.3422 37.4036C53.3299 37.4716 53.3175 37.5335 53.2989 37.5891C53.2495 37.7747 53.2185 37.9045 53.2185 37.9045C53.2185 37.9045 53.2866 37.8303 53.3979 37.719L53.4845 38.2014C53.4845 38.2385 53.4845 38.2571 53.4845 38.2571C53.4845 38.2571 53.4845 38.2447 53.4845 38.2385L53.5278 38.4797L53.7504 37.5582C53.7751 37.5149 53.8061 37.4716 53.837 37.416C53.8555 37.3912 53.8679 37.3603 53.8865 37.3356C53.7999 37.7808 53.67 38.1581 53.67 38.1581C53.67 38.1581 53.769 38.0468 53.9236 37.886C54.0844 37.7252 54.2575 37.4778 54.4431 37.2304C54.4431 37.2242 54.4554 37.2119 54.4554 37.2057C54.4122 37.7252 54.3379 38.1581 54.3379 38.1581C54.3379 38.1581 54.4122 38.022 54.5297 37.8179C54.4678 38.0715 54.4307 38.2447 54.4307 38.2447C54.4307 38.2447 54.7399 37.8612 55.0801 37.4407C54.9935 37.8056 54.876 38.1086 54.876 38.1086C54.876 38.1086 54.9688 38.0282 55.1172 37.9107C55.2038 37.8427 55.2965 37.7499 55.3955 37.651C55.3955 37.651 55.3955 37.6633 55.3955 37.6695C55.3275 37.8551 55.2842 37.9849 55.2842 37.9849C55.2842 37.9849 55.3831 37.8922 55.5316 37.7623C55.6738 37.6572 55.7975 37.4778 55.9336 37.2861C55.847 37.62 55.7233 37.8922 55.7233 37.8922C55.7233 37.8922 55.8222 37.8118 55.9768 37.6881C56.1438 37.5706 56.3046 37.3665 56.4963 37.1624L58.6671 36.3337L60.5101 33.8784C60.5472 34.1072 60.5905 34.3484 60.6462 34.5834C60.6833 34.7195 60.7266 34.8555 60.7761 34.9916C60.7019 35.1833 60.6029 35.3565 60.5039 35.4864C60.337 35.6781 60.2195 35.8018 60.2195 35.8018C60.2195 35.8018 60.3493 35.6905 60.5349 35.5111C60.6276 35.406 60.7328 35.2699 60.8194 35.1091C60.9183 35.3627 61.0358 35.5977 61.1842 35.7585C61.2708 35.9069 61.4131 35.9811 61.4811 36.0492C61.5553 36.111 61.5986 36.1481 61.5986 36.1481C61.611 36.1419 61.4935 36.0121 61.3822 35.7894C61.3822 35.7647 61.3822 35.7337 61.3822 35.6966C61.3822 35.6224 61.3883 35.5297 61.4069 35.4245C61.4069 35.4431 61.4131 35.4616 61.4193 35.4802C61.4193 35.4616 61.4193 35.4431 61.4193 35.4245C61.444 35.4554 61.4626 35.4802 61.4626 35.4802C61.4626 35.4802 61.4502 35.3998 61.4254 35.2761C61.4254 35.2514 61.4254 35.2328 61.4378 35.2142C61.444 35.1648 61.4564 35.1029 61.4687 35.0473C61.5862 35.3503 61.6976 35.641 61.8213 35.8574C61.8213 35.8698 61.8336 35.876 61.8336 35.8822C61.8645 36.0059 61.9017 36.1296 61.9449 36.2285C61.9882 36.3893 62.0686 36.5068 62.1058 36.5934C62.149 36.68 62.1738 36.7295 62.1738 36.7295C62.1738 36.7295 62.1552 36.6738 62.1243 36.5872C62.1058 36.5068 62.0563 36.3955 62.0315 36.2594C62.0315 36.2533 62.0315 36.2471 62.0315 36.2347C62.1923 36.5996 62.3841 36.9336 62.5943 37.1562C62.7242 37.3108 62.8603 37.416 62.953 37.4778C63.052 37.5396 63.1077 37.5768 63.1077 37.5768C63.1077 37.5768 63.0582 37.5335 62.9716 37.4592C62.885 37.385 62.7675 37.2675 62.6624 37.1005C62.4706 36.8346 62.316 36.445 62.2047 36.0306C62.2665 36.1852 62.3037 36.2842 62.3037 36.2842C62.3037 36.2842 62.2727 36.1234 62.2294 35.8822C62.2109 35.808 62.1985 35.7214 62.1923 35.6348C62.2233 35.709 62.2604 35.7709 62.2913 35.8203C62.2913 35.8389 62.2975 35.8636 62.3037 35.876C62.3284 35.9626 62.3408 36.0182 62.3408 36.0182C62.3408 36.0182 62.3408 35.9811 62.3284 35.9255C62.4459 36.3089 62.5634 36.5996 62.5634 36.5996C62.5634 36.5996 62.5387 36.4512 62.5139 36.2223C62.5696 36.2904 62.6067 36.3275 62.6067 36.3275C62.6067 36.3275 62.582 36.2842 62.5387 36.21C62.5263 36.1914 62.5201 36.1605 62.5077 36.1357C62.4954 35.9935 62.483 35.8389 62.4768 35.6719C62.4892 35.6966 62.5077 35.7214 62.5139 35.7461C62.5449 35.808 62.5634 35.8451 62.5634 35.8451C62.5634 35.8451 62.551 35.808 62.5325 35.7399C62.5201 35.6719 62.4768 35.5791 62.4706 35.4554C62.4706 35.3132 62.4645 35.1771 62.4521 35.0473C62.4645 35.0782 62.4768 35.1153 62.4892 35.14C62.4954 35.1586 62.5016 35.1648 62.5077 35.1833L62.5201 35.3689V35.239C62.551 35.2885 62.5634 35.3256 62.5634 35.3256C62.5634 35.3256 62.551 35.2575 62.5325 35.1338L62.5943 34.2309V34.3113C62.5943 34.6143 62.5881 34.8988 62.6005 35.1462C62.6005 35.3874 62.6376 35.5915 62.6624 35.7337C62.6871 35.876 62.6995 35.9564 62.6995 35.9564C62.6995 35.9564 62.6995 35.876 62.6871 35.7337C62.6871 35.6781 62.6809 35.6101 62.6747 35.5358C62.6871 35.4987 62.7057 35.4554 62.7242 35.3936C62.7737 35.2637 62.8293 35.0782 62.9283 34.8679C63.0211 34.6453 63.1262 34.3917 63.2437 34.1196C63.2561 34.0887 63.2623 34.0577 63.2684 34.033C63.2808 34.0763 63.2932 34.1134 63.3056 34.1505C63.287 34.2495 63.2746 34.3422 63.2561 34.435C63.2128 34.6082 63.1819 34.7133 63.1819 34.7133C63.1819 34.7133 63.2004 34.6638 63.2313 34.5958C63.219 34.6576 63.2128 34.7195 63.2004 34.7751C63.1077 35.3008 63.0458 35.6472 63.0458 35.6472C63.0458 35.6472 63.1757 35.3132 63.3612 34.8184C63.3921 34.7318 63.4292 34.6391 63.4602 34.5463C63.4664 34.5649 63.4725 34.5772 63.4787 34.5896C63.4602 34.6947 63.4478 34.7566 63.4478 34.7566C63.4478 34.7566 63.4664 34.7071 63.4911 34.6205C63.522 34.5216 63.5715 34.3731 63.6272 34.1938C63.6704 34.0825 63.7076 33.9464 63.7447 33.8104C63.7756 33.934 63.8065 34.0392 63.8436 34.1258C63.8127 34.3979 63.7941 34.5649 63.7941 34.5649C63.7941 34.5649 63.8189 34.4721 63.8683 34.3113C63.8312 34.4968 63.8003 34.6205 63.8003 34.6205C63.8003 34.6205 63.8436 34.4968 63.9116 34.3051C63.9611 34.4041 63.9859 34.4659 63.9859 34.4659C63.9859 34.4659 63.9673 34.3917 63.9302 34.2556C63.9549 34.1876 63.9859 34.1072 64.0168 34.0144C64.0168 34.0083 64.023 33.9959 64.0291 33.9835C64.0415 34.0392 64.0539 34.101 64.0663 34.1567C64.1095 34.3979 64.2023 34.5896 64.2456 34.7257C64.2642 34.7813 64.2765 34.8123 64.2951 34.8494C64.2951 34.8679 64.2951 34.8865 64.2951 34.8865C64.2951 34.8865 64.2951 34.8679 64.2951 34.8555C64.3136 34.905 64.326 34.9298 64.326 34.9298C64.326 34.9298 64.3198 34.8741 64.3075 34.7937C64.3198 34.7195 64.3322 34.6082 64.3569 34.4535C64.3879 34.5154 64.4188 34.5649 64.4497 34.6143C64.5672 34.7937 64.6291 34.8988 64.6291 34.8988C64.6291 34.8988 64.5796 34.7875 64.4868 34.5958C64.4497 34.5154 64.4126 34.4164 64.3755 34.3113C64.3817 34.2556 64.394 34.2 64.4002 34.1381C64.4311 33.9897 64.4497 33.8227 64.4621 33.6496C64.4992 33.563 64.5548 33.4578 64.6105 33.3403C64.5796 33.5259 64.561 33.6372 64.561 33.6372C64.561 33.6372 64.5919 33.5568 64.6476 33.4145C64.5981 33.5877 64.561 33.6928 64.561 33.6928C64.561 33.6928 64.6909 33.3836 64.8888 32.9198C64.9445 32.7961 65.0001 32.6538 65.0496 32.5054C65.062 32.524 65.0743 32.5487 65.0867 32.5673C65.0743 32.6105 65.0558 32.66 65.0496 32.7033C65.0001 32.7961 64.963 32.8517 64.963 32.8517C64.963 32.8517 64.9939 32.8085 65.0372 32.7466C64.9939 32.895 64.963 32.9878 64.963 32.9878C64.963 32.9878 65.0125 32.8579 65.0929 32.6538C65.1053 32.6415 65.1115 32.6291 65.1176 32.6105C65.1362 32.6353 65.1547 32.6538 65.1733 32.6724C65.1238 32.895 65.0434 33.0682 65.0001 33.1981C64.9506 33.3341 64.9259 33.4084 64.9259 33.4084C64.9259 33.4084 64.9692 33.3403 65.0434 33.2228C65.0991 33.1177 65.2042 32.9693 65.297 32.7899C65.297 32.7899 65.297 32.7899 65.3032 32.7961L65.297 32.7899C65.3093 32.7652 65.3279 32.7404 65.3403 32.7157C65.3774 32.6477 65.4083 32.5673 65.4454 32.4869L65.4516 32.5054C65.4516 32.5054 65.4516 32.493 65.4516 32.4869C65.464 32.4621 65.4702 32.4436 65.4825 32.4188C65.4825 32.4621 65.4825 32.5054 65.4763 32.5487C65.4701 32.7961 65.4145 32.9878 65.4021 33.1362C65.3836 33.2785 65.3712 33.3589 65.3712 33.3589C65.3712 33.3589 65.3774 33.3341 65.3898 33.297C65.3712 33.4393 65.3465 33.5753 65.3279 33.7176C65.4083 33.2785 65.5073 32.8517 65.6186 32.4126C65.6062 32.6105 65.5938 32.7342 65.5938 32.7342C65.5938 32.7342 65.6557 32.4869 65.7175 32.1034C65.7237 32.0539 65.7299 31.9921 65.7361 31.9364C65.7485 31.8808 65.7546 31.8251 65.7608 31.7694C65.7608 31.7694 65.767 31.7571 65.7732 31.7509C65.7732 31.8931 65.767 32.0292 65.7732 32.1529C65.7732 32.5178 65.7732 32.7528 65.7732 32.7528C65.7732 32.7528 65.8412 32.524 65.934 32.1714C65.934 32.1653 65.934 32.1529 65.9402 32.1405C65.9402 32.1962 65.9402 32.258 65.9402 32.3075C65.9464 32.5054 65.8969 32.66 65.8907 32.7713C65.8721 32.8827 65.8598 32.9507 65.8598 32.9507C65.8598 32.9507 65.8783 32.8889 65.9093 32.7837C65.9216 32.7157 65.9526 32.6353 65.9773 32.5425C65.9773 32.6724 65.9711 32.7528 65.9711 32.7528C65.9711 32.7528 66.0268 32.5796 66.1072 32.3137C66.1443 32.4065 66.169 32.4621 66.169 32.4621C66.169 32.4621 66.1504 32.3941 66.1195 32.2828C66.1257 32.2518 66.1381 32.2271 66.1443 32.19C66.1876 32.2951 66.2185 32.3632 66.2123 32.3694C66.1876 32.5116 66.169 32.5982 66.169 32.5982C66.169 32.5982 66.1937 32.5054 66.2309 32.3384C66.2432 32.2642 66.268 32.1776 66.2927 32.0787C66.2927 32.1529 66.2989 32.1962 66.2989 32.1962C66.2989 32.1962 66.2989 32.1343 66.2989 32.0354C66.2989 32.023 66.3051 31.9983 66.3112 31.9859C66.3298 32.122 66.3422 32.258 66.3422 32.3755C66.3607 32.7219 66.3669 32.9507 66.3669 32.9507C66.3669 32.9507 66.4226 32.7281 66.5092 32.3879C66.6205 32.0478 66.639 31.5839 66.7009 31.0953C66.6885 30.8541 66.6885 30.6068 66.6823 30.3717C66.6823 30.3594 66.6947 30.347 66.6947 30.3346C66.7442 30.1676 66.7627 29.9636 66.7504 29.7471C66.7627 29.6914 66.7751 29.6172 66.7875 29.5368C66.8679 29.5554 66.9235 29.5616 66.9235 29.5616C66.9235 29.5616 66.8679 29.5492 66.7936 29.5121C66.7936 29.4812 66.806 29.4502 66.806 29.4131C66.8246 29.1101 66.7132 28.7081 66.503 28.3556C66.5772 28.436 66.639 28.5226 66.6885 28.6091C66.7627 28.7328 66.7936 28.8503 66.8184 28.9369C66.8369 29.0235 66.8431 29.0668 66.8431 29.0668C66.8431 29.0668 66.8431 29.0173 66.8431 28.9307C66.8431 28.8441 66.8246 28.7143 66.7689 28.572C66.7318 28.4483 66.6576 28.3185 66.571 28.1886C66.6143 28.1886 66.67 28.1948 66.7071 28.1886C66.806 28.1886 66.8864 28.1577 66.9359 28.1453C66.9915 28.1329 67.0225 28.1267 67.0225 28.1267C67.0225 28.1267 66.9915 28.1267 66.9359 28.1391C66.8802 28.1391 66.7998 28.1638 66.7071 28.1515L66.738 28.0896ZM50.5035 28.5102C50.5035 28.5102 50.5344 28.4793 50.5468 28.4669C50.5282 28.4978 50.5097 28.5287 50.4911 28.5597C50.4911 28.5411 50.4973 28.5287 50.5035 28.5102ZM50.4046 28.9988V28.9926C50.4664 28.8256 50.5592 28.6648 50.6767 28.5164C50.6767 28.5411 50.6705 28.572 50.6643 28.603C50.5901 28.7143 50.5221 28.8256 50.4602 28.9555C50.4417 28.9926 50.4169 29.0297 50.3984 29.0668C50.3984 29.0482 50.3984 29.0297 50.3984 29.0111L50.4046 28.9988ZM50.8746 29.9821C50.8746 29.9821 50.8993 30.0378 50.9117 30.0625V30.1182C50.9117 30.1182 50.887 30.18 50.8684 30.2048C50.8622 30.2171 50.856 30.2233 50.8437 30.2357C50.8313 30.1924 50.8127 30.1491 50.8066 30.0996C50.8066 30.0934 50.8066 30.0811 50.8066 30.0749C50.8313 30.044 50.856 30.013 50.8808 29.9821H50.8746ZM50.8251 28.8318C50.8251 28.8318 50.8313 28.7823 50.8375 28.7576C50.8498 28.739 50.8684 28.7266 50.887 28.7081C50.8684 28.7452 50.8498 28.7885 50.8313 28.8256L50.8251 28.8318ZM50.9735 31.4726C50.9859 31.4169 51.0106 31.3736 51.0292 31.3242L51.0849 31.887C51.0292 31.8437 50.9612 31.7942 50.887 31.7262C50.9179 31.6396 50.9426 31.553 50.9735 31.4726ZM50.8127 30.2728C50.7818 30.3161 50.7509 30.3532 50.7138 30.3965C50.689 30.3532 50.6643 30.3161 50.6396 30.2666C50.6767 30.2109 50.72 30.1676 50.7633 30.1182C50.7818 30.1738 50.7942 30.2233 50.8189 30.2728H50.8127ZM50.5159 31.8251C50.5344 31.7447 50.5592 31.6643 50.5839 31.5901C50.5963 31.5592 50.6087 31.5282 50.6272 31.5035C50.6272 31.5035 50.6396 31.5159 50.6458 31.5282C50.6519 31.5344 50.6643 31.5406 50.6705 31.553C50.6458 31.689 50.621 31.8251 50.5963 31.9674C50.5715 31.9302 50.5468 31.8808 50.5159 31.8313V31.8251ZM50.5901 31.9921C50.5901 31.9921 50.5901 32.0106 50.5901 32.0168C50.5901 32.0354 50.5839 32.0539 50.5777 32.0663C50.553 32.0168 50.5221 31.9674 50.4973 31.8993C50.4973 31.887 50.4973 31.8746 50.4973 31.8622C50.5282 31.9055 50.553 31.955 50.5839 31.9859L50.5901 31.9921ZM50.6458 31.4479C50.6458 31.4479 50.6581 31.4169 50.6705 31.3984C50.6829 31.386 50.689 31.3798 50.7014 31.3736C50.689 31.4169 50.6829 31.454 50.6767 31.4973C50.6643 31.485 50.6581 31.4664 50.6519 31.454L50.6458 31.4479ZM50.3427 32.9012C50.3427 32.9012 50.3427 32.9074 50.3427 32.9136V32.9012ZM50.3118 30.9407C50.3118 30.9407 50.3118 30.9531 50.318 30.9593C50.318 30.9593 50.318 30.9593 50.3118 30.9531V30.9407ZM50.0891 29.3265C50.1448 29.141 50.219 28.9555 50.3056 28.7885C50.2932 28.8936 50.287 29.0049 50.2809 29.1101C50.2561 29.209 50.2499 29.3142 50.2438 29.4069C50.2005 29.4564 50.1634 29.5059 50.1262 29.5616C50.0891 29.5863 50.0582 29.6172 50.0211 29.6481C50.0459 29.5368 50.0582 29.4317 50.0891 29.3265ZM50.2128 32.7404C50.2128 32.7404 50.2128 32.7837 50.2128 32.8023C50.2128 32.8023 50.2067 32.7961 50.2005 32.7899C50.2005 32.7713 50.2005 32.7528 50.2005 32.7342C50.2005 32.7342 50.2005 32.7342 50.2067 32.7342L50.2128 32.7404ZM50.2128 32.7157C50.2128 32.7157 50.2128 32.6848 50.2128 32.6662C50.2128 32.6848 50.2128 32.7033 50.2128 32.7157ZM50.219 32.8517C50.219 32.9074 50.219 32.9631 50.219 33.0187C50.2066 32.9631 50.2005 32.9074 50.1943 32.8579C50.1943 32.8517 50.1943 32.8456 50.1943 32.8394C50.1943 32.8394 50.2067 32.8456 50.2128 32.8517H50.219ZM49.9964 30.1429C50.052 30.0501 50.1139 29.9697 50.1819 29.8832C50.1819 29.9512 50.1757 30.013 50.1695 30.0811C50.1695 30.0811 50.1695 30.0872 50.1695 30.0934C50.1139 30.1676 50.0644 30.2542 50.0149 30.3408C50.0026 30.2852 49.9964 30.2233 49.984 30.1615C49.984 30.1553 49.9902 30.1491 49.9964 30.1429ZM50.1077 31.6334C50.0953 31.6767 50.0891 31.72 50.083 31.7633C50.083 31.72 50.083 31.6767 50.0768 31.6272C50.083 31.5901 50.0953 31.553 50.1015 31.5159C50.1015 31.5159 50.1015 31.5221 50.1015 31.5282C50.1015 31.5654 50.1015 31.5963 50.1015 31.6334H50.1077ZM49.9716 32.258C49.9716 32.258 49.9778 32.2518 49.984 32.2457C49.9964 32.2271 50.0149 32.2086 50.0335 32.19C50.0335 32.1962 50.0397 32.2024 50.0459 32.2086C50.0459 32.3261 50.0459 32.4497 50.052 32.5611C50.0211 32.5054 49.9902 32.4436 49.9593 32.3817C49.9593 32.3384 49.9716 32.3013 49.9716 32.258ZM49.9716 30.817C49.9716 30.817 49.9716 30.8108 49.9716 30.8047V30.817C49.9716 30.817 49.9716 30.8356 49.9716 30.8479C49.9716 30.8356 49.9716 30.8294 49.9716 30.817ZM49.984 32.1776C49.984 32.1776 49.984 32.1343 49.9902 32.1158C49.9902 32.122 50.0026 32.1343 50.0026 32.1405C49.9964 32.1529 49.984 32.1653 49.9778 32.1776H49.984ZM50.0335 31.9302C50.0335 31.9302 50.0459 31.9859 50.052 32.0168C50.052 32.0292 50.052 32.0416 50.052 32.0539C50.0397 32.0416 50.0335 32.0354 50.0211 32.0168C50.0211 32.0106 50.0211 32.0045 50.0149 31.9921C50.0149 31.9735 50.0149 31.955 50.0211 31.9426C50.0211 31.9426 50.0335 31.9364 50.0397 31.9302H50.0335ZM50.0459 32.0663C50.0459 32.0663 50.0459 32.0787 50.0459 32.0849C50.0459 32.0725 50.0335 32.0601 50.0273 32.0416C50.0335 32.0539 50.0397 32.0539 50.0459 32.0663ZM49.9469 30.2419C49.9593 30.2852 49.9655 30.3346 49.9778 30.3779C49.9778 30.3779 49.9778 30.3841 49.9778 30.3903C49.9593 30.4212 49.9469 30.4583 49.9345 30.4892C49.9345 30.4088 49.9345 30.3284 49.9345 30.2419H49.9469ZM49.8789 30.6315C49.8541 30.6871 49.8294 30.7304 49.8108 30.7923C49.8108 30.7552 49.8108 30.7181 49.8108 30.6871C49.8232 30.6253 49.8479 30.5635 49.8603 30.5016C49.8603 30.5511 49.8727 30.5944 49.8789 30.6377V30.6315ZM49.514 30.65C49.5449 30.4892 49.6562 30.3532 49.7181 30.2109C49.7552 30.1676 49.7923 30.1305 49.8232 30.0872C49.7799 30.1986 49.749 30.3161 49.7243 30.4336C49.6686 30.582 49.6315 30.7304 49.6129 30.8789C49.5944 31.0953 49.6253 31.2932 49.6871 31.4726C49.6871 31.6829 49.7057 31.887 49.7552 32.0787C49.7304 32.091 49.7057 32.1096 49.681 32.122C49.4521 31.7262 49.3223 31.1695 49.5078 30.65H49.514ZM49.7057 31.2128C49.7057 31.2128 49.6995 31.2376 49.6995 31.2499C49.6995 31.2623 49.6995 31.2747 49.6995 31.2809C49.6995 31.219 49.6995 31.1572 49.6995 31.0953C49.6995 31.1324 49.6995 31.1757 49.7119 31.2128H49.7057ZM49.8541 32.3322C49.8541 32.3322 49.8479 32.3384 49.8418 32.3446C49.7861 32.2828 49.7366 32.2086 49.6933 32.1282C49.7119 32.1158 49.7428 32.1034 49.7614 32.091C49.7614 32.1034 49.7675 32.122 49.7737 32.1405C49.7923 32.2024 49.8294 32.258 49.8541 32.3137C49.8541 32.3137 49.8541 32.3261 49.8541 32.3322ZM49.8665 32.1529C49.8665 32.1529 49.8541 32.1282 49.8541 32.1158C49.8541 32.0972 49.8479 32.0725 49.8418 32.0478C49.8541 32.0416 49.8665 32.0354 49.8789 32.0292C49.8789 32.0725 49.8727 32.1096 49.8665 32.1529ZM49.8851 32.0045C49.8851 32.0045 49.8541 32.023 49.8356 32.0292C49.817 31.9302 49.8047 31.8375 49.8047 31.7323C49.8356 31.7818 49.8603 31.8313 49.8912 31.8746C49.8912 31.8746 49.8912 31.8746 49.8912 31.8808C49.8912 31.9179 49.8851 31.9612 49.8789 31.9983L49.8851 32.0045ZM49.8851 31.6334C49.8541 31.5221 49.8418 31.4046 49.8294 31.2871C49.8294 31.2809 49.8294 31.2685 49.8294 31.2623C49.8479 31.1572 49.8851 31.052 49.9222 30.9531C49.9345 31.0087 49.9531 31.052 49.9655 31.1077C49.9655 31.219 49.9655 31.3303 49.9655 31.4355C49.9469 31.5282 49.9222 31.621 49.9098 31.72C49.8974 31.689 49.8912 31.6643 49.8789 31.6334H49.8851ZM50.1881 34.0268C50.1881 34.0577 50.1881 34.0948 50.1881 34.132C50.151 34.0577 50.1139 33.9773 50.0891 33.8846C49.9531 33.5135 49.9283 33.0311 49.9593 32.524C49.9964 32.5858 50.0335 32.6291 50.0768 32.6786C50.0768 32.6971 50.083 32.7157 50.0891 32.7342C50.0706 33.0682 50.083 33.4022 50.1324 33.7114C50.151 33.8042 50.1757 33.8846 50.2005 33.9712C50.2005 33.9897 50.2005 34.0083 50.2005 34.0268H50.1881ZM50.2376 33.4516C50.2376 33.4516 50.2252 33.5568 50.2128 33.7114C50.2128 33.7114 50.2128 33.7052 50.2128 33.699C50.1943 33.5259 50.1819 33.3465 50.1881 33.161C50.2066 33.2228 50.2314 33.2847 50.2561 33.3403C50.2561 33.3774 50.2685 33.4145 50.2685 33.4516H50.2376ZM50.2561 31.7014C50.2561 31.7014 50.2499 31.7076 50.2438 31.7138C50.2623 31.6458 50.287 31.5715 50.3118 31.5097C50.2932 31.5777 50.2747 31.6396 50.2561 31.7014ZM50.3056 31.0582C50.3056 31.0211 50.3056 30.984 50.3056 30.9531C50.3056 30.9531 50.3056 30.9593 50.3118 30.9593C50.3118 30.9778 50.3242 30.9902 50.3303 31.0087C50.3242 31.0273 50.3118 31.0397 50.3056 31.0582ZM50.3613 33.464C50.3613 33.464 50.3551 33.4393 50.3489 33.4269C50.3427 33.2723 50.3365 33.1115 50.3427 32.9507C50.3427 32.9507 50.3427 32.9507 50.3489 32.9569C50.3613 33.0373 50.3675 33.1239 50.386 33.2043C50.3736 33.2908 50.3675 33.3774 50.3613 33.464ZM50.3489 30.7737C50.3489 30.7737 50.3613 30.7304 50.3736 30.7119C50.4107 30.6377 50.454 30.582 50.4973 30.514C50.5344 30.4521 50.5715 30.3841 50.6087 30.3284C50.6334 30.3717 50.6581 30.4088 50.689 30.446C50.5901 30.582 50.485 30.7428 50.3922 30.916C50.3798 30.8727 50.3613 30.8294 50.3489 30.7799V30.7737ZM50.4417 32.7528C50.4417 32.7528 50.4355 32.7466 50.4293 32.7404C50.4293 32.5982 50.4293 32.4559 50.4479 32.3075C50.4479 32.2828 50.454 32.2518 50.4602 32.2271C50.485 32.2704 50.4973 32.2951 50.4973 32.2951C50.4973 32.2951 50.485 32.2704 50.4602 32.2209C50.4602 32.2024 50.4602 32.1838 50.4602 32.1653C50.485 32.1962 50.5097 32.2209 50.5282 32.2395C50.4911 32.4065 50.4602 32.5734 50.4355 32.7466L50.4417 32.7528ZM50.5159 32.2086C50.5159 32.2086 50.485 32.1653 50.4664 32.1467C50.4664 32.0787 50.4788 32.0106 50.4911 31.9426C50.5159 31.9983 50.5406 32.0478 50.5715 32.091C50.5592 32.1405 50.5468 32.1838 50.5406 32.2333C50.5344 32.2209 50.5283 32.2147 50.5221 32.2086H50.5159ZM50.5901 35.9873C50.5715 35.9069 50.5592 35.8265 50.5406 35.7461C50.5406 35.6966 50.5468 35.6472 50.5592 35.5977C50.5963 35.6905 50.6396 35.777 50.6829 35.8636C50.6519 35.9131 50.621 35.9564 50.5901 35.9935V35.9873ZM50.8066 35.8265C50.8066 35.8265 50.8127 35.808 50.8189 35.808C50.8189 35.8265 50.8189 35.8513 50.8189 35.8698C50.8189 35.8574 50.8066 35.8451 50.8004 35.8327L50.8066 35.8265ZM50.8066 35.406C50.8066 35.4802 50.8004 35.5544 50.8066 35.6348C50.7942 35.6657 50.7818 35.6905 50.7694 35.7214C50.7385 35.6348 50.7138 35.5482 50.689 35.4616C50.6767 35.406 50.6705 35.3441 50.6643 35.2823C50.689 35.2452 50.72 35.1957 50.7447 35.1586C50.7447 35.1586 50.7509 35.171 50.7571 35.1771C50.788 35.2204 50.8127 35.2514 50.8375 35.2823C50.8375 35.3256 50.8251 35.3627 50.8189 35.4122L50.8066 35.406ZM50.8251 35.2637C50.8251 35.2637 50.788 35.2019 50.7571 35.1586C50.7571 35.1524 50.7447 35.14 50.7385 35.1338C50.7571 35.1091 50.7756 35.0844 50.788 35.0535C50.8189 35.0967 50.8375 35.1215 50.8437 35.1338C50.8375 35.1771 50.8313 35.2204 50.8251 35.2637ZM50.8498 35.14C50.8498 35.14 50.8251 35.1029 50.8004 35.0535C50.8251 35.0102 50.856 34.973 50.8808 34.9236C50.8684 34.9916 50.856 35.0658 50.8498 35.14ZM51.0787 36.2965C51.0787 36.2965 51.091 36.3027 51.0972 36.3089C51.0972 36.3151 51.1034 36.3275 51.1096 36.3337C51.0972 36.3213 51.091 36.3089 51.0787 36.2965ZM51.0601 32.8146C51.0787 32.759 51.0972 32.7157 51.1096 32.6786C51.1096 32.7219 51.0972 32.7713 51.0972 32.8208H51.0601V32.8146ZM51.1158 36.1481C51.0787 35.9564 51.0725 35.7214 51.0972 35.4802C51.1034 35.4926 51.1096 35.5049 51.1158 35.5235C51.1158 35.7585 51.1158 35.9749 51.1158 36.1605C51.1158 36.1605 51.1158 36.1605 51.1158 36.1543V36.1481ZM51.122 32.5487L50.6952 32.4188C50.6952 32.4188 50.6952 32.357 50.7076 32.3322L50.72 32.3508C50.72 32.3508 50.7138 32.3384 50.7076 32.3322C50.72 32.2766 50.7323 32.2271 50.7509 32.1714C50.8127 32.2271 50.8498 32.2642 50.8498 32.2642C50.8498 32.2642 50.8127 32.2209 50.7509 32.1653C50.788 32.023 50.8313 31.887 50.8746 31.7633C50.9488 31.8251 51.023 31.8746 51.0787 31.9117L51.1282 32.4559C51.1282 32.4869 51.122 32.524 51.1158 32.5549L51.122 32.5487ZM51.1467 29.2956C51.1467 29.2956 51.1096 29.3204 51.0849 29.3265C51.1158 29.2956 51.1405 29.2647 51.1653 29.2338L51.1405 29.2894L51.1467 29.2956ZM51.1591 27.1805C51.1405 27.2362 51.1282 27.2856 51.1158 27.3413C51.0478 27.4093 50.9921 27.4897 50.9488 27.5763C50.8808 27.6258 50.8127 27.6753 50.7509 27.7371C50.7447 27.7495 50.7323 27.7619 50.7262 27.768C50.6829 27.799 50.6458 27.8361 50.6087 27.8732C50.6087 27.8175 50.6148 27.7619 50.6396 27.6938C50.7014 27.4712 50.887 27.2238 51.1467 27.0877C51.1714 27.0754 51.2024 27.0692 51.2271 27.0568C51.2024 27.1001 51.1776 27.1372 51.1653 27.1805H51.1591ZM52.0311 27.0012C51.9136 27.0506 51.7713 27.1001 51.6044 27.1743C51.6971 27.1187 51.7899 27.0692 51.8827 27.0321C51.9383 27.0073 51.9878 26.9888 52.0435 26.9702L52.0311 27.0012ZM52.229 26.426C52.161 26.4569 52.0929 26.4878 52.0249 26.5249C52.0125 26.5249 52.0002 26.5249 51.994 26.5249C51.9816 26.5249 51.9754 26.5249 51.9631 26.5249C52.1795 26.4136 52.3898 26.3208 52.5939 26.2528C52.5939 26.259 52.5939 26.2714 52.5939 26.2776C52.4888 26.3208 52.3713 26.3703 52.2414 26.426H52.229ZM52.5506 37.4283C52.5382 37.3356 52.532 37.2366 52.5444 37.1253C52.5506 37.1438 52.563 37.1562 52.5692 37.1748C52.5753 37.2057 52.5815 37.2366 52.5939 37.2675C52.5815 37.3232 52.5692 37.3788 52.5568 37.4283H52.5506ZM52.866 25.3066C52.866 25.3066 52.866 25.3128 52.8598 25.3189C52.8598 25.3066 52.8598 25.2942 52.866 25.2818C52.866 25.288 52.866 25.2942 52.866 25.3004V25.3066ZM52.9031 25.9065C52.9031 25.9065 52.8846 25.9127 52.8784 25.9189V25.9065H52.8908C52.8908 25.9065 52.8908 25.8941 52.8846 25.8756C52.8846 25.8756 52.8846 25.8632 52.8846 25.857C52.8908 25.8446 52.9031 25.8261 52.9093 25.8137C52.9031 25.8508 52.9031 25.8817 52.8969 25.9127L52.9031 25.9065ZM56.2428 23.2409C56.2428 23.2409 56.2242 23.2471 56.218 23.2533C56.2119 23.2533 56.1995 23.2533 56.1933 23.2533C56.2119 23.2533 56.2304 23.2533 56.249 23.2409H56.2428ZM53.7195 24.0944C53.8123 24.0449 53.9236 24.0326 54.0349 24.0387C54.0225 24.0573 54.0102 24.0697 53.9916 24.0882C53.9483 24.1068 53.905 24.1253 53.8555 24.1501C53.7999 24.1624 53.7318 24.1872 53.6638 24.2243C53.5958 24.2552 53.534 24.3047 53.4783 24.3603C53.4288 24.3974 53.3731 24.4346 53.3237 24.4717C53.4226 24.3294 53.5463 24.1748 53.7133 24.0944H53.7195ZM53.268 25.7148L53.1752 25.7952C53.1567 25.7209 53.1443 25.6405 53.1319 25.5601C53.1319 25.554 53.1319 25.5416 53.1319 25.5354L53.2927 25.523C53.2804 25.5911 53.2742 25.6529 53.2618 25.7148H53.268ZM53.3546 25.2818C53.3546 25.2818 53.3484 25.2138 53.3422 25.1829C53.3608 25.1643 53.3793 25.1458 53.3979 25.1334C53.3855 25.1829 53.367 25.2324 53.3546 25.288V25.2818ZM53.3175 24.75C53.3175 24.75 53.3422 24.7005 53.3484 24.6758C53.4226 24.5706 53.4783 24.5088 53.4783 24.5088C53.4783 24.5088 53.4412 24.5397 53.3917 24.5954C53.4226 24.5397 53.4597 24.4902 53.4968 24.4407C53.6329 24.3356 53.769 24.249 53.905 24.181C53.8123 24.2861 53.7257 24.3974 53.6576 24.5211C53.5401 24.583 53.4288 24.6634 53.3175 24.75ZM53.5525 25.152C53.5649 25.0963 53.5834 25.0468 53.602 24.9974C53.6205 24.9912 53.6391 24.9788 53.6576 24.9664C53.6205 25.0283 53.5834 25.0839 53.5525 25.152ZM54.1895 24.4531C54.1339 24.4902 54.0782 24.5211 54.0225 24.5706C53.9421 24.5706 53.8617 24.5706 53.7751 24.5954C53.7813 24.5768 53.7937 24.5644 53.8061 24.5459C53.9607 24.4593 54.1215 24.4036 54.2699 24.3789C54.2452 24.4036 54.2204 24.4284 54.1957 24.4531H54.1895ZM54.3194 24.3232C54.1833 24.3232 54.0349 24.3603 53.8803 24.416C53.9669 24.2923 54.0596 24.1748 54.1586 24.0635C54.2328 24.0882 54.307 24.113 54.375 24.1562C54.3998 24.1686 54.4122 24.1934 54.4369 24.2119C54.3998 24.249 54.3565 24.2861 54.3194 24.3294V24.3232ZM55.2347 23.6182C55.1852 23.6491 55.1296 23.68 55.0801 23.7171C55.0182 23.7604 54.9564 23.8099 54.9007 23.8594C54.8636 23.8779 54.8265 23.8903 54.7956 23.9151C54.7523 23.946 54.7152 23.9831 54.6781 24.014C54.6348 23.9831 54.5915 23.9583 54.542 23.9336C54.5853 23.9212 54.6348 23.9089 54.6657 23.8965C54.8203 23.8594 54.9131 23.8408 54.9131 23.8408C54.9131 23.8408 54.8203 23.8594 54.6595 23.8841C54.6224 23.8965 54.5668 23.9089 54.5173 23.9212C54.5173 23.9212 54.5111 23.9212 54.5049 23.9212C54.4616 23.9027 54.4183 23.8903 54.3689 23.8779C54.4554 23.8037 54.542 23.7357 54.6286 23.6739C54.9873 23.4698 55.3646 23.309 55.7047 23.2904C55.7418 23.2842 55.7728 23.2904 55.8037 23.2842C55.5996 23.3708 55.4141 23.4883 55.2347 23.6244V23.6182ZM56.0944 23.2719C56.0944 23.2719 56.1438 23.2719 56.1686 23.2719C56.1686 23.2719 56.1686 23.2719 56.1809 23.2719C56.15 23.2904 56.1191 23.3028 56.0882 23.3152C56.014 23.3213 55.9397 23.3337 55.8655 23.3523C55.9397 23.3152 56.0201 23.2842 56.1005 23.2657L56.0944 23.2719ZM56.5149 23.6553C56.3788 23.68 56.2428 23.711 56.1067 23.7481C56.1191 23.7481 56.1376 23.7357 56.15 23.7295C56.3417 23.6615 56.5149 23.6429 56.6324 23.612C56.6386 23.612 56.6448 23.612 56.651 23.612C56.6077 23.6244 56.5582 23.6429 56.5149 23.6553ZM56.719 23.5935C56.719 23.5935 56.6695 23.5996 56.6324 23.6058C56.5149 23.6306 56.3417 23.6367 56.1438 23.6924C56.082 23.711 56.0078 23.7357 55.9397 23.7543C56.0201 23.6924 56.0944 23.6244 56.1809 23.5687C56.249 23.5192 56.3232 23.4821 56.3912 23.4388C56.4221 23.4388 56.4531 23.445 56.484 23.4512C56.6077 23.4759 56.7004 23.5192 56.7808 23.5687C56.7685 23.5687 56.7561 23.5811 56.7437 23.5873C56.7314 23.5873 56.7252 23.5873 56.7128 23.5935H56.719ZM56.9478 23.8347L56.7685 23.9274C56.7685 23.9274 56.7932 23.8965 56.8056 23.8779C56.8551 23.8532 56.9045 23.8285 56.9602 23.8099C56.9602 23.8161 56.954 23.8285 56.9478 23.8347ZM57.0839 23.4141C57.0097 23.4512 56.9355 23.4945 56.8674 23.544C56.8551 23.544 56.8427 23.544 56.8365 23.5502C56.7561 23.4821 56.6572 23.4141 56.5087 23.3646C56.5087 23.3646 56.5458 23.3399 56.5644 23.3337C56.7314 23.377 56.8241 23.3955 56.8241 23.3955C56.8241 23.3955 56.7314 23.3708 56.5767 23.3213C56.6881 23.2595 56.8056 23.21 56.9231 23.1667C56.9478 23.1667 56.9787 23.1667 56.9973 23.1667C57.1024 23.1667 57.1952 23.1791 57.2818 23.1853C57.2818 23.21 57.288 23.2348 57.2942 23.2657C57.2199 23.309 57.1519 23.3646 57.0839 23.4141ZM57.3127 23.2595C57.3127 23.2595 57.3003 23.2162 57.2942 23.1915C57.3436 23.1915 57.3807 23.1976 57.424 23.2038C57.3869 23.2224 57.3498 23.2348 57.3127 23.2595ZM57.4611 23.1853C57.4055 23.1791 57.3498 23.1667 57.288 23.1605C57.2756 23.1172 57.2632 23.0863 57.2694 23.0863C57.2694 23.0863 57.2694 23.1172 57.2818 23.1605C57.2076 23.1482 57.1272 23.142 57.0344 23.1296C57.2323 23.0678 57.4179 23.0368 57.5972 23.043C57.5848 23.0678 57.5663 23.0987 57.5415 23.142C57.5106 23.1544 57.4859 23.1667 57.4611 23.1853ZM57.6034 23.043C57.6467 23.043 57.6962 23.0368 57.7456 23.043C57.7766 23.043 57.7951 23.0554 57.826 23.0616C57.7456 23.0801 57.659 23.0987 57.5786 23.1296C57.591 23.0987 57.6034 23.0616 57.6096 23.043H57.6034ZM57.8446 23.5564C57.8446 23.5564 57.826 23.5564 57.8198 23.5564C57.8384 23.544 57.8631 23.5316 57.8879 23.5131V23.5749C57.8879 23.5749 57.8631 23.5625 57.8446 23.5625V23.5564ZM58.061 23.3894C58.061 23.3894 58.061 23.3894 58.0672 23.3894C58.0734 23.3894 58.0858 23.3894 58.092 23.3894C58.0796 23.3894 58.0734 23.3894 58.061 23.3894ZM59.9288 22.9379C59.9721 22.9936 60.0216 23.0554 60.0648 23.1296C60.0648 23.142 60.0772 23.1482 60.0834 23.1605C60.0339 23.1358 59.9968 23.1234 59.9597 23.1111C59.9164 23.043 59.8608 22.9812 59.7927 22.9193C59.836 22.9193 59.8793 22.9317 59.9226 22.9379H59.9288ZM60.1143 23.2038C60.1143 23.2038 60.1514 23.2657 60.17 23.3028C60.1391 23.3028 60.102 23.3028 60.071 23.3028C60.071 23.3028 60.071 23.3028 60.071 23.2966C60.0463 23.2409 60.0154 23.1853 59.9783 23.1296C60.0154 23.1482 60.0648 23.1791 60.1205 23.2162L60.1143 23.2038ZM58.7599 23.0059C58.7599 23.0059 58.7228 23.0307 58.7042 23.043C58.7042 23.043 58.6981 23.043 58.6919 23.043C58.7166 23.0307 58.7413 23.0245 58.7599 23.0121V23.0059ZM58.797 23.2595C58.797 23.2595 58.7537 23.2471 58.729 23.2409C58.729 23.2348 58.7413 23.2286 58.7475 23.2162C58.7661 23.2286 58.7785 23.2471 58.7908 23.2595H58.797ZM58.6671 23.3028C58.6981 23.3028 58.729 23.3213 58.7599 23.3275C58.6857 23.3399 58.6424 23.3461 58.6238 23.3523C58.6362 23.3337 58.6548 23.3213 58.6671 23.3028ZM58.5496 23.1049C58.5496 23.1049 58.5805 23.1172 58.5929 23.1234C58.5744 23.1358 58.5558 23.1544 58.5373 23.1729C58.5187 23.1605 58.494 23.1544 58.4754 23.142C58.5001 23.1296 58.5249 23.1172 58.5496 23.1049ZM58.4569 23.1544C58.4569 23.1544 58.5125 23.1729 58.5311 23.1853C58.5001 23.1791 58.463 23.1729 58.4321 23.1667C58.4445 23.1667 58.4507 23.1544 58.463 23.1482L58.4569 23.1544ZM58.4136 23.3213C58.3826 23.309 58.3455 23.3028 58.3146 23.2904C58.3146 23.278 58.3208 23.2657 58.3208 23.2533C58.3332 23.2533 58.3517 23.2533 58.3641 23.2533C58.395 23.2719 58.4136 23.278 58.4259 23.2904C58.4259 23.2966 58.4136 23.309 58.4074 23.3152L58.4136 23.3213ZM58.4383 23.2904C58.4383 23.2904 58.4136 23.2719 58.395 23.2595C58.4136 23.2595 58.4383 23.2657 58.4569 23.2657C58.4569 23.2719 58.4445 23.278 58.4383 23.2904ZM58.4816 23.847C58.5249 23.8408 58.562 23.8347 58.6115 23.8285C58.6238 23.8285 58.6362 23.8285 58.6548 23.8285C58.6548 23.8285 58.6548 23.8285 58.6548 23.8347C58.6548 23.847 58.6609 23.8594 58.6671 23.8656L58.4816 23.8532V23.847ZM58.8156 23.3523C58.7475 23.3523 58.6795 23.3584 58.6177 23.3646C58.6177 23.3646 58.6177 23.3646 58.6238 23.3584C58.6486 23.3584 58.6981 23.3584 58.7908 23.3523C58.8094 23.3523 58.8341 23.3523 58.8527 23.3523H58.8156ZM59.2609 23.9089L58.9145 23.8779C58.9145 23.8779 58.896 23.8285 58.8836 23.8099C58.9949 23.8099 59.1248 23.8099 59.2609 23.8161C59.2732 23.8347 59.2856 23.8532 59.298 23.8779C59.2856 23.8841 59.2732 23.8965 59.267 23.9089H59.2609ZM59.3536 23.5873C59.3536 23.5873 59.3227 23.5873 59.3103 23.5811C59.3351 23.5811 59.3598 23.5811 59.3845 23.5873C59.3722 23.5873 59.366 23.5873 59.3536 23.5873ZM59.1557 23.3213C59.1186 23.309 59.0815 23.2966 59.0568 23.2966C59.0506 23.2966 59.0506 23.2966 59.0444 23.2966C58.9887 23.2471 58.9331 23.2038 58.8712 23.1544C58.8712 23.1544 58.865 23.1544 58.865 23.142C58.9269 23.0987 58.9887 23.0616 59.0629 23.0307C59.1743 23.1111 59.3041 23.2038 59.4402 23.3028C59.3474 23.3028 59.2547 23.3152 59.1619 23.3213H59.1557ZM59.7185 23.544H59.7494C59.7494 23.544 59.7742 23.5625 59.7865 23.5687C59.7618 23.5564 59.7432 23.5502 59.7185 23.544ZM59.904 23.2842C59.836 23.2842 59.7618 23.2904 59.6938 23.2904C59.7 23.2471 59.7123 23.2162 59.7123 23.2162C59.7123 23.2162 59.7 23.2471 59.6814 23.2904C59.6443 23.2904 59.6072 23.2904 59.5639 23.2904C59.3969 23.1791 59.2423 23.0863 59.1001 22.9997C59.1557 22.9812 59.2114 22.9626 59.2732 22.9503C59.3351 22.9317 59.4031 22.9193 59.4649 22.907C59.4835 22.9132 59.502 22.9132 59.5206 22.9255C59.6938 22.9936 59.8113 23.1296 59.904 23.278V23.2842ZM59.9412 23.5564C59.9783 23.5564 60.0092 23.5564 60.0463 23.5564C60.0587 23.5873 60.071 23.6182 60.0834 23.6553C60.0339 23.6182 59.9906 23.5873 59.9412 23.5564ZM60.1947 23.6986C60.1824 23.6553 60.1762 23.612 60.1638 23.5687C60.2009 23.5687 60.2318 23.5687 60.2689 23.5687C60.2751 23.612 60.2813 23.6491 60.2875 23.6924C60.2566 23.6924 60.2256 23.6924 60.1947 23.6924V23.6986ZM60.2875 23.2904C60.238 23.21 60.1824 23.1358 60.1329 23.0801C60.0896 23.0307 60.0525 22.9936 60.0154 22.9564C60.0277 22.9564 60.0401 22.9564 60.0463 22.9564C60.2875 23.0307 60.5039 23.1296 60.6771 23.2471C60.7884 23.3213 60.8812 23.3894 60.9554 23.445C60.7513 23.3894 60.5349 23.3461 60.3122 23.3152C60.2999 23.309 60.2875 23.2966 60.2813 23.2842L60.2875 23.2904ZM60.4483 23.7048C60.4483 23.7048 60.4483 23.68 60.4421 23.6677C60.4421 23.68 60.4483 23.6924 60.4483 23.7048ZM61.1533 24.3294C61.1533 24.3294 61.1039 24.3294 61.0729 24.3294C61.11 24.3232 61.141 24.3109 61.1781 24.3047C61.209 24.317 61.2399 24.3171 61.2708 24.3294C61.2337 24.3294 61.1966 24.3294 61.1533 24.3294ZM61.3512 35.6534C61.277 35.4987 61.2399 35.3008 61.2214 35.0844C61.2523 35.1277 61.277 35.1648 61.3018 35.2019C61.3141 35.3998 61.3389 35.5668 61.3636 35.6781C61.3636 35.6657 61.3574 35.6595 61.3512 35.6534ZM61.4935 24.0573C61.4935 24.0573 61.4378 24.0078 61.4131 23.9893C61.4749 23.9955 61.5306 24.0078 61.5924 24.0202C61.5615 24.0326 61.5306 24.0449 61.4935 24.0573ZM61.5739 24.0944C61.5739 24.0944 61.5677 24.0944 61.5615 24.0882C61.5739 24.0882 61.5862 24.0759 61.5986 24.0697C61.5924 24.0759 61.5862 24.0882 61.5739 24.0944ZM61.7594 23.8779C61.5244 23.8223 61.2956 23.7852 61.0729 23.7604C61.0853 23.7295 61.0915 23.7048 61.0977 23.711C61.0977 23.711 61.0853 23.7295 61.0729 23.7604C60.9245 23.6924 60.7699 23.6553 60.5967 23.68C60.5967 23.68 60.5967 23.6739 60.5967 23.6615C60.5843 23.6615 60.5658 23.6739 60.5534 23.6739C60.5472 23.6429 60.5287 23.6244 60.5225 23.5996C60.6338 23.612 60.7451 23.6244 60.8565 23.6306C61.1719 23.7048 61.4749 23.779 61.7718 23.8594C61.7718 23.8656 61.7594 23.8718 61.7594 23.8779ZM61.8831 24.1624L61.9017 24.2057C61.9017 24.2057 61.8646 24.1934 61.8522 24.1934C61.8769 24.1563 61.9017 24.1191 61.9264 24.0759C61.9697 24.0882 62.0068 24.1006 62.0501 24.113C61.9511 24.1439 61.8893 24.1624 61.8893 24.1624H61.8831ZM62.0996 23.9769C62.0996 23.9769 62.0686 23.9522 62.0563 23.946C62.1429 23.9769 62.2356 24.0016 62.316 24.0387C62.3037 24.0387 62.2975 24.0387 62.2851 24.0511C62.2233 24.0264 62.1614 24.0016 62.0996 23.9831V23.9769ZM62.316 24.2367C62.316 24.2367 62.3408 24.2243 62.3593 24.2119C62.3655 24.2119 62.3717 24.2243 62.3779 24.2305C62.3593 24.2305 62.3408 24.2305 62.3222 24.2367H62.316ZM65.3155 32.1962C65.3155 32.1962 65.3032 32.2209 65.3032 32.2333C65.3032 32.2333 65.3011 32.2312 65.297 32.2271C65.297 32.2271 65.3155 32.1838 65.3279 32.1591C65.3279 32.1714 65.3279 32.19 65.3217 32.1962H65.3155ZM63.3117 25.0716C63.355 25.0901 63.3921 25.1149 63.4292 25.1334V25.1458C63.386 25.121 63.3489 25.0963 63.3117 25.0716ZM63.9611 25.6158C63.9611 25.6158 64.0106 25.6467 64.0353 25.6653C64.0168 25.6591 64.0044 25.6467 63.992 25.6405C63.9859 25.6344 63.9735 25.622 63.9611 25.6158ZM65.5444 26.9455C65.5444 26.9455 65.5691 26.9455 65.5815 26.9455C65.5938 26.9702 65.6124 26.995 65.6186 27.0259V27.0383C65.5938 27.0073 65.5691 26.9764 65.5444 26.9517V26.9455ZM65.6681 27.0568C65.6681 27.0568 65.6681 27.0259 65.6681 27.0073C65.6681 26.9826 65.6495 26.964 65.6433 26.9393C65.6681 26.9393 65.6866 26.9393 65.7052 26.9393C65.7485 27.0073 65.7794 27.0754 65.8165 27.1496L65.6742 27.0692L65.6681 27.0568ZM65.8845 27.3042C65.8845 27.3042 65.8288 27.2918 65.7979 27.2795L65.8907 27.3104L65.8845 27.3042ZM65.9464 27.2176C65.9093 27.1125 65.8598 27.0197 65.8103 26.9207C65.8103 26.9207 65.8103 26.9207 65.8165 26.9207C65.8412 26.9702 65.8721 27.0135 65.8907 27.063C65.9154 27.1187 65.934 27.1743 65.9525 27.2238L65.9464 27.2176ZM65.8041 26.9084C65.7608 26.8218 65.7052 26.7414 65.6433 26.6672C65.7052 26.7476 65.7608 26.828 65.8103 26.9084H65.8041ZM65.6804 26.9022C65.6804 26.9022 65.6433 26.9022 65.6186 26.9022C65.5938 26.8342 65.5629 26.7723 65.5196 26.7105C65.5753 26.7785 65.6371 26.8404 65.6804 26.9084V26.9022ZM65.433 26.2899C65.433 26.2899 65.4578 26.2714 65.4763 26.2652C65.4763 26.2652 65.4763 26.2652 65.4763 26.2714C65.5196 26.3332 65.5506 26.3889 65.5691 26.4445C65.5258 26.3951 65.4763 26.3456 65.4269 26.2899H65.433ZM65.5567 26.8898C65.5567 26.8898 65.5134 26.8898 65.4887 26.8775C65.464 26.8465 65.433 26.8094 65.4083 26.7847C65.3836 26.7228 65.3588 26.6672 65.3279 26.6053C65.4269 26.6919 65.5073 26.7847 65.5567 26.8898ZM65.3217 26.1848C65.2537 26.1229 65.1918 26.0611 65.1176 26.0116C64.9878 25.9127 64.8579 25.8261 64.7218 25.7395C64.7404 25.7457 64.7589 25.7519 64.7775 25.7581C65.0125 25.857 65.229 25.9931 65.3774 26.1539C65.3588 26.16 65.3341 26.1724 65.3155 26.1848H65.3217ZM64.6476 26.2033C64.6476 26.2033 64.6105 26.1724 64.5858 26.16C64.6105 26.1724 64.6291 26.1848 64.6538 26.1972L64.6414 26.2095L64.6476 26.2033ZM63.9178 33.7423C63.9178 33.7423 63.9178 33.7114 63.924 33.6928C63.924 33.7114 63.924 33.7361 63.924 33.7547C63.924 33.7732 63.924 33.7856 63.924 33.798C63.924 33.798 63.924 33.7918 63.924 33.7856C63.924 33.7732 63.924 33.7485 63.924 33.7361L63.9178 33.7423ZM64.2951 33.1115C64.3075 33.0558 64.3198 33.0002 64.326 32.9383C64.3322 33.0187 64.3384 33.0929 64.3446 33.1733C64.3198 33.2785 64.3013 33.3713 64.2827 33.4516C64.2827 33.3403 64.2889 33.229 64.2951 33.1115ZM65.3093 31.9735C65.3093 31.9735 65.3093 31.9735 65.3093 31.9797C65.3093 31.9797 65.3093 31.9797 65.3093 31.9735ZM65.2475 32.0106C65.2475 32.0539 65.2351 32.091 65.229 32.1282C65.2228 32.122 65.2166 32.1158 65.2104 32.1034C65.2228 32.0725 65.2351 32.0416 65.2475 32.0106ZM65.2908 32.2271C65.2908 32.2271 65.2908 32.2271 65.297 32.2333C65.297 32.2395 65.2846 32.258 65.2846 32.2642C65.2537 32.3322 65.2228 32.3879 65.1918 32.4436C65.2228 32.3755 65.2537 32.3013 65.2908 32.2209V32.2271ZM65.3526 31.8437C65.3526 31.8189 65.365 31.8004 65.3712 31.7756C65.3712 31.7571 65.3836 31.7385 65.3898 31.72C65.3774 31.7694 65.3712 31.8127 65.3588 31.8498L65.3526 31.8437ZM66.5648 29.2152C66.5648 29.2152 66.5648 29.1905 66.5648 29.1719C66.5834 29.2276 66.6081 29.2833 66.6267 29.3389C66.6143 29.3265 66.5957 29.3204 66.5772 29.308C66.5772 29.2709 66.5648 29.24 66.5586 29.209L66.5648 29.2152ZM66.4349 28.9184C66.4349 28.9184 66.4349 28.906 66.4349 28.8998C66.4349 28.8998 66.4349 28.9122 66.4411 28.9184H66.4349ZM66.0082 27.4959C66.0082 27.4959 66.0082 27.4959 66.0082 27.4897V27.4959ZM66.1628 26.9146C66.3174 27.1001 66.4226 27.2733 66.4659 27.4093C66.4659 27.4093 66.4659 27.4155 66.4659 27.4217C66.3978 27.4217 66.3298 27.4093 66.2556 27.397L65.9773 27.2362C65.9649 27.1743 65.9464 27.1125 65.9216 27.0383C65.866 26.8589 65.7485 26.661 65.5938 26.4755C65.5815 26.4136 65.5567 26.3332 65.5073 26.2466C65.5073 26.2466 65.5073 26.2466 65.5011 26.2404C65.7546 26.4755 65.9773 26.7105 66.1505 26.9146H66.1628ZM64.0724 24.9541C64.561 25.1705 65.0372 25.4488 65.365 25.6962C65.4949 25.8013 65.5815 25.9127 65.6371 26.0116C65.5938 26.0425 65.5505 26.0735 65.5011 26.1044C65.3279 25.9374 65.1486 25.7704 64.9506 25.622C64.66 25.3993 64.3384 25.2324 64.0291 25.0963C64.0539 25.053 64.0724 25.0035 64.0786 24.9541H64.0724ZM63.6395 24.484C63.689 24.5026 63.7385 24.5211 63.7941 24.5582C63.8684 24.6015 63.9426 24.6696 63.9735 24.7623C63.8312 24.7067 63.6828 24.6572 63.5406 24.6077C63.5839 24.5706 63.6148 24.5273 63.6395 24.484ZM63.9859 24.9046C63.9735 24.9541 63.9549 25.0035 63.924 25.0468C63.788 24.985 63.6519 24.9355 63.5282 24.8922C63.4911 24.8427 63.454 24.7933 63.4045 24.7438C63.5962 24.7871 63.7941 24.8366 63.9859 24.9046ZM63.3117 24.7685C63.3117 24.7685 63.355 24.818 63.3798 24.8427C63.3612 24.8427 63.3427 24.8304 63.3303 24.8242C63.3179 24.8242 63.3056 24.818 63.2932 24.8118C63.2932 24.8056 63.2932 24.7933 63.287 24.7809C63.2932 24.7809 63.3056 24.7747 63.3117 24.7623V24.7685ZM63.2808 24.7933C63.2808 24.7933 63.2808 24.8118 63.287 24.818C63.2746 24.818 63.2684 24.818 63.2561 24.8118C63.2623 24.8118 63.2684 24.7994 63.2808 24.7994V24.7933ZM63.219 24.7129C63.219 24.7129 63.1695 24.7376 63.1386 24.7438C63.1324 24.7252 63.1262 24.7129 63.1138 24.6881C63.1448 24.6881 63.1819 24.7005 63.2128 24.7067L63.219 24.7129ZM62.4892 24.4036C62.4892 24.4036 62.4892 24.4036 62.483 24.4036C62.5016 24.3974 62.5263 24.3913 62.5448 24.3851C62.5263 24.3851 62.5077 24.3974 62.4892 24.4036ZM62.5077 24.1315C62.5077 24.1315 62.5201 24.1253 62.5263 24.1191C62.5758 24.1377 62.6253 24.1624 62.6747 24.1872C62.6562 24.1872 62.6438 24.1872 62.6253 24.1934C62.582 24.1686 62.5449 24.1501 62.5077 24.1315ZM62.5696 24.3789C62.6005 24.3727 62.6314 24.3603 62.6562 24.3542C62.6314 24.3603 62.6005 24.3665 62.5696 24.3789ZM62.6129 24.416C62.6314 24.4098 62.6562 24.4036 62.6747 24.3913C62.6871 24.3851 62.6995 24.3789 62.7118 24.3727C62.7737 24.4036 62.8355 24.4284 62.8912 24.4593C62.7984 24.4407 62.7057 24.4284 62.6191 24.416H62.6129ZM62.8726 24.6943C62.8726 24.6943 62.8541 24.6943 62.8417 24.6881C62.8417 24.6881 62.8417 24.6881 62.8355 24.6819C62.8479 24.6819 62.8603 24.6943 62.8726 24.7005V24.6943ZM62.7613 24.6634C62.7304 24.651 62.7118 24.651 62.6871 24.6448C62.718 24.6448 62.7489 24.6448 62.7799 24.651C62.7922 24.6572 62.8108 24.6634 62.8232 24.6696C62.8232 24.6696 62.8293 24.6819 62.8355 24.6819C62.8108 24.6758 62.786 24.6696 62.7613 24.6634ZM62.8108 34.769C62.7922 34.8617 62.7799 34.9421 62.7675 35.0225C62.7922 34.8122 62.8293 34.5649 62.8603 34.2928C62.8912 34.2 62.9221 34.0887 62.9592 33.9712C62.9159 34.2556 62.8541 34.5278 62.8108 34.769ZM62.8293 24.3047C62.8293 24.3047 62.8479 24.2923 62.8603 24.2861C62.9654 24.3542 63.052 24.4284 63.12 24.5026C63.0272 24.4346 62.9345 24.3665 62.8355 24.3047H62.8293ZM63.4416 33.5506C63.4416 33.5506 63.4416 33.5382 63.4416 33.532C63.454 33.4888 63.4602 33.4393 63.4664 33.396C63.4602 33.4516 63.4478 33.5011 63.4416 33.5506ZM63.5282 34.503C63.5282 34.503 63.5282 34.4721 63.522 34.4535C63.5344 34.4226 63.5406 34.3979 63.5529 34.3731C63.5468 34.4226 63.5344 34.4659 63.5282 34.503ZM64.3446 34.6947C64.3446 34.6947 64.3446 34.6762 64.3446 34.6638C64.3322 34.5401 64.2951 34.3793 64.2889 34.1814C64.3136 34.2309 64.3384 34.2804 64.3569 34.3237C64.3569 34.4845 64.3507 34.6082 64.3446 34.6947ZM64.2889 33.798C64.2889 33.7361 64.2889 33.6681 64.2889 33.5877C64.2951 33.5692 64.3013 33.5506 64.3136 33.532C64.326 33.5073 64.3446 33.4702 64.3569 33.4393C64.3569 33.4516 64.3569 33.4702 64.3569 33.4888C64.3569 33.6372 64.3507 33.7176 64.3507 33.7176C64.3507 33.7176 64.3631 33.6681 64.3817 33.5815C64.3879 33.7547 64.3879 33.9217 64.3817 34.0701C64.3569 33.9835 64.326 33.8969 64.3075 33.798H64.2889ZM64.5177 33.5011C64.5301 33.3341 64.5363 33.1672 64.5363 32.9878C64.5363 32.9693 64.5487 32.9569 64.5548 32.9321C64.5363 33.2537 64.5177 33.464 64.5177 33.4888C64.5177 33.4888 64.5177 33.4949 64.5177 33.5011ZM64.6723 33.0311C64.6291 33.1919 64.5796 33.3156 64.5363 33.4331C64.5672 33.3341 64.6352 33.1177 64.728 32.8208C64.728 32.8208 64.728 32.8085 64.728 32.8023C64.7094 32.8765 64.6909 32.9569 64.6662 33.0249L64.6723 33.0311ZM65.1486 32.4436C65.1362 32.4188 65.1238 32.4065 65.1176 32.3755C65.1486 32.2951 65.1733 32.2085 65.2042 32.122C65.2166 32.1343 65.2228 32.1405 65.229 32.1467C65.2228 32.19 65.2166 32.2333 65.2104 32.2642C65.1918 32.3199 65.1733 32.3755 65.1547 32.425L65.1486 32.4436ZM65.1857 32.5116C65.2166 32.4683 65.2475 32.4065 65.2784 32.3508C65.2599 32.425 65.2475 32.5054 65.229 32.5734C65.2104 32.5487 65.2042 32.5363 65.1857 32.5116ZM66.2618 32.2642C66.2618 32.2642 66.2618 32.2828 66.2556 32.2951C66.2556 32.2951 66.2309 32.2147 66.1937 32.0972C66.1937 32.0849 66.1937 32.0787 66.1999 32.0725C66.237 31.9612 66.2741 31.8251 66.3112 31.6767C66.3174 31.7633 66.3236 31.8437 66.3298 31.9055C66.3051 32.0416 66.2741 32.1591 66.2618 32.258V32.2642ZM66.7071 30.0872C66.6947 29.945 66.6761 29.8089 66.6514 29.6914C66.6328 29.5801 66.6143 29.4812 66.5957 29.3946C66.6143 29.4008 66.6328 29.4131 66.6514 29.4193C66.7132 29.6543 66.7256 29.8832 66.7071 30.0872ZM66.7627 29.4626C66.7627 29.4626 66.7627 29.4626 66.7627 29.4502V29.4626ZM66.7627 29.3513C66.7627 29.3513 66.7627 29.3946 66.7627 29.4193C66.738 29.2894 66.7071 29.1596 66.6576 29.0297C66.5834 28.838 66.4906 28.6648 66.3978 28.4978C66.6081 28.7699 66.7442 29.0853 66.7689 29.3575L66.7627 29.3513Z" fill="#38312C"/>
<path d="M68.3212 52.5001C68.3212 52.5001 70.4735 60.5895 72.4401 64.0776C74.7408 68.1594 70.4054 72.6741 68.5377 69.1675C68.1171 67.2379 62.5387 58.7218 62.7428 52.463C62.9468 46.2042 68.3274 52.5001 68.3274 52.5001H68.3212Z" fill="#F7DBC5"/>
<path d="M67.7151 48.6038C65.1609 46.9525 61.9882 49.3398 61.9573 53.1371C61.9264 56.9344 64.7404 62.3088 65.3155 64.7455C68.3212 64.3992 72.0814 61.3131 73.5101 59.9401C71.4692 55.0172 70.2694 50.2551 67.7151 48.6038Z" fill="#EDCC43"/>
<path d="M81.6119 58.6043C80.2451 59.4206 72.6566 63.9601 71.2465 64.7826C69.8364 65.6052 69.1067 69.2788 69.3788 69.9096C69.6509 70.5405 71.933 70.9672 73.7884 69.3716C75.6438 67.7698 81.55 62.1789 83.2013 61.2389C84.8526 60.2988 82.9848 57.7879 81.618 58.6043H81.6119Z" fill="#F7DBC5"/>
<path d="M104.952 20.1363C103.091 20.4888 100.258 21.9545 99.9924 23.4327C99.745 24.8056 97.1599 38.659 96.628 42.0791C94.5376 43.8912 91.8226 46.1053 91.7855 48.8265C91.2103 49.513 90.7774 50.0386 90.6537 50.2489C91.3587 50.4963 92.1132 51.1271 92.7441 51.7765C92.9049 51.993 93.078 52.1785 93.2574 52.3331C93.6903 52.8341 94.0181 53.2855 94.148 53.502C94.2036 53.6009 94.4881 53.3907 94.921 52.9949C96.6156 53.0567 98.4772 51.6095 99.2688 49.4264C99.4729 48.8636 99.6151 48.2946 99.7203 47.7256C101.297 45.895 102.596 44.3365 102.596 44.3365C102.596 44.3365 106.82 19.7776 104.959 20.1301L104.952 20.1363Z" fill="#CDD6CC"/>
<path d="M121.836 106.621C121.836 106.621 122.875 111.853 123.735 116.473C124.588 121.093 115.664 121.05 116.45 116.362L117.241 111.674V106.763L121.836 106.627V106.621Z" fill="#111111"/>
<path d="M105.453 104.723C104.526 107.518 100.438 109.083 97.9082 111.012C95.3787 112.942 96.7702 113.319 99.0276 113.956C101.291 114.593 106.721 112.899 106.95 111.693C107.179 110.487 109.832 109.899 110.079 110.728C110.327 111.55 113.499 111.086 113.388 109.911C113.277 108.736 113.172 107.561 113.06 106.386C109.888 106.85 107.878 107.394 107.154 106.596C107.717 105.36 106.678 105.118 105.453 104.723Z" fill="#111111"/>
<path d="M108.088 20.2847C108.088 20.2847 108.311 22.5421 107.649 23.8099C107.08 29.5554 114.637 24.0264 116.394 21.9113C116.153 20.9279 114.668 18.3799 116.678 13.9394C114.402 15.6216 108.082 20.2847 108.082 20.2847H108.088Z" fill="#DEBAA7"/>
<path d="M106.474 20.6929L107.618 20.9094C107.618 20.9094 107.711 24.7994 108.484 25.1767C108.725 25.22 115.812 22.1401 115.812 22.1401L104.971 45.159L106.474 20.6867V20.6929Z" fill="#F0F0F0"/>
<path d="M99.4296 51.9991C97.5742 61.7769 99.3492 70.3549 100.085 72.6803C100.821 75.0057 101.885 84.4063 103.283 86.9976C106.264 103.504 104.538 104.184 105.033 105.638C103.963 106.93 112.584 108.081 113.227 106.102C113.246 103.201 112.077 92.4957 110.413 81.0913C111.057 77.9558 113.537 64.9187 115.534 62.8592C114.31 48.7646 104.346 56.0253 99.4296 52.0053V51.9991Z" fill="#64646D"/>
<path d="M99.6275 49.482C98.5205 56.5757 103.691 62.6675 104.08 64.0529C105.552 69.3283 109.554 80.4543 110.395 83.7754C111.236 87.0904 115.324 103.547 115.819 109.41C116.542 109.961 122.244 109.751 123.395 108.743C121.645 95.3962 120.946 87.412 118.93 81.8149C119.022 79.9101 118.466 68.1409 119.567 66.168C122.195 62.7356 120.624 55.9511 119.498 52.1847C117.971 47.0515 106.505 54.8069 99.6275 49.4759V49.482Z" fill="#64646D"/>
<path d="M107.247 28.9431L104.971 35.7647V43.1119L109.56 32.2518L108.923 29.1348L107.247 28.9431Z" fill="#383A63"/>
<path d="M107.259 26.2033C107.08 26.9022 107.513 27.9288 107.247 28.9369C107.636 29.1101 108.428 29.5739 108.923 29.1348C109.418 28.6957 111.292 26.5497 110.395 26.3394C109.492 26.1291 108.391 25.2324 107.723 24.6881C107.309 25.3499 107.439 25.4983 107.259 26.2033Z" fill="#454A6D"/>
<path d="M116.078 20.0683C115.973 19.8642 116.078 20.0683 115.874 20.2476C115.318 20.7424 108.577 25.0592 108.478 25.1705C108.527 25.4055 111.013 28.0216 111.947 28.572C114.705 25.4055 116.672 21.9731 116.672 21.9731C116.672 21.9731 116.468 20.3218 116.072 20.0621L116.078 20.0683Z" fill="white"/>
<path d="M108.842 20.5197C109.628 19.2704 106.61 21.0145 106.61 21.0145C106.61 21.0145 106.146 24.7623 106.925 26.2033C107.401 24.4036 108.428 25.1767 108.484 25.1767C108.094 24.8056 108.057 21.769 108.842 20.5197Z" fill="white"/>
<path d="M124.687 27.0197C124.261 26.0673 118.577 22.1153 116.678 20.9217C115.825 22.7091 110.549 28.9988 106.783 33.1486C106.301 29.1596 107.024 23.9398 108.051 19.9075C108.076 19.8085 108.113 19.7157 108.144 19.623C107.766 19.5859 107.358 19.4869 106.925 19.5611C101.025 20.6063 102.745 24.6634 101.569 28.6091C98.2731 41.5967 96.1085 52.3022 98.6256 52.296C98.539 53.4649 98.2421 54.0957 100.098 54.5719C106.616 56.2418 119.369 58.5486 120.692 53.168C117.093 38.5539 126.314 30.6253 124.687 27.0197Z" fill="#CDD6CC"/>
<path d="M118.422 62.5067C116.821 63.0757 114.303 65.6485 113.425 66.403C112.547 67.1513 111.663 68.3573 112.293 68.8954C112.93 69.4334 113.345 68.4192 114.47 67.5286C115.596 66.6442 115.361 68.8954 115.361 68.8954C115.361 68.8954 113.796 70.4477 113.431 71.7155C113.06 72.9834 116.833 70.7693 117.853 71.0971C119.406 70.7013 120.166 69.5571 120.247 65.7536C120.037 64.1023 122.195 62.0676 122.195 62.0676C122.195 62.0676 120.129 58.5424 118.422 62.5067Z" fill="#F7DBC5"/>
<path d="M124.582 27.4464C123.611 24.6139 117.414 25.758 118.404 31.1015C119.393 36.445 121.23 44.1262 121.23 44.1262C121.23 44.1262 118.96 56.3593 117.612 59.4206C117.711 62.7541 122.77 64.7208 123.723 63.2427C126.295 61.443 127.05 52.9083 127.279 50.1067C128.213 45.8579 128.41 43.4273 127.928 41.4916C127.446 39.5496 126.184 32.1343 124.576 27.4464H124.582Z" fill="#CDD6CC"/>
<path d="M118.286 60.1504C118.286 60.1504 117.284 62.0924 117.612 62.5995C117.94 63.1066 121.539 64.727 121.991 64.9805C122.442 65.2403 123.395 62.5686 123.395 62.5686L118.292 60.1504H118.286Z" fill="#CDD6CC"/>
<path d="M106.059 19.7714L104.322 24.2799C104.322 24.2799 106.022 24.75 106.146 25.4117C106.27 26.0673 106.226 31.6272 106.777 34.2185C106.876 33.0249 107.21 21.5031 108.137 19.6353C107.717 19.3941 106.053 19.7776 106.053 19.7776L106.059 19.7714Z" fill="#DEE3DD"/>
<path d="M116.678 20.6929C116.678 20.6929 106.758 33.6557 106.233 34.8494C107.439 34.1258 114.235 27.8855 114.712 27.8979C114.625 27.6072 114.198 26.2033 114.198 26.2033C114.198 26.2033 116.419 27.0383 116.678 27.6815C117.198 27.3413 118.212 22.4555 118.286 22.171C118.361 21.8865 116.988 20.6929 116.988 20.6929H116.678Z" fill="#DEE3DD"/>
<path d="M112.547 33.8042C112.43 34.132 112.318 34.4535 112.201 34.769C112.102 35.0349 112.25 35.2885 112.528 35.3565C113.982 35.6905 115.448 36.2904 116.895 36.7851C117.173 36.8779 117.482 36.7418 117.581 36.4883C117.699 36.1852 117.816 35.8946 117.934 35.6039C116.159 34.8617 114.328 34.0392 112.547 33.8042Z" fill="#DEE3DD"/>
<path d="M103.604 32.5301L103.833 31.6767L101.18 30.9655C101.081 31.4046 100.976 31.8375 100.877 32.2766L103.091 32.8703C103.307 32.926 103.536 32.7775 103.598 32.5301H103.604Z" fill="#DEE3DD"/>
<path d="M111.001 2.45462C105.484 2.45462 103.734 7.0312 103.4 9.72767C103.06 12.4303 103.814 13.4075 104.019 14.8361C103.907 19.4745 106.888 20.7609 107.847 21.4103C108.805 22.0535 109.387 22.1092 110.104 21.8123C110.822 21.5093 114.953 19.8394 115.448 18.5963C116.048 17.0749 119.455 14.3537 119.554 10.0864C119.678 5.15727 116.511 2.4608 110.995 2.4608L111.001 2.45462Z" fill="#EBCAB5"/>
<path d="M114.328 1.05072C109.034 -0.210926 104.643 4.14919 104.179 6.89514C110.259 2.21961 116.672 9.04118 115.825 13.5435C116.048 14.9351 116.635 17.1739 116.221 18.1387C117.352 15.4979 119.517 13.8466 120.105 10.7481C120.946 6.31997 118.664 2.28145 114.322 1.05072H114.328Z" fill="#4F5059"/>
<path d="M115.336 14.1929C115.336 14.1929 116.462 12.2572 117.192 13.4879C117.921 14.7186 117.643 16.308 117.192 17.1244C116.74 17.9469 115.336 16.8894 115.336 16.8894V14.1929Z" fill="#EBCAB5"/>
<path d="M118.831 15.7081C118.831 15.7081 118.676 15.6648 118.453 15.504C118.286 15.3989 118.088 15.2257 117.884 14.9969C117.878 14.9536 117.853 14.8176 117.816 14.6073C117.816 14.6011 117.816 14.5887 117.816 14.5764C117.792 14.3475 117.767 14.1125 117.736 13.8713C117.792 13.8961 117.847 13.9208 117.897 13.9394C117.934 13.9517 117.965 13.9641 117.996 13.9765C118.15 14.094 118.243 14.1558 118.243 14.1558C118.243 14.1558 118.2 14.1063 118.126 14.0259C118.2 14.0569 118.243 14.0692 118.243 14.0692C118.243 14.0692 118.169 14.0136 118.033 13.9208C117.983 13.8651 117.928 13.8033 117.86 13.7353L118.039 13.5435L118.07 13.5559C118.07 13.5559 118.057 13.5559 118.045 13.5435L118.843 12.6963L117.946 4.95318L116.697 2.39896L115.744 2.09592C115.695 2.01552 115.652 1.9413 115.59 1.8609C115.485 1.71866 115.355 1.57023 115.213 1.4218C115.231 1.4218 115.256 1.42798 115.274 1.44035C115.454 1.48983 115.633 1.54549 115.8 1.60115C115.961 1.7001 116.109 1.80524 116.233 1.89801C116.567 2.14539 116.691 2.39896 116.697 2.39896C116.697 2.39896 116.66 2.33711 116.604 2.23198C116.53 2.13302 116.425 2.00315 116.27 1.8609C116.214 1.80524 116.146 1.75576 116.078 1.7001C116.245 1.76195 116.4 1.82998 116.536 1.89801C116.87 2.05262 117.043 2.22579 117.043 2.22579C117.043 2.22579 116.882 2.03407 116.555 1.85472C116.338 1.72484 116.054 1.58878 115.751 1.45891C115.522 1.30429 115.268 1.14968 115.002 1.01362C114.811 0.914664 114.607 0.834265 114.409 0.766234C114.396 0.722943 114.378 0.679651 114.341 0.636359C114.322 0.605436 114.297 0.574513 114.279 0.54359C114.248 0.518852 114.217 0.494114 114.18 0.469375C113.988 0.333315 113.71 0.358053 113.444 0.457006C113.06 0.401345 112.646 0.432268 112.324 0.642543C112.312 0.648728 112.3 0.661097 112.287 0.667281C112.157 0.636359 112.021 0.61162 111.885 0.605436C111.551 0.555959 111.205 0.54359 110.896 0.623989C110.574 0.698204 110.333 0.914664 110.215 1.15586C109.925 1.15586 109.616 1.17442 109.3 1.21152C108.651 1.28574 108.045 1.60733 107.729 1.97841C106.913 2.28145 106.183 2.702 105.75 3.22769C105.503 3.49981 105.385 3.79049 105.305 4.0255C105.045 4.28525 104.81 4.56974 104.612 4.87897C104.365 5.25623 104.173 5.65822 104.012 6.06022C103.913 6.21483 103.814 6.35708 103.753 6.53643C103.437 7.2291 103.382 7.92796 103.351 8.52168C103.227 9.11539 103.221 9.67819 103.227 10.1544C103.227 10.1668 103.227 10.1791 103.227 10.1977C103.165 10.946 103.165 11.6511 103.221 12.2448C103.264 12.8323 103.351 13.3085 103.425 13.6425C103.505 13.9703 103.549 14.1558 103.549 14.1558C103.549 14.1558 103.536 13.9641 103.511 13.6301C103.499 13.2962 103.493 12.8138 103.542 12.2448C103.555 12.0902 103.573 11.9294 103.592 11.7686C103.672 12.2819 103.833 12.6901 103.944 12.9684C104.074 13.2343 104.148 13.3889 104.148 13.3889C104.148 13.3889 104.105 13.2281 104.025 12.9436C103.975 12.6591 103.901 12.2572 103.913 11.7748C103.913 11.7933 103.926 11.818 103.932 11.8366C103.988 11.985 104.037 12.1025 104.087 12.1706C104.13 12.2386 104.155 12.2819 104.155 12.2819C104.155 12.2819 104.136 12.2386 104.111 12.1644C104.08 12.0902 104.049 11.9665 104.025 11.8242C103.981 11.5274 104.012 11.0883 104.148 10.5873C104.284 10.0864 104.513 9.52976 104.81 8.94841C105.095 8.34232 105.453 7.84756 105.948 7.39609C106.424 6.94461 106.987 6.54262 107.525 6.14062C107.841 5.90561 108.162 5.7077 108.459 5.55309C108.459 5.60256 108.459 5.64585 108.459 5.69533C108.478 6.33852 108.546 7.04356 108.713 7.71768C109.009 9.09066 109.708 10.3028 110.339 11.0697C110.642 11.4717 110.933 11.7624 111.137 11.9665C111.341 12.1706 111.452 12.2881 111.452 12.2881C111.452 12.2881 111.36 12.152 111.205 11.9108C111.044 11.6758 110.815 11.3357 110.605 10.8965C110.432 10.575 110.271 10.2039 110.129 9.7957C110.277 10.0431 110.432 10.2843 110.599 10.5131L111.106 11.1316C111.292 11.3171 111.489 11.4903 111.675 11.6696C111.749 11.7438 111.83 11.8119 111.91 11.8799C112.232 12.2262 112.559 12.5231 112.875 12.7519C113.283 13.0735 113.666 13.2714 113.932 13.4013C114.05 13.4508 114.143 13.4879 114.217 13.5188C114.347 13.6116 114.477 13.6982 114.606 13.7786C114.668 13.8651 114.705 13.9208 114.705 13.9208C114.705 13.9208 114.681 13.8775 114.637 13.7971C114.823 13.9084 115.002 14.0198 115.182 14.1125C115.25 14.4774 115.299 14.8361 115.324 15.1639C115.312 15.1886 115.305 15.2072 115.305 15.2072C115.305 15.2072 115.312 15.1948 115.324 15.1701C115.336 15.3742 115.349 15.5721 115.336 15.7452C115.324 16.0545 115.256 16.308 115.163 16.4627C115.07 16.6173 114.959 16.6606 114.959 16.6667C114.959 16.6667 115.077 16.6544 115.225 16.5245C115.38 16.3946 115.534 16.1411 115.646 15.8133C115.763 15.4855 115.85 15.0959 115.918 14.6691C115.961 14.6939 116.004 14.7124 116.041 14.7372C116.041 14.7557 116.041 14.7805 116.035 14.799C116.004 15.0588 115.979 15.2134 115.979 15.2134C115.979 15.2134 116.017 15.0649 116.078 14.8114C116.078 14.799 116.078 14.7805 116.091 14.7681C116.332 14.8856 116.567 14.9536 116.746 14.9474C116.833 14.9474 116.907 14.9413 116.963 14.9289C117.074 15.1082 117.192 15.2752 117.309 15.4175C117.352 15.4731 117.402 15.5226 117.445 15.5721C117.476 15.6896 117.513 15.8071 117.532 15.9122C117.649 16.308 117.668 16.6544 117.724 16.8894C117.761 17.1306 117.785 17.2666 117.785 17.2666C117.785 17.2666 117.792 17.1306 117.81 16.8832C117.81 16.6544 117.866 16.3328 117.853 15.9493C117.959 16.0297 118.064 16.0916 118.156 16.1287C118.404 16.2338 118.565 16.2276 118.558 16.2338C118.558 16.2215 118.404 16.1967 118.2 16.0483C118.082 15.9741 117.965 15.8442 117.847 15.6834C117.847 15.5535 117.847 15.4298 117.841 15.2876C118.045 15.4298 118.237 15.535 118.391 15.5906C118.651 15.702 118.818 15.702 118.812 15.7143L118.831 15.7081ZM103.969 6.90751C103.913 7.01264 103.858 7.12396 103.808 7.2291C103.864 7.07449 103.932 6.91987 104.012 6.76526C104 6.81474 103.981 6.85803 103.969 6.90751ZM106.536 2.80096L106.084 3.19058C105.948 3.33283 105.824 3.49363 105.701 3.64206C105.67 3.67298 105.645 3.71009 105.62 3.74101C105.521 3.82141 105.429 3.91418 105.342 4.00695C105.429 3.7843 105.552 3.51836 105.787 3.27098C106.14 2.8628 106.69 2.53502 107.315 2.27527C107.049 2.42988 106.789 2.60305 106.542 2.80096H106.536ZM108.137 1.84853C108.045 1.87946 107.952 1.90419 107.865 1.93512C108.212 1.63826 108.744 1.40324 109.313 1.37232C109.393 1.36614 109.479 1.36614 109.56 1.36614C109.096 1.47746 108.614 1.63826 108.137 1.84853ZM116.487 14.0198C116.487 14.0198 116.425 13.9888 116.4 13.9703C116.344 13.927 116.283 13.8837 116.221 13.8342C116.221 13.7909 116.221 13.7538 116.221 13.7105C116.307 13.8095 116.388 13.9084 116.474 14.0012C116.474 14.0074 116.474 14.0136 116.48 14.0198H116.487ZM116.066 13.7043C116.066 13.6982 116.054 13.692 116.048 13.6796C116.048 13.6549 116.048 13.6301 116.048 13.6054C116.048 13.6363 116.06 13.6734 116.06 13.7043H116.066ZM112.763 1.16205C112.763 1.16205 112.776 1.14349 112.782 1.13731C112.801 1.15586 112.813 1.16823 112.832 1.18678L112.757 1.16205H112.763ZM114.872 1.82998L114.947 1.65681C114.947 1.65681 114.594 1.50838 114.062 1.28574C114.056 1.28574 114.044 1.27955 114.038 1.27337C114.186 1.26718 114.353 1.27337 114.532 1.29192C114.644 1.36614 114.749 1.44035 114.835 1.52075C115.039 1.7001 115.157 1.8609 115.206 1.92893L114.879 1.82379L114.872 1.82998ZM114.038 1.57023L113.586 1.42798C113.586 1.42798 113.611 1.40324 113.629 1.38469C113.741 1.43417 113.852 1.48983 113.957 1.53312C113.988 1.54549 114.013 1.55786 114.044 1.57023H114.038ZM115.54 1.89182C115.596 1.95985 115.633 2.01552 115.676 2.08355L115.206 1.93512C115.169 1.8609 115.058 1.69392 114.866 1.48983C114.817 1.43417 114.749 1.37851 114.687 1.32285C114.804 1.3414 114.928 1.36614 115.052 1.39706C115.244 1.56404 115.41 1.73721 115.54 1.89801V1.89182ZM114.928 1.16205C114.965 1.17442 114.996 1.19297 115.033 1.21152C114.996 1.19915 114.959 1.18678 114.928 1.1806C114.916 1.16823 114.903 1.16205 114.891 1.14968C114.903 1.14968 114.916 1.15586 114.934 1.16205H114.928ZM114.538 1.01362C114.588 1.04454 114.644 1.08165 114.693 1.11257C114.551 1.08165 114.415 1.05072 114.285 1.03836C114.198 0.988879 114.106 0.939402 114.007 0.89611C114.18 0.920848 114.353 0.957956 114.538 1.0198V1.01362ZM114.143 0.518852C114.26 0.593067 114.328 0.685835 114.371 0.766234C114.334 0.753865 114.297 0.735312 114.26 0.729127C114.068 0.630174 113.864 0.555959 113.648 0.500298C113.827 0.444637 114.007 0.438453 114.143 0.518852ZM113.376 0.623989C113.376 0.623989 113.394 0.623989 113.407 0.623989C113.388 0.623989 113.37 0.623989 113.351 0.630174C113.357 0.630174 113.37 0.623989 113.376 0.617805V0.623989ZM113.413 0.89611C113.506 0.902295 113.598 0.914664 113.691 0.933218C113.784 0.957956 113.877 0.988879 113.969 1.0198C113.815 1.0198 113.685 1.05072 113.574 1.09402C113.462 1.05072 113.345 1.00743 113.221 0.96414C113.271 0.933218 113.339 0.908479 113.419 0.889926L113.413 0.89611ZM113.332 1.24863L113.295 1.29192L113.431 1.37851L113.351 1.35377C113.351 1.35377 113.308 1.33521 113.283 1.32903C113.24 1.27955 113.196 1.22389 113.147 1.17442C113.209 1.19915 113.271 1.22389 113.332 1.25481V1.24863ZM113.122 0.617805C113.085 0.642543 113.048 0.667281 113.011 0.69202C112.875 0.704389 112.745 0.735312 112.627 0.778604C112.603 0.778604 112.584 0.766234 112.566 0.76005C112.733 0.673466 112.924 0.630174 113.128 0.617805H113.122ZM112.349 0.889926C112.349 0.889926 112.374 0.89611 112.38 0.902295C112.38 0.902295 112.374 0.902295 112.368 0.908479C112.244 0.988879 112.164 1.07546 112.096 1.14968C112.077 1.14968 112.065 1.14968 112.04 1.14349C112.133 1.05691 112.238 0.970325 112.343 0.889926H112.349ZM112.065 0.815711C111.929 0.914664 111.817 1.0198 111.706 1.11875C111.601 1.11875 111.489 1.11875 111.372 1.11257C111.156 1.12494 110.908 1.13731 110.648 1.16823C110.599 1.16823 110.537 1.16823 110.488 1.16823C110.698 1.05072 110.914 0.945587 111.149 0.871372C111.452 0.772419 111.774 0.76005 112.071 0.815711H112.065ZM110.914 0.729127C111.013 0.704389 111.118 0.698204 111.23 0.698204C111.186 0.710573 111.143 0.716758 111.1 0.729127C110.809 0.834265 110.543 0.97651 110.296 1.13112C110.426 0.939402 110.642 0.778604 110.914 0.729127ZM116.085 14.2177C116.085 14.2177 116.029 14.1806 115.998 14.162C116.004 14.1125 116.01 14.063 116.017 14.0136C116.041 14.0259 116.066 14.0321 116.085 14.0383C116.085 14.1002 116.085 14.1558 116.085 14.2177ZM116.202 14.0816C116.276 14.1063 116.344 14.1311 116.412 14.1558C116.48 14.1867 116.542 14.2115 116.598 14.2424C116.666 14.3661 116.728 14.4898 116.796 14.6073C116.61 14.5207 116.4 14.4156 116.177 14.2795C116.19 14.2177 116.196 14.1496 116.202 14.0816ZM116.771 14.8361C116.616 14.8052 116.431 14.7124 116.245 14.5764C116.487 14.6629 116.709 14.731 116.895 14.7805C116.913 14.8052 116.932 14.8299 116.944 14.8609C116.889 14.8609 116.833 14.8485 116.765 14.8361H116.771ZM117.835 14.9474C117.835 14.9474 117.835 14.9103 117.835 14.8856C117.853 14.9289 117.872 14.9722 117.878 14.9907C117.866 14.9784 117.853 14.9598 117.841 14.9413L117.835 14.9474Z" fill="#4F5059"/>
</svg>
