<svg width="31" height="31" viewBox="0 0 31 31" fill="none" xmlns="http://www.w3.org/2000/svg">
<path d="M26.75 5.66675H4.25C4.00136 5.66675 3.7629 5.76552 3.58709 5.94134C3.41127 6.11715 3.3125 6.35561 3.3125 6.60425V22.5417C3.3125 23.039 3.51004 23.5159 3.86167 23.8676C4.21331 24.2192 4.69022 24.4167 5.1875 24.4167H25.8125C26.3098 24.4167 26.7867 24.2192 27.1383 23.8676C27.49 23.5159 27.6875 23.039 27.6875 22.5417V6.60425C27.6875 6.35561 27.5887 6.11715 27.4129 5.94134C27.2371 5.76552 26.9986 5.66675 26.75 5.66675ZM24.3395 7.54175L15.5 15.6453L6.66055 7.54175H24.3395ZM25.8125 22.5417H5.1875V8.73589L14.866 17.6082C15.039 17.7669 15.2652 17.855 15.5 17.855C15.7348 17.855 15.961 17.7669 16.134 17.6082L25.8125 8.73589V22.5417Z" fill="white"/>
</svg>
