<svg width="30" height="31" viewBox="0 0 30 31" fill="none" xmlns="http://www.w3.org/2000/svg">
<path d="M23.2362 12.6522C23.331 12.649 23.4255 12.6648 23.514 12.6988C23.6025 12.7328 23.6832 12.7843 23.7514 12.8502C23.8196 12.9161 23.8738 12.995 23.9109 13.0823C23.9479 13.1695 23.967 13.2634 23.967 13.3582C23.967 13.453 23.9479 13.5469 23.9109 13.6341C23.8738 13.7214 23.8196 13.8004 23.7514 13.8662C23.6832 13.9321 23.6025 13.9836 23.514 14.0176C23.4255 14.0516 23.331 14.0674 23.2362 14.0642H21.274V15.3226H23.2362C23.3316 15.3179 23.4269 15.3327 23.5163 15.366C23.6058 15.3992 23.6875 15.4503 23.7566 15.5162C23.8257 15.582 23.8808 15.6611 23.9184 15.7489C23.956 15.8366 23.9753 15.931 23.9753 16.0265C23.9753 16.1219 23.956 16.2164 23.9184 16.3041C23.8808 16.3918 23.8257 16.471 23.7566 16.5368C23.6875 16.6026 23.6058 16.6537 23.5163 16.687C23.4269 16.7203 23.3316 16.735 23.2362 16.7304H20.5709C20.3846 16.7297 20.2061 16.6553 20.0745 16.5234C19.9429 16.3914 19.8689 16.2128 19.8687 16.0265V10.6908C19.8687 10.3023 20.1833 9.98354 20.5709 9.98354H23.2413C23.4224 9.9929 23.5931 10.0716 23.7178 10.2033C23.8425 10.335 23.9118 10.5097 23.9112 10.6911C23.9107 10.8725 23.8404 11.0467 23.7149 11.1777C23.5894 11.3087 23.4183 11.3864 23.2371 11.3946H21.2748V12.6531L23.2362 12.6522ZM18.9291 16.0256C18.9275 16.2125 18.8523 16.3912 18.7197 16.5228C18.5871 16.6545 18.4079 16.7285 18.221 16.7287C18.1104 16.7298 18.001 16.7051 17.9016 16.6566C17.8021 16.6081 17.7153 16.5371 17.648 16.4493L14.9172 12.7353V16.0248C14.9172 16.2115 14.8431 16.3905 14.7111 16.5225C14.5791 16.6545 14.4001 16.7287 14.2134 16.7287C14.0267 16.7287 13.8477 16.6545 13.7157 16.5225C13.5837 16.3905 13.5095 16.2115 13.5095 16.0248V10.6891C13.5095 10.3879 13.7066 10.1178 13.9902 10.0213C14.0604 9.99729 14.1341 9.9851 14.2083 9.98522C14.4265 9.98522 14.6278 10.1035 14.7629 10.2696L17.5155 13.992V10.6891C17.5155 10.3007 17.8301 9.98186 18.2193 9.98186C18.6086 9.98186 18.9274 10.3007 18.9274 10.6891L18.9291 16.0256ZM12.5061 16.0256C12.5052 16.2128 12.4302 16.3919 12.2975 16.5239C12.1648 16.6558 11.9852 16.7297 11.798 16.7295C11.6123 16.728 11.4347 16.6532 11.3038 16.5213C11.173 16.3895 11.0994 16.2114 11.0992 16.0256V10.6899C11.0992 10.3015 11.4138 9.9827 11.8031 9.9827C12.1923 9.9827 12.507 10.3015 12.507 10.6899L12.5061 16.0256ZM9.74849 16.7295H7.07812C6.89119 16.7291 6.71198 16.6549 6.5794 16.5231C6.44683 16.3913 6.3716 16.2126 6.37005 16.0256V10.6899C6.37005 10.3015 6.68885 9.9827 7.07812 9.9827C7.4674 9.9827 7.782 10.3015 7.782 10.6899V15.3218H9.74849C9.93517 15.3218 10.1142 15.3959 10.2462 15.5279C10.3782 15.6599 10.4524 15.839 10.4524 16.0256C10.4524 16.2123 10.3782 16.3914 10.2462 16.5234C10.1142 16.6554 9.93517 16.7295 9.74849 16.7295ZM28.4235 13.1539C28.4235 7.14622 22.3973 2.25684 15.0003 2.25684C7.60331 2.25684 1.57715 7.14622 1.57715 13.1539C1.57715 18.5374 6.35327 23.0468 12.8023 23.9034C13.2394 23.9948 13.8333 24.1919 13.9869 24.5636C14.1219 24.8992 14.0741 25.4193 14.0305 25.7742L13.8468 26.9143C13.7939 27.2507 13.5758 28.239 15.0179 27.6358C16.4643 27.0326 22.7564 23.0745 25.5744 19.8311C27.5015 17.7211 28.4235 15.5533 28.4235 13.1539Z" fill="white"/>
</svg>
