<svg width="76" height="75" viewBox="0 0 76 75" fill="none" xmlns="http://www.w3.org/2000/svg">
<rect x="0.75" width="75" height="75" rx="37.5" fill="#31908D"/>
<path d="M38.2501 38.4235C43.0244 38.4235 46.8948 34.5532 46.8948 29.7789C46.8948 25.0046 43.0244 21.1343 38.2501 21.1343C33.4758 21.1343 29.6055 25.0046 29.6055 29.7789C29.6055 34.5532 33.4758 38.4235 38.2501 38.4235Z" fill="white"/>
<path d="M49.1775 40.3604C48.2027 38.9528 46.2718 38.5666 44.8622 39.5365C42.9777 40.8321 40.6997 41.5907 38.2489 41.5907C35.798 41.5907 33.5188 40.8321 31.6356 39.5365C30.2259 38.5679 28.2951 38.9528 27.3202 40.3604L24.0812 45.0361C22.827 46.8474 23.04 49.2978 24.5837 50.8677C28.2562 54.6062 33.0301 56.8654 38.2501 56.8654C43.4701 56.8654 48.244 54.6062 51.9166 50.8677C53.4603 49.2966 53.6733 46.8474 52.419 45.0361L49.18 40.3604H49.1775Z" fill="white"/>
</svg>
